<svg width="168" height="183" viewBox="0 0 168 183" fill="none" xmlns="http://www.w3.org/2000/svg">
<g id="Collaboration-pana 1">
<g id="freepik--character-2--inject-66">
<path id="Vector" d="M120.824 101.879L119.136 101.528C117.629 101.077 116.777 100.883 116.427 100.389C115.962 99.7265 116.849 99.3467 116.849 99.3467C116.849 99.3467 115.81 98.7432 116.051 98.0807C116.11 97.9493 116.209 97.84 116.334 97.7687C116.46 97.6974 116.604 97.6678 116.747 97.684C116.747 97.684 115.844 97.1059 115.73 96.6585C115.574 96.0509 116.325 95.8905 116.325 95.8905C115.152 94.8017 115.435 94.0084 115.76 93.9915C116.085 93.9746 117.026 94.654 117.026 94.654C117.87 95.076 120.115 96.2872 119.486 94.7849C118.857 93.2825 118.937 91.8942 119.22 91.5312C119.295 91.4539 119.392 91.4021 119.498 91.3832C119.604 91.3643 119.713 91.3793 119.81 91.4261C119.907 91.4729 119.986 91.549 120.037 91.6437C120.088 91.7383 120.108 91.8467 120.094 91.9532C120.131 92.5018 120.243 93.0428 120.427 93.5611C120.561 93.9821 120.765 94.3774 121.031 94.73C121.343 95.152 121.621 95.4769 121.875 95.7555L123.094 97.5025L120.824 101.879Z" fill="#FFBE9D"/>
<path id="Vector_2" d="M169.582 186.768L160.298 191.085L143.604 161.364C141.43 153.523 139.333 125.916 139.333 125.916L151.411 126.836C151.411 126.836 153.272 146.67 156.188 156.865L169.582 186.768Z" fill="#263238"/>
<path id="Vector_3" d="M156.897 114.804C157.125 114.804 159.594 122.118 157.218 126.966C156.977 127.452 155.108 130.123 155.108 130.123C148.533 137.879 141.874 152.911 140.017 156.874C136.219 164.98 122.141 191.646 122.141 191.646L113.11 186.477L126.315 152.527L138.3 121.89L156.897 114.804Z" fill="#263238"/>
<path id="Vector_4" d="M140.616 146.172C140.616 146.172 139.979 149.257 139.65 149.08C138.709 148.569 132.239 146.159 132.239 146.159L133.986 144.222L140.616 146.172Z" fill="#455A64"/>
<path id="Vector_5" d="M138.708 148.569C138.708 148.569 137.497 153.544 135.94 153.274C134.383 153.004 131.129 151.367 131.129 151.367L133.091 146.459L138.708 148.569Z" fill="#455A64"/>
<path id="Vector_6" d="M139.648 149.08L132.428 146.193L132.774 147.252L138.492 149.345L139.648 149.08Z" fill="#263238"/>
<path id="Vector_7" d="M152.181 134.027C152.151 134.094 152.111 134.156 152.063 134.213L151.692 134.715C151.371 135.137 150.915 135.795 150.388 136.609C149.329 138.238 147.995 140.568 146.632 143.201C145.269 145.834 144.1 148.265 143.277 150.012L142.285 152.093L142.011 152.654C141.982 152.721 141.945 152.785 141.901 152.844C141.915 152.772 141.938 152.703 141.969 152.637L142.209 152.059C142.42 151.557 142.737 150.835 143.134 149.949C143.935 148.177 145.066 145.729 146.438 143.1C147.58 140.839 148.848 138.644 150.236 136.525C150.784 135.719 151.257 135.086 151.603 134.664C151.764 134.47 151.899 134.314 152.025 134.187C152.07 134.127 152.123 134.073 152.181 134.027Z" fill="#455A64"/>
<path id="Vector_8" d="M124.528 97.3254C124.038 98.4308 123.483 99.506 122.866 100.545C122.312 101.621 121.692 102.661 121.009 103.66C121.499 102.553 122.055 101.477 122.671 100.436C123.228 99.3629 123.848 98.3243 124.528 97.3254Z" fill="#263238"/>
<path id="Vector_9" d="M141.59 84.4841C142.084 84.4841 142.671 88.0711 143.169 94.5151C143.734 101.824 143.684 109.201 141.662 113.838C141.476 114.334 141.193 114.787 140.831 115.173C140.469 115.559 140.034 115.87 139.552 116.088C134.319 118.248 119.883 102.769 119.883 102.769L123.436 96.5364L133.602 104.744C133.602 104.744 134.615 96.4394 134.421 92.6119C134.265 89.7085 137.164 84.5179 141.59 84.4841Z" fill="#455A64"/>
<path id="Vector_10" d="M146.089 84.5556C146.089 84.5556 154.917 85.8469 157.2 89.3158C159.483 92.7846 158.327 123.38 158.327 123.38L135.632 124.722C135.632 124.722 137.463 85.7794 138.586 85.3363C141.405 84.2307 145.751 84.4459 146.089 84.5556Z" fill="#455A64"/>
<path id="Vector_11" d="M109.754 76.4995C109.688 75.5711 109.861 74.6413 110.257 73.7987C110.432 73.4382 110.524 73.0431 110.527 72.6424V71.6169H97.297C96.7586 71.6169 96.2423 71.8308 95.8617 72.2115C95.481 72.5921 95.2672 73.1084 95.2672 73.6468V86.8216H94.3725C93.9592 86.8177 93.5522 86.7196 93.1825 86.5346C92.3533 86.1354 91.4369 85.9511 90.5178 85.9988C89.5987 86.0466 88.7064 86.3248 87.923 86.8078C87.1396 87.2909 86.4904 87.9633 86.035 88.763C85.5796 89.5628 85.3328 90.4643 85.3172 91.3845C85.3016 92.3047 85.5178 93.2141 85.9458 94.0288C86.3738 94.8436 86.9999 95.5376 87.7665 96.0469C88.5331 96.5562 89.4154 96.8644 90.3324 96.9433C91.2494 97.0221 92.1714 96.869 93.0137 96.4981C93.3623 96.3394 93.7405 96.256 94.1235 96.2533H95.284V109.099C95.2835 109.366 95.3356 109.63 95.4373 109.877C95.5391 110.124 95.6885 110.348 95.8771 110.537C96.0656 110.726 96.2896 110.876 96.5361 110.978C96.7826 111.08 97.0469 111.133 97.3139 111.133H133.053C133.492 111.133 133.913 110.959 134.223 110.649C134.533 110.338 134.707 109.918 134.707 109.479V73.2712C134.708 73.0538 134.665 72.8384 134.582 72.6375C134.5 72.4365 134.378 72.2539 134.224 72.1002C134.07 71.9465 133.888 71.8247 133.687 71.7417C133.486 71.6588 133.27 71.6164 133.053 71.6169H120.14V73.0813C120.138 73.4201 120.204 73.7557 120.334 74.0688C120.636 74.8049 120.775 75.5981 120.74 76.3931C120.705 77.1881 120.497 77.966 120.132 78.6728C119.766 79.3796 119.251 79.9985 118.622 80.4863C117.993 80.9742 117.266 81.3194 116.491 81.4981C115.715 81.6768 114.91 81.6846 114.131 81.521C113.353 81.3574 112.619 81.0264 111.981 80.5508C111.342 80.0753 110.816 79.4666 110.436 78.767C110.057 78.0674 109.834 77.2937 109.784 76.4995H109.754Z" fill="#FDA92B"/>
<path id="Vector_12" d="M137.171 91.0632C137.184 91.147 137.191 91.2316 137.192 91.3164C137.192 91.5106 137.192 91.7384 137.192 92.0465C137.192 92.709 137.192 93.6206 137.226 94.7304C137.226 96.9966 137.264 100.128 137.192 103.592C137.12 107.057 136.931 110.184 136.699 112.454C136.58 113.585 136.466 114.493 136.374 115.121C136.327 115.417 136.289 115.653 136.255 115.843C136.249 115.928 136.231 116.012 136.201 116.092C136.195 116.008 136.195 115.923 136.201 115.839C136.222 115.649 136.243 115.417 136.277 115.113C136.34 114.48 136.433 113.569 136.53 112.442C136.724 110.184 136.897 107.061 136.952 103.605C137.007 100.149 137.019 97.0219 137.049 94.7431C137.049 93.6332 137.078 92.7217 137.087 92.0592C137.087 91.7638 137.087 91.519 137.108 91.3291C137.117 91.238 137.138 91.1486 137.171 91.0632Z" fill="#263238"/>
<path id="Vector_13" d="M150.671 70.1318C150.308 72.436 150.329 74.4573 151.456 75.9597C151.701 76.2486 151.926 76.5531 152.131 76.8712C152.233 77.0312 152.301 77.2104 152.331 77.3976C152.36 77.5849 152.351 77.7763 152.304 77.9599C152.252 78.1228 152.157 78.2689 152.03 78.383C151.903 78.4971 151.747 78.5751 151.579 78.6091C151.412 78.6431 151.238 78.6317 151.076 78.5762C150.914 78.5207 150.77 78.423 150.659 78.2933C150.695 78.554 150.653 78.8196 150.538 79.0563C150.423 79.2931 150.24 79.4902 150.013 79.6226C149.897 79.6761 149.77 79.7025 149.642 79.6996C149.514 79.6968 149.388 79.665 149.274 79.6064C149.16 79.5479 149.061 79.4642 148.985 79.3617C148.908 79.2592 148.856 79.1407 148.831 79.0149C148.831 79.0149 149.131 80.1839 147.789 80.0024L148.734 71.9844L150.671 70.1318Z" fill="#263238"/>
<path id="Vector_14" d="M144.658 87.8556C144.135 87.8556 143.617 87.7455 143.139 87.5324C142.661 87.3194 142.232 87.0082 141.882 86.619C141.532 86.2298 141.268 85.7714 141.106 85.2734C140.945 84.7755 140.889 84.2491 140.945 83.7285C141.067 82.53 141.177 81.5552 141.177 81.5552C141.177 81.5552 138.223 81.0952 138.185 78.1412C138.147 75.1872 138.661 68.4057 138.661 68.4057C140.341 67.6849 142.182 67.4253 143.995 67.6538C145.808 67.8823 147.527 68.5905 148.975 69.7054L149.397 70.0388L148.372 84.3868C148.305 85.3269 147.885 86.2069 147.196 86.8502C146.507 87.4935 145.601 87.8527 144.658 87.8556Z" fill="#FFBE9D"/>
<path id="Vector_15" d="M139.421 73.7399C139.482 73.6833 139.525 73.6101 139.544 73.5294C139.564 73.4487 139.559 73.3641 139.53 73.2861C139.502 73.2081 139.451 73.1402 139.384 73.091C139.317 73.0418 139.237 73.0134 139.155 73.0093C139.072 73.0052 138.989 73.0257 138.918 73.0682C138.847 73.1107 138.789 73.1732 138.754 73.2481C138.718 73.3229 138.705 73.4067 138.716 73.4889C138.727 73.5711 138.763 73.6481 138.818 73.7103C138.855 73.7525 138.9 73.7868 138.951 73.8112C139.002 73.8355 139.057 73.8495 139.113 73.8523C139.17 73.855 139.226 73.8465 139.279 73.8272C139.332 73.8079 139.38 73.7782 139.421 73.7399Z" fill="#263238"/>
<path id="Vector_16" d="M138.602 72.8074C138.648 72.8581 138.939 72.6344 139.345 72.6344C139.75 72.6344 140.049 72.8412 140.092 72.7905C140.134 72.7399 140.07 72.6766 139.94 72.5753C139.767 72.4502 139.558 72.385 139.345 72.3896C139.131 72.3896 138.922 72.4576 138.75 72.5838C138.623 72.6935 138.581 72.7863 138.602 72.8074Z" fill="#263238"/>
<path id="Vector_17" d="M143.29 73.4276C143.242 73.4562 143.2 73.4942 143.166 73.5394C143.133 73.5846 143.108 73.636 143.095 73.6907C143.082 73.7453 143.079 73.8021 143.088 73.8576C143.097 73.9132 143.117 73.9664 143.147 74.0142C143.176 74.0632 143.214 74.1059 143.259 74.1398C143.305 74.1738 143.357 74.1981 143.412 74.2115C143.467 74.2249 143.524 74.2271 143.58 74.2178C143.636 74.2085 143.69 74.1881 143.738 74.1576C143.786 74.1287 143.829 74.0902 143.862 74.0445C143.896 73.9989 143.92 73.9469 143.933 73.8918C143.946 73.8367 143.947 73.7795 143.938 73.7236C143.928 73.6678 143.908 73.6145 143.877 73.5668C143.848 73.5187 143.81 73.4769 143.764 73.4438C143.719 73.4107 143.668 73.3869 143.613 73.374C143.558 73.361 143.502 73.3591 143.446 73.3683C143.391 73.3775 143.338 73.3976 143.29 73.4276Z" fill="#263238"/>
<path id="Vector_18" d="M143.021 73.1659C143.067 73.2165 143.358 72.9929 143.764 72.9929C144.169 72.9929 144.468 73.1996 144.51 73.149C144.553 73.0983 144.485 73.0351 144.359 72.9338C144.184 72.8081 143.974 72.7429 143.759 72.7481C143.545 72.7484 143.338 72.8196 143.169 72.9506C143.042 73.0519 143 73.1448 143.021 73.1659Z" fill="#263238"/>
<path id="Vector_19" d="M141.392 76.521C141.181 76.4406 140.959 76.3936 140.734 76.3818C140.628 76.3818 140.544 76.348 140.535 76.2889C140.531 76.1824 140.557 76.0769 140.611 75.9851L140.932 75.1411C141.238 74.4426 141.472 73.7143 141.628 72.9678C141.254 73.6387 140.949 74.3456 140.717 75.0778C140.611 75.3647 140.51 75.639 140.413 75.9218C140.342 76.0581 140.321 76.2148 140.354 76.3649C140.369 76.4053 140.393 76.4416 140.424 76.4709C140.456 76.5003 140.494 76.5218 140.535 76.5337C140.595 76.549 140.656 76.5575 140.717 76.559C140.942 76.5852 141.171 76.5723 141.392 76.521Z" fill="#263238"/>
<path id="Vector_20" d="M142.713 76.9724C143.135 76.7192 141.544 77.5927 140.717 77.5505C140.854 77.764 141.06 77.9245 141.301 78.0058C141.542 78.087 141.803 78.0842 142.042 77.9979C142.928 77.6729 142.713 76.9724 142.713 76.9724Z" fill="white"/>
<path id="Vector_21" d="M141.151 81.5132C142.514 81.5385 143.855 81.1565 145 80.416C145 80.416 144.088 82.526 141.143 82.277L141.151 81.5132Z" fill="#EB996E"/>
<path id="Vector_22" d="M149.397 72.9001C149.46 72.879 151.6 72.7313 151.245 75.2211C150.891 77.7109 148.494 76.5293 148.498 76.4576C148.502 76.3858 149.397 72.9001 149.397 72.9001Z" fill="#FFBE9D"/>
<path id="Vector_23" d="M149.384 75.6937C149.384 75.6937 149.422 75.7317 149.494 75.7739C149.541 75.8038 149.594 75.824 149.649 75.8334C149.704 75.8429 149.76 75.8412 149.815 75.8287C149.99 75.7492 150.141 75.6245 150.252 75.4672C150.364 75.31 150.431 75.126 150.448 74.9341C150.487 74.7222 150.477 74.5041 150.418 74.2969C150.405 74.2158 150.374 74.139 150.325 74.0729C150.277 74.0068 150.213 73.9534 150.139 73.9171C150.091 73.8958 150.037 73.8927 149.987 73.9082C149.936 73.9237 149.893 73.9568 149.865 74.0015C149.823 74.0648 149.831 74.1154 149.815 74.1196C149.798 74.1238 149.768 74.069 149.815 73.9719C149.836 73.9105 149.88 73.8594 149.937 73.8284C149.974 73.8066 150.015 73.7927 150.058 73.7876C150.101 73.7825 150.145 73.7863 150.186 73.7989C150.285 73.8379 150.372 73.902 150.438 73.9849C150.505 74.0677 150.549 74.1665 150.566 74.2715C150.643 74.5011 150.66 74.7465 150.616 74.9847C150.598 75.2085 150.513 75.4217 150.374 75.5975C150.234 75.7733 150.045 75.9037 149.831 75.9722C149.762 75.9817 149.691 75.9757 149.624 75.9545C149.556 75.9334 149.495 75.8976 149.443 75.8498C149.38 75.7528 149.376 75.6979 149.384 75.6937Z" fill="#EB996E"/>
<path id="Vector_24" d="M137.868 68.123C137.911 67.8722 138.052 67.6485 138.258 67.5001C138.465 67.3517 138.722 67.2905 138.974 67.3297C138.804 67.3151 138.64 67.2616 138.494 67.1733C138.348 67.085 138.224 66.9644 138.133 66.8206C138.041 66.6769 137.984 66.514 137.965 66.3446C137.947 66.1751 137.967 66.0037 138.026 65.8435C138.084 65.6834 138.179 65.5388 138.302 65.4211C138.425 65.3034 138.574 65.2157 138.737 65.1647C138.899 65.1138 139.072 65.101 139.24 65.1273C139.408 65.1537 139.569 65.2185 139.708 65.3167C139.375 65.0043 139.111 64.6265 138.931 64.2068C138.841 63.9923 138.82 63.7548 138.871 63.5277C138.923 63.3007 139.044 63.0954 139.218 62.9408C139.411 62.8297 139.629 62.7712 139.851 62.7712C140.074 62.7712 140.292 62.8297 140.484 62.9408C141.092 63.2489 141.552 63.806 142.172 64.0676C142.793 64.3292 143.523 64.2659 144.211 64.3377C144.975 64.4 145.701 64.7029 146.283 65.2028C146.573 65.4521 146.8 65.766 146.947 66.1193C147.093 66.4726 147.155 66.8554 147.127 67.2368C148.059 67.182 149.08 67.2368 149.802 67.815C149.747 67.439 149.794 67.0553 149.936 66.7031C150.078 66.3509 150.312 66.0428 150.612 65.8105C150.996 65.5439 151.441 65.3799 151.905 65.3341C152.37 65.2883 152.839 65.3622 153.267 65.5488C153.47 65.618 153.656 65.7288 153.814 65.8741C153.971 66.0195 154.097 66.1961 154.182 66.3928C154.372 66.9625 154.014 67.5744 153.562 67.9711C153.14 68.3296 152.639 68.584 152.1 68.7137C151.561 68.8435 151 68.8449 150.46 68.718C150.631 69.1584 150.703 69.6309 150.671 70.1022C150.625 70.9166 149.971 71.7607 149.684 72.5245L149.621 73.0267L149.131 75.1156L147.823 75.0101L148.182 70.6213C148.182 70.6213 148.426 68.7771 146.823 68.8404C145.219 68.9037 142.945 70.5706 139.872 69.925C139.368 69.8649 138.884 69.6934 138.455 69.4228C138.252 69.276 138.091 69.0789 137.988 68.8509C137.885 68.6229 137.844 68.372 137.868 68.123Z" fill="#263238"/>
<path id="Vector_25" d="M155.072 70.0518C154.826 70.2409 154.536 70.3656 154.228 70.4147C153.483 70.5842 152.701 70.4928 152.014 70.1556C151.328 69.8185 150.778 69.256 150.456 68.5621C150.305 68.288 150.225 67.9804 150.224 67.6675C150.262 67.6675 150.329 68.0093 150.595 68.5115C150.935 69.146 151.466 69.6579 152.113 69.975C152.759 70.2922 153.489 70.3987 154.199 70.2797C154.739 70.1699 155.056 70.0096 155.072 70.0518Z" fill="#263238"/>
<path id="Vector_26" d="M151.937 72.4822C151.903 72.4822 151.937 72.2206 151.861 71.8324C151.741 71.3252 151.534 70.8426 151.249 70.406C150.951 69.9602 150.683 69.495 150.447 69.0134C150.337 68.8143 150.279 68.5909 150.278 68.3635C150.396 68.5491 150.499 68.7439 150.586 68.9459C150.776 69.3004 151.101 69.7561 151.43 70.2921C151.733 70.7485 151.932 71.2656 152.013 71.807C152.062 72.0344 152.035 72.2715 151.937 72.4822Z" fill="#263238"/>
<path id="Vector_27" d="M130.074 96.8908C128.606 95.9974 127.187 95.0239 125.825 93.9748C124.192 92.5949 124.31 92.4429 124.5 92.2868C125.006 91.8353 127.454 94.6078 127.272 93.6963C127.091 92.7848 123.896 90.6663 124.436 90.219C125.154 89.6324 127.669 92.5822 127.901 92.8143C128.133 93.0464 128.471 92.713 128.251 92.5147C127.935 92.2277 124.694 89.1387 125.39 88.5563C125.778 88.2314 126.276 88.9994 126.276 88.9994C126.276 88.9994 129.104 92.1264 129.424 91.8395C129.745 91.5525 128.158 89.6577 127.568 89.0585C126.977 88.4593 127.032 87.9486 127.5 87.9022C127.817 87.8727 129.644 89.662 130.209 90.2654C130.775 90.8689 132.286 92.5611 132.201 91.1094C132.117 89.6577 132.581 88.5015 132.919 88.2778C133.256 88.0541 133.682 88.4593 133.522 88.8813C133.393 89.3571 133.331 89.8484 133.336 90.3414C133.324 90.7372 133.378 91.1324 133.497 91.5103C133.598 91.8353 133.699 92.1222 133.796 92.3754L134.788 95.1058L132.298 98.2581L130.074 96.8908Z" fill="#FFBE9D"/>
<path id="Vector_28" d="M154.639 87.5055C155.162 87.6363 158.277 89.2484 158.327 96.3084C158.365 101.921 157.935 114.378 154.107 116.231C152.373 117.075 149.74 117.075 147.452 115.577C141.004 111.412 129.585 97.9838 129.585 97.9838L134.695 92.54C134.695 92.54 147.963 106.044 148.529 105.546C149.373 104.795 148.077 98.3467 148.803 91.9745C149.301 87.4422 151.411 86.6995 154.639 87.5055Z" fill="#455A64"/>
<path id="Vector_29" d="M134.686 92.7341C134.661 92.7688 134.631 92.8 134.597 92.827L134.323 93.0971C134.083 93.3292 133.728 93.6752 133.281 94.1394C132.007 95.4546 130.836 96.8654 129.778 98.3594V98.2623C133.382 101.938 138.64 107.285 144.476 113.231C145.855 114.542 147.537 115.491 149.372 115.995C150.236 116.235 151.144 116.276 152.026 116.113C152.865 115.927 153.644 115.534 154.292 114.969C155.474 113.886 156.34 112.502 156.795 110.965C157.198 109.624 157.469 108.247 157.605 106.854C157.947 104.322 158.128 102.212 158.208 100.79C158.25 100.073 158.272 99.5241 158.288 99.1359V98.7139C158.283 98.6662 158.283 98.6181 158.288 98.5704C158.295 98.6194 158.295 98.6691 158.288 98.7181C158.288 98.8236 158.288 98.9671 158.288 99.1401C158.288 99.5199 158.288 100.077 158.25 100.799C158.196 102.238 158.039 104.322 157.715 106.88C157.588 108.285 157.324 109.674 156.925 111.028C156.469 112.6 155.594 114.017 154.393 115.13C153.721 115.719 152.911 116.13 152.039 116.324C151.126 116.493 150.186 116.453 149.291 116.206C147.419 115.698 145.702 114.732 144.295 113.395C138.438 107.441 133.222 102.056 129.643 98.3721L129.597 98.3256L129.635 98.275C130.708 96.785 131.899 95.3837 133.196 94.0845C133.656 93.633 134.04 93.2954 134.272 93.0675L134.559 92.8185L134.686 92.7341Z" fill="#263238"/>
<path id="Vector_30" d="M134.69 92.5398C134.69 92.5398 134.72 92.5398 134.762 92.5989L134.96 92.7973L135.715 93.5611C136.37 94.2279 137.327 95.1816 138.53 96.3505C139.733 97.5195 141.185 98.912 142.822 100.44L145.405 102.832C146.312 103.651 147.249 104.52 148.253 105.339L148.08 105.424C148.11 104.926 148.139 104.398 148.169 103.866C148.337 101.077 148.494 98.4183 148.637 96.0003C148.726 94.7933 148.747 93.6413 148.878 92.5652C148.975 91.559 149.252 90.5784 149.696 89.6703C150.064 88.9155 150.623 88.2697 151.317 87.7966C151.847 87.4492 152.457 87.2416 153.089 87.1931C153.486 87.1601 153.885 87.209 154.262 87.3366C154.395 87.3755 154.521 87.4322 154.638 87.5054C154.638 87.5054 154.507 87.4505 154.25 87.3788C153.874 87.2719 153.482 87.2375 153.093 87.2775C152.481 87.3409 151.894 87.5539 151.384 87.8978C150.72 88.3725 150.186 89.0067 149.831 89.742C149.409 90.6375 149.146 91.6001 149.055 92.5863C148.937 93.6497 148.924 94.8018 148.84 96.0087L148.388 103.875C148.359 104.406 148.325 104.938 148.299 105.432V105.647L148.135 105.516C147.105 104.672 146.185 103.828 145.278 102.984C144.371 102.14 143.518 101.347 142.7 100.579C141.071 99.0386 139.627 97.625 138.437 96.456C137.247 95.2871 136.306 94.2954 135.669 93.6117C135.344 93.2741 135.108 93.004 134.943 92.8184L134.762 92.6116C134.707 92.5652 134.686 92.5398 134.69 92.5398Z" fill="#263238"/>
<path id="Vector_31" d="M131.837 100.237C132.019 99.9139 132.235 99.6111 132.483 99.3343C132.905 98.7983 133.504 98.0683 134.192 97.2791C134.88 96.49 135.517 95.7937 135.989 95.3C136.231 95.0182 136.501 94.7623 136.795 94.5361C136.593 94.8475 136.361 95.1386 136.103 95.4055L134.356 97.4226L132.601 99.4356C132.372 99.7264 132.116 99.9948 131.837 100.237Z" fill="#263238"/>
<path id="Vector_32" d="M149.406 108.593C149.145 108.077 148.93 107.539 148.764 106.985C148.526 106.458 148.334 105.912 148.19 105.352C148.816 106.336 149.23 107.44 149.406 108.593Z" fill="#263238"/>
<path id="Vector_33" d="M150.566 107.694C150.069 107.388 149.613 107.021 149.207 106.601C148.754 106.229 148.347 105.804 147.996 105.335C148.95 106.009 149.813 106.801 150.566 107.694Z" fill="#263238"/>
</g>
<g id="freepik--character-1--inject-66">
<path id="Vector_34" d="M24.1696 170.56L10.615 182.794L6.90137 178.042L18.7807 163.327L24.1696 170.56Z" fill="#FFBE9D"/>
<path id="Vector_35" d="M10.927 183.253L11.3912 182.831L7.11213 177.577L5.18359 179.265L5.44101 179.595C6.59307 181.059 11.4081 186.958 12.5137 187.642C13.746 188.402 10.927 183.253 10.927 183.253Z" fill="#FDA92B"/>
<g id="Group" opacity="0.5">
<path id="Vector_36" d="M6.84227 181.063C7.20357 180.613 7.38412 180.044 7.34867 179.468C7.32311 178.899 7.08171 178.36 6.67347 177.962L5.25977 179.228L6.84227 181.063Z" fill="white"/>
</g>
<path id="Vector_37" opacity="0.5" d="M12.231 185.836C12.231 185.836 13.1256 187.727 12.7079 187.756C12.2901 187.786 7.22185 182.009 5.18359 179.266L5.30597 179.173L11.1844 185.963C11.1844 185.963 11.9567 185.553 12.231 185.836Z" fill="white"/>
<path id="Vector_38" d="M5.23828 179.093C5.25734 179.126 5.27998 179.157 5.3058 179.185L5.50836 179.451L6.28062 180.405C6.93472 181.207 7.8589 182.3 8.90124 183.486C9.94358 184.671 10.9142 185.726 11.6274 186.482L12.4714 187.368L12.7035 187.604C12.73 187.634 12.7598 187.661 12.7921 187.684L12.7161 187.592L12.4925 187.347C12.2688 187.098 11.9903 186.798 11.6485 186.444C10.9479 185.68 9.98578 184.621 8.94344 183.435C7.9011 182.249 6.9727 181.16 6.30172 180.367L5.51258 179.43L5.29736 179.177C5.28075 179.147 5.26094 179.118 5.23828 179.093Z" fill="#263238"/>
<path id="Vector_39" d="M10.6533 182.591C10.6533 182.591 10.7251 182.734 10.8517 182.882C10.9783 183.03 11.0964 183.139 11.1133 183.123C11.1302 183.106 11.0416 182.979 10.9107 182.831C10.7799 182.684 10.6702 182.574 10.6533 182.591Z" fill="#263238"/>
<path id="Vector_40" d="M10.9102 182.203C10.9271 182.342 10.9877 182.472 11.0832 182.574C11.2224 182.755 11.3786 182.861 11.3912 182.844C11.4039 182.827 11.2773 182.701 11.1507 182.523C11.0791 182.41 10.9987 182.303 10.9102 182.203Z" fill="#263238"/>
<path id="Vector_41" d="M11.1977 183.751C11.3004 183.732 11.3921 183.675 11.4551 183.591C11.5323 183.506 11.5874 183.403 11.6154 183.291C11.6422 183.221 11.6497 183.145 11.637 183.071C11.6244 182.996 11.5922 182.927 11.5437 182.869C11.5068 182.843 11.4614 182.832 11.4167 182.839C11.372 182.845 11.3314 182.868 11.3032 182.903C11.2587 182.956 11.2257 183.018 11.2061 183.085C11.1723 183.191 11.1524 183.302 11.147 183.414C11.131 183.515 11.1412 183.618 11.1766 183.713C11.1921 183.616 11.2006 183.517 11.2019 183.418C11.2181 183.313 11.2435 183.21 11.2778 183.11C11.3074 183.004 11.4044 182.865 11.4931 182.933C11.5245 182.982 11.5453 183.038 11.554 183.096C11.5628 183.154 11.5592 183.214 11.5437 183.27C11.5209 183.372 11.4762 183.467 11.4129 183.549C11.3469 183.622 11.2749 183.69 11.1977 183.751Z" fill="#263238"/>
<path id="Vector_42" d="M6.71191 177.974C6.71191 177.974 6.85539 178.105 7.02841 178.358C7.25678 178.687 7.38969 179.073 7.41243 179.472C7.4272 179.871 7.33387 180.266 7.14235 180.616C6.99043 180.882 6.85117 181.038 6.86383 181.038C6.87649 181.038 6.90603 181.013 6.96511 180.949C7.05049 180.86 7.12552 180.761 7.18877 180.654C7.4065 180.301 7.51241 179.891 7.49261 179.477C7.46903 179.062 7.32208 178.664 7.07061 178.333C6.99678 178.234 6.91183 178.143 6.81741 178.063C6.75833 177.995 6.71613 177.97 6.71191 177.974Z" fill="#263238"/>
<path id="Vector_43" d="M7.88867 181.27C8.04896 181.56 8.24613 181.828 8.47525 182.068C8.6848 182.326 8.92742 182.556 9.19687 182.751C9.19687 182.751 8.90147 182.422 8.54277 182.013C8.18407 181.603 7.93087 181.257 7.88867 181.27Z" fill="#263238"/>
<path id="Vector_44" d="M7.024 180.274C6.99868 180.274 6.97758 180.363 6.93116 180.46C6.88474 180.557 6.8341 180.642 6.85098 180.658C6.86786 180.675 6.95226 180.612 7.00712 180.494C7.06198 180.376 7.0451 180.274 7.024 180.274Z" fill="#263238"/>
<path id="Vector_45" d="M7.15757 179.489C7.13647 179.489 7.11115 179.565 7.10271 179.666C7.09427 179.768 7.10271 179.848 7.13225 179.848C7.16179 179.848 7.17867 179.772 7.18711 179.67C7.19555 179.569 7.17867 179.489 7.15757 179.489Z" fill="#263238"/>
<path id="Vector_46" d="M6.90137 178.768C6.90137 178.768 6.94779 178.852 6.98577 178.949C7.02375 179.046 7.03219 179.135 7.05751 179.139C7.08283 179.143 7.11237 179.038 7.05751 178.92C7.00265 178.801 6.90981 178.747 6.90137 178.768Z" fill="#263238"/>
<path id="Vector_47" d="M6.66504 178.299C6.66504 178.299 6.66504 178.359 6.66504 178.414C6.66504 178.47 6.72047 178.512 6.74179 178.504C6.7631 178.495 6.74179 178.444 6.74179 178.384C6.74179 178.325 6.68636 178.291 6.66504 178.299Z" fill="#263238"/>
<path id="Vector_48" d="M48.2782 170.433L49.9114 188.912H42.9273L39.8467 170.433H48.2782Z" fill="#FFBE9D"/>
<path id="Vector_49" d="M36.0018 116.198C36.0018 116.198 41.4667 152.49 40.6733 154.258C39.88 156.026 22.1771 174.134 22.1771 174.134L15.5264 162.757C15.5264 162.757 27.2411 149.78 27.0723 149.109C26.9035 148.438 18.6323 113.277 18.6323 113.277L36.0018 116.198Z" fill="#263238"/>
<path id="Vector_50" d="M37.9482 129.6C37.8933 129.212 33.4834 119.299 33.4834 119.299L35.6229 116.278L36.0027 116.198L37.9482 129.6Z" fill="#263238"/>
<path id="Vector_51" d="M15.5275 112.78L15.1941 114.126C14.2286 118.098 14.8333 122.29 16.8821 125.828L31.6858 151.498C32.7376 153.317 33.5034 155.287 33.9562 157.339L37.6487 173.948H49.8023C49.8023 173.948 48.3 162.554 46.9622 154.245C45.9494 147.97 37.5516 128.503 33.4836 119.287L36.0156 116.185L31.6394 115.455L15.5275 112.78Z" fill="#263238"/>
<path id="Vector_52" d="M33.8037 119.228C33.9733 119.783 34.1806 120.325 34.4241 120.852C34.8461 121.844 35.3862 123.215 35.977 124.739C36.5678 126.262 37.0869 127.655 37.4582 128.659C37.6366 129.211 37.8508 129.751 38.0997 130.275C38.0844 130.118 38.0489 129.964 37.9942 129.816C37.914 129.529 37.7874 129.111 37.6228 128.6C37.2894 127.579 36.7788 126.182 36.2049 124.65C35.631 123.118 35.0275 121.76 34.5802 120.785C34.3565 120.295 34.1582 119.903 34.0358 119.637C33.977 119.491 33.8989 119.353 33.8037 119.228Z" fill="#455A64"/>
<path id="Vector_53" d="M35.1338 162.381C35.1432 162.286 35.1432 162.19 35.1338 162.094C35.1085 161.879 35.079 161.609 35.041 161.271C34.999 160.837 34.9342 160.404 34.8469 159.976C34.7498 159.478 34.657 158.9 34.4924 158.288C34.4164 157.976 34.3363 157.646 34.2519 157.309C34.1675 156.971 34.0493 156.621 33.9396 156.258C33.737 155.528 33.4501 154.773 33.1715 153.971C32.5098 152.244 31.7562 150.553 30.9138 148.907C29.3537 145.946 27.6264 143.076 25.7401 140.311C25.0269 139.247 24.4361 138.391 24.0226 137.804L23.5457 137.15C23.4921 137.07 23.4314 136.995 23.3643 136.926C23.4007 137.016 23.4474 137.101 23.5035 137.179L23.9466 137.876C24.3686 138.505 24.9172 139.365 25.6009 140.408C26.9892 142.56 28.9051 145.548 30.7028 149.017C31.5331 150.649 32.281 152.322 32.9437 154.03C33.2264 154.823 33.5218 155.574 33.7328 156.296C33.8425 156.655 33.9565 157.001 34.0535 157.338C34.1506 157.676 34.2265 157.997 34.3067 158.309C34.484 158.925 34.5852 159.495 34.695 159.997C34.8047 160.499 34.8806 160.925 34.9313 161.263C34.9819 161.601 35.0326 161.866 35.0705 162.077C35.08 162.181 35.1012 162.283 35.1338 162.381Z" fill="#455A64"/>
<path id="Vector_54" d="M17.5231 124.617C17.5231 124.617 17.4894 124.579 17.4303 124.49L17.1729 124.068C17.3757 123.749 17.6411 123.475 17.953 123.262C18.2649 123.048 18.6168 122.901 18.9874 122.827C19.5417 122.703 20.1147 122.685 20.6754 122.777C21.3339 122.892 21.9807 123.065 22.6082 123.296C23.3332 123.52 24.0388 123.802 24.7182 124.14C25.4937 124.526 26.1036 125.179 26.4358 125.98C26.6015 126.417 26.6295 126.894 26.5159 127.347C26.3775 127.786 26.1951 128.21 25.9716 128.613C25.7433 129.006 25.6198 129.45 25.6129 129.904C25.6497 130.362 25.8594 130.789 26.1994 131.099C27.0097 131.905 28.2082 132.052 29.1999 132.554C30.1677 133.044 30.9563 133.827 31.4533 134.791C31.9199 135.648 32.1391 136.618 32.0863 137.593C32.0364 138.443 31.7627 139.264 31.293 139.973C30.6221 141.003 29.6205 141.774 28.4529 142.159C28.1384 142.258 27.8146 142.325 27.4865 142.357C27.3727 142.366 27.2585 142.366 27.1447 142.357C27.5742 142.295 27.9977 142.196 28.4107 142.062C29.5393 141.657 30.5012 140.888 31.1453 139.876C31.5903 139.186 31.8464 138.392 31.888 137.572C31.9276 136.631 31.7103 135.698 31.2592 134.871C30.7752 133.949 30.0154 133.201 29.0859 132.732C28.6091 132.495 28.0731 132.335 27.5372 132.132C26.9756 131.947 26.4603 131.644 26.0264 131.242C25.647 130.894 25.4147 130.414 25.3765 129.9C25.3841 129.409 25.5162 128.929 25.7606 128.503C25.9796 128.111 26.1591 127.698 26.2965 127.271C26.4007 126.858 26.3742 126.423 26.2205 126.026C25.9119 125.269 25.3391 124.65 24.6085 124.283C23.9407 123.94 23.2464 123.65 22.5323 123.418C21.9187 123.182 21.2843 123.004 20.6375 122.886C20.0969 122.787 19.5421 122.794 19.0043 122.907C18.6445 122.974 18.3012 123.111 17.9942 123.31C17.6872 123.509 17.4224 123.766 17.2151 124.068L17.4472 124.49C17.4771 124.529 17.5026 124.572 17.5231 124.617Z" fill="#FAFAFA"/>
<path id="Vector_55" d="M48.2065 162.427C47.9083 162.165 47.5708 161.952 47.2064 161.794C46.7717 161.624 46.3184 161.505 45.856 161.44C45.32 161.351 44.6955 161.297 44.0118 161.187C43.2542 161.078 42.5232 160.831 41.8554 160.457C40.5771 159.742 39.6023 158.586 39.1124 157.206C38.6225 155.826 38.651 154.314 39.1926 152.954C39.5935 151.962 40.197 151.101 40.3658 150.143C40.4727 149.206 40.3361 148.257 39.9691 147.387C39.6482 146.581 39.3748 145.757 39.1504 144.919C38.9684 144.171 38.9684 143.391 39.1504 142.644C39.4149 141.562 40.0254 140.596 40.889 139.893C41.1978 139.631 41.5488 139.424 41.9272 139.281C41.5827 139.48 41.254 139.706 40.9439 139.956C40.124 140.668 39.5495 141.62 39.3023 142.678C39.1274 143.402 39.1274 144.157 39.3023 144.881C39.5371 145.709 39.8189 146.524 40.1463 147.32C40.5321 148.22 40.6775 149.204 40.5683 150.177C40.3911 151.202 39.7707 152.076 39.3909 153.038C38.8677 154.35 38.8357 155.807 39.3009 157.14C39.7661 158.474 40.6972 159.595 41.9229 160.296C42.5752 160.669 43.2904 160.92 44.0329 161.035C44.7081 161.153 45.3327 161.216 45.8729 161.318C46.343 161.401 46.8009 161.543 47.2359 161.74C47.5098 161.862 47.7642 162.024 47.9913 162.221C48.139 162.343 48.215 162.419 48.2065 162.427Z" fill="#FAFAFA"/>
<path id="Vector_56" d="M42.5347 174.535C42.4925 174.535 42.4798 173.986 42.2604 173.138C42.1316 172.642 41.9549 172.16 41.7329 171.699C41.4554 171.137 41.1202 170.605 40.7327 170.112C40.3359 169.626 39.8889 169.184 39.3992 168.791C38.9969 168.469 38.5645 168.187 38.1079 167.947C37.3272 167.551 36.7913 167.42 36.8039 167.378C36.9338 167.379 37.0623 167.403 37.1837 167.449C37.3276 167.482 37.4687 167.526 37.6057 167.58C37.7962 167.644 37.9823 167.72 38.1628 167.808C38.6406 168.028 39.0933 168.298 39.5132 168.614C40.5438 169.394 41.3646 170.418 41.9017 171.593C42.1206 172.071 42.2875 172.57 42.3996 173.083C42.4467 173.279 42.4805 173.478 42.5009 173.678C42.5251 173.827 42.5364 173.978 42.5347 174.13C42.5583 174.264 42.5583 174.401 42.5347 174.535Z" fill="#FAFAFA"/>
<path id="Vector_57" d="M36.2973 126.798C36.2973 126.798 36.2425 126.798 36.1328 126.832C35.9719 126.855 35.8099 126.869 35.6475 126.874C35.0507 126.894 34.4541 126.83 33.8751 126.684C33.0108 126.476 32.1924 126.11 31.4612 125.604C30.55 124.995 29.8007 124.174 29.278 123.211C28.7552 122.247 28.4748 121.171 28.4608 120.076C28.4409 119.187 28.5839 118.301 28.8828 117.464C29.0784 116.898 29.3511 116.363 29.693 115.873C29.7832 115.74 29.8818 115.613 29.9884 115.493C30.0602 115.408 30.1024 115.366 30.1066 115.37C29.6572 116.036 29.2955 116.756 29.0305 117.514C28.7632 118.339 28.6432 119.205 28.676 120.071C28.6986 121.131 28.972 122.169 29.4737 123.103C29.9755 124.036 30.6913 124.836 31.5625 125.439C32.2702 125.939 33.0601 126.31 33.8962 126.537C34.6816 126.729 35.4889 126.817 36.2973 126.798Z" fill="#FAFAFA"/>
<path id="Vector_58" d="M25.4776 150.477C25.5592 150.505 25.6383 150.54 25.7139 150.582C25.87 150.654 26.0895 150.776 26.368 150.941C27.1565 151.419 27.8549 152.032 28.4316 152.751C28.8299 153.256 29.1357 153.828 29.3346 154.439C29.5556 155.148 29.6048 155.898 29.4781 156.63C29.3518 157.449 28.9605 158.205 28.364 158.782C27.7395 159.389 26.8237 159.592 26.292 160.259C25.7603 160.926 25.6421 161.799 25.562 162.614C25.5362 163.423 25.3941 164.225 25.14 164.994C24.8538 165.688 24.3325 166.261 23.6672 166.61C23.1017 166.919 22.4778 167.105 21.8357 167.158C20.9157 167.209 19.9934 167.118 19.1011 166.888C18.7846 166.812 18.5441 166.749 18.3795 166.703C18.2949 166.687 18.2126 166.66 18.1348 166.623C18.2216 166.627 18.3078 166.639 18.3922 166.661L19.118 166.804C20.0041 167 20.9137 167.067 21.8188 167.002C22.4356 166.943 23.0334 166.756 23.5743 166.454C24.1982 166.117 24.6859 165.574 24.9543 164.918C25.1917 164.164 25.3238 163.382 25.3467 162.592C25.3778 162.166 25.4427 161.743 25.5409 161.326C25.64 160.885 25.8392 160.472 26.1232 160.12C26.7309 159.389 27.6509 159.191 28.2332 158.626C28.7972 158.084 29.1691 157.372 29.2924 156.6C29.4177 155.897 29.3772 155.175 29.1743 154.49C28.9885 153.899 28.7031 153.344 28.3303 152.848C27.773 152.133 27.1015 151.514 26.3427 151.017C26.0768 150.84 25.8616 150.709 25.7139 150.625C25.6293 150.585 25.5499 150.536 25.4776 150.477Z" fill="#FAFAFA"/>
<path id="Vector_59" d="M26.7733 63.1567C24.4312 62.5744 21.9118 64.0387 20.7471 66.1487C19.5824 68.2587 19.5697 70.8456 20.1183 73.1919C20.3504 74.1751 20.6754 75.1922 20.4475 76.1796C20.2027 77.2389 19.3587 78.0618 18.9536 79.0746C18.1813 81.0284 19.1646 83.1933 20.1268 85.0585C20.5488 85.9025 21.1269 86.852 22.0637 87.0377C23.1145 87.2445 24.0387 86.4047 24.9249 85.8012C26.4892 84.7456 28.393 84.3163 30.259 84.5985C32.369 84.9235 34.2764 86.1346 36.3948 86.1726C37.3544 86.1795 38.3003 85.9455 39.1459 85.492C39.9915 85.0386 40.7099 84.3803 41.2352 83.5773C41.864 82.594 42.0792 81.1128 41.1719 80.387C40.5727 79.9101 39.6569 79.927 39.1294 79.37C38.488 78.6905 38.7665 77.5976 39.0957 76.7282C39.4248 75.8589 39.754 74.7955 39.1674 74.0696C38.5133 73.251 37.0954 73.4071 36.4708 72.5673C35.8463 71.7275 36.5046 70.4573 36.4708 69.3432C36.4293 68.8526 36.2776 68.3777 36.027 67.9539C35.7764 67.5301 35.4333 67.1683 35.0233 66.8956C34.23 66.3175 34.1203 66.1318 33.0273 64.1442" fill="#263238"/>
<path id="Vector_60" d="M23.5069 82.4545L31.9469 83.1761C31.9469 83.1761 38.0954 82.2773 40.4502 97.8702L49.7933 97.4862L50.2153 103.698L37.3654 104.331L35.8504 103.424L36.0023 116.198L14.7462 114.632C15.2272 111.733 17.4934 107.918 18.253 105.47C17.4807 103.538 13.2101 95.6589 12.9991 91.6119C12.4252 80.5302 23.5069 82.4545 23.5069 82.4545Z" fill="#FDA92B"/>
<path id="Vector_61" opacity="0.3" d="M36.7998 93.8867C36.7998 93.8867 38.2937 95.5747 38.319 96.9969C38.357 99.2757 37.7831 100.445 38.4963 102.934L36.4622 103.424C36.4622 103.424 36.15 102.816 36.4158 101.516C36.6817 100.217 37.1965 98.6342 37.4244 97.2205C37.6267 96.0703 37.4048 94.8857 36.7998 93.8867Z" fill="black"/>
<path id="Vector_62" d="M36.4627 103.424C36.4004 103.263 36.3578 103.096 36.3361 102.926C36.2762 102.461 36.2762 101.99 36.3361 101.525C36.4263 100.841 36.5674 100.166 36.7581 99.5032C36.9979 98.7035 37.184 97.8886 37.3151 97.0641C37.4403 96.248 37.3516 95.4134 37.0577 94.6418C36.7882 94.0241 36.4205 93.4541 35.969 92.9538C35.2009 92.0803 34.6565 91.595 34.703 91.5654C34.8469 91.6571 34.9812 91.7632 35.1039 91.8819C35.4554 92.1862 35.7893 92.5103 36.104 92.8525C36.5869 93.3571 36.9795 93.9409 37.2645 94.5785C37.5844 95.3818 37.682 96.2564 37.5472 97.1105C37.4187 97.9458 37.2254 98.7697 36.9691 99.575C36.7694 100.227 36.6101 100.891 36.4922 101.563C36.4214 102.016 36.3973 102.476 36.4205 102.934C36.4515 103.095 36.4657 103.259 36.4627 103.424Z" fill="#263238"/>
<g id="Group_2" opacity="0.2">
<path id="Vector_63" d="M36.7405 103.263L30.4443 103.407C29.9452 103.454 29.4419 103.395 28.9673 103.234C28.3047 102.955 27.8785 102.309 27.5071 101.693C26.4015 99.8703 25.3887 97.9966 24.4688 96.0723C24.4688 96.0723 26.1314 101.36 27.1738 103.668C27.2751 103.96 27.4844 104.201 27.7585 104.342C28.0326 104.484 28.3505 104.514 28.6465 104.428C31.3866 104.433 34.113 104.041 36.7405 103.263Z" fill="black"/>
</g>
<path id="Vector_64" d="M77.9031 89.3375C78.8315 89.2714 79.7613 89.4443 80.6039 89.8396C80.9628 90.0148 81.3565 90.1071 81.7559 90.1097H82.7856V76.88C82.7856 76.6131 82.733 76.3488 82.6307 76.1023C82.5284 75.8557 82.3785 75.6318 82.1896 75.4432C82.0007 75.2547 81.7764 75.1053 81.5296 75.0035C81.2829 74.9017 81.0185 74.8496 80.7516 74.8502H67.5767V73.9556C67.581 73.5409 67.6791 73.1326 67.8637 72.7613C68.3654 71.7326 68.5279 70.5713 68.3279 69.4444C68.0937 68.0897 67.3595 66.8724 66.2706 66.0333C65.1816 65.1942 63.8173 64.7945 62.4477 64.9134C61.0781 65.0322 59.8031 65.661 58.875 66.6751C57.9469 67.6893 57.4334 69.0149 57.4361 70.3897C57.436 71.15 57.5956 71.9019 57.9045 72.5967C58.0607 72.9447 58.144 73.321 58.1493 73.7024V74.8502H45.2994C44.761 74.8502 44.2447 75.0641 43.8641 75.4447C43.4834 75.8254 43.2695 76.3417 43.2695 76.88V112.619C43.2695 112.836 43.3123 113.052 43.3954 113.252C43.4786 113.453 43.6004 113.635 43.754 113.789C43.9077 113.943 44.09 114.064 44.2907 114.148C44.4914 114.231 44.7065 114.273 44.9238 114.273H81.1314C81.5698 114.272 81.9899 114.098 82.2999 113.788C82.6099 113.478 82.7845 113.058 82.7856 112.619V99.7018H81.3213C80.9827 99.7022 80.6474 99.7681 80.3338 99.8959C79.6854 100.161 78.9917 100.297 78.2913 100.297C76.8363 100.348 75.4205 99.8197 74.3553 98.8273C73.29 97.8348 72.6627 96.4599 72.6112 95.0049C72.5597 93.55 73.0883 92.1341 74.0807 91.0689C75.0732 90.0037 76.4481 89.3763 77.9031 89.3248V89.3375Z" fill="#FDA92B"/>
<path id="Vector_65" opacity="0.2" d="M77.9031 89.3375C78.8315 89.2714 79.7613 89.4443 80.6039 89.8396C80.9628 90.0148 81.3565 90.1071 81.7559 90.1097H82.7856V76.88C82.7856 76.6131 82.733 76.3488 82.6307 76.1023C82.5284 75.8557 82.3785 75.6318 82.1896 75.4432C82.0007 75.2547 81.7764 75.1053 81.5296 75.0035C81.2829 74.9017 81.0185 74.8496 80.7516 74.8502H67.5767V73.9556C67.581 73.5409 67.6791 73.1326 67.8637 72.7613C68.3654 71.7326 68.5279 70.5713 68.3279 69.4444C68.0937 68.0897 67.3595 66.8724 66.2706 66.0333C65.1816 65.1942 63.8173 64.7945 62.4477 64.9134C61.0781 65.0322 59.8031 65.661 58.875 66.6751C57.9469 67.6893 57.4334 69.0149 57.4361 70.3897C57.436 71.15 57.5956 71.9019 57.9045 72.5967C58.0607 72.9447 58.144 73.321 58.1493 73.7024V74.8502H45.2994C44.761 74.8502 44.2447 75.0641 43.8641 75.4447C43.4834 75.8254 43.2695 76.3417 43.2695 76.88V112.619C43.2695 112.836 43.3123 113.052 43.3954 113.252C43.4786 113.453 43.6004 113.635 43.754 113.789C43.9077 113.943 44.09 114.064 44.2907 114.148C44.4914 114.231 44.7065 114.273 44.9238 114.273H81.1314C81.5698 114.272 81.9899 114.098 82.2999 113.788C82.6099 113.478 82.7845 113.058 82.7856 112.619V99.7018H81.3213C80.9827 99.7022 80.6474 99.7681 80.3338 99.8959C79.6854 100.161 78.9917 100.297 78.2913 100.297C76.8363 100.348 75.4205 99.8197 74.3553 98.8273C73.29 97.8348 72.6627 96.4599 72.6112 95.0049C72.5597 93.55 73.0883 92.1341 74.0807 91.0689C75.0732 90.0037 76.4481 89.3763 77.9031 89.3248V89.3375Z" fill="white"/>
<path id="Vector_66" d="M23.3924 82.7498L22.7383 67.8532L28.6463 63.3716L34.0226 66.0006C34.0226 66.0006 34.204 72.7526 34.0226 75.6813C33.8411 78.61 30.8913 78.9223 30.8913 78.9223C30.8913 78.9223 30.9631 80.6356 31.0306 82.4375C31.05 82.955 30.9643 83.471 30.7785 83.9543C30.5927 84.4376 30.3108 84.8783 29.9499 85.2495C29.5889 85.6207 29.1563 85.9149 28.6784 86.1141C28.2005 86.3133 27.6871 86.4135 27.1693 86.4086C26.1915 86.3966 25.2554 86.0108 24.5531 85.3305C23.8507 84.6501 23.4354 83.7267 23.3924 82.7498Z" fill="#FFBE9D"/>
<path id="Vector_67" d="M33.4494 70.9212C33.4494 70.9955 33.4274 71.0681 33.3861 71.1299C33.3448 71.1917 33.2862 71.2398 33.2176 71.2682C33.1489 71.2967 33.0734 71.3041 33.0006 71.2896C32.9277 71.2751 32.8608 71.2393 32.8082 71.1868C32.7557 71.1343 32.72 71.0674 32.7055 70.9945C32.691 70.9217 32.6984 70.8461 32.7268 70.7775C32.7553 70.7089 32.8034 70.6502 32.8652 70.609C32.9269 70.5677 32.9995 70.5457 33.0738 70.5457C33.1734 70.5457 33.269 70.5852 33.3394 70.6557C33.4098 70.7261 33.4494 70.8216 33.4494 70.9212Z" fill="#263238"/>
<path id="Vector_68" d="M33.8123 70.5119C33.7617 70.5625 33.4874 70.3262 33.0823 70.3051C32.6772 70.284 32.3775 70.4781 32.3353 70.4233C32.2931 70.3684 32.3649 70.3093 32.4957 70.2207C32.6733 70.1037 32.8841 70.0475 33.0963 70.0604C33.3086 70.0733 33.511 70.1548 33.6731 70.2924C33.7955 70.3979 33.8334 70.4739 33.8123 70.5119Z" fill="#263238"/>
<path id="Vector_69" d="M29.1066 70.9212C29.1066 70.9955 29.0846 71.0681 29.0433 71.1299C29.0021 71.1917 28.9434 71.2398 28.8748 71.2682C28.8061 71.2967 28.7306 71.3041 28.6578 71.2896C28.5849 71.2751 28.518 71.2393 28.4655 71.1868C28.4129 71.1343 28.3772 71.0674 28.3627 70.9945C28.3482 70.9217 28.3556 70.8461 28.3841 70.7775C28.4125 70.7089 28.4606 70.6502 28.5224 70.609C28.5842 70.5677 28.6568 70.5457 28.731 70.5457C28.8307 70.5457 28.9262 70.5852 28.9966 70.6557C29.0671 70.7261 29.1066 70.8216 29.1066 70.9212Z" fill="#263238"/>
<path id="Vector_70" d="M29.3387 70.5121C29.2881 70.5627 29.0138 70.3264 28.6086 70.3053C28.2035 70.2842 27.9039 70.4783 27.8617 70.4234C27.8195 70.3686 27.8912 70.3095 28.0221 70.2209C28.1949 70.1041 28.4002 70.045 28.6086 70.0521C28.8212 70.0659 29.0237 70.1472 29.1868 70.2842C29.3218 70.3981 29.3598 70.4741 29.3387 70.5121Z" fill="#263238"/>
<path id="Vector_71" d="M30.9045 78.9137C29.5132 78.8547 28.1677 78.3993 27.0264 77.6013C27.0264 77.6013 27.997 79.7915 30.9341 79.6733L30.9045 78.9137Z" fill="#EB996E"/>
<path id="Vector_72" d="M30.7951 73.9217C31.0106 73.8689 31.2315 73.8406 31.4534 73.8373C31.5547 73.8373 31.6559 73.8373 31.6813 73.7445C31.693 73.6314 31.6725 73.5173 31.6222 73.4153C31.535 73.1537 31.4421 72.8723 31.3437 72.5713C31.1538 71.9763 30.9892 71.4361 30.8752 71.0437C30.8006 70.8336 30.751 70.6155 30.7275 70.3938C30.8383 70.5863 30.9248 70.7919 30.985 71.0057C31.1242 71.3939 31.3099 71.9257 31.4998 72.5207L31.7657 73.3647C31.8264 73.4968 31.8398 73.6458 31.8036 73.7867C31.7887 73.8226 31.7658 73.8546 31.7365 73.8802C31.7072 73.9059 31.6724 73.9244 31.6348 73.9344C31.5759 73.9399 31.5166 73.9399 31.4576 73.9344C31.237 73.9567 31.0146 73.9525 30.7951 73.9217Z" fill="#263238"/>
<path id="Vector_73" d="M30.4947 74.272C30.3363 74.3137 30.191 74.395 30.0727 74.5083C29.9999 74.5699 29.9519 74.6558 29.9379 74.7501C29.9238 74.8444 29.9446 74.9406 29.9963 75.0208C30.048 75.1009 30.1271 75.1595 30.2188 75.1855C30.3105 75.2116 30.4086 75.2034 30.4947 75.1624C30.5719 75.1456 30.6447 75.1124 30.708 75.0651C30.7714 75.0178 30.8238 74.9574 30.8618 74.8881C30.8973 74.8158 30.9114 74.7349 30.9025 74.6549C30.8935 74.5749 30.8618 74.4991 30.8112 74.4366C30.7585 74.3797 30.688 74.3425 30.6113 74.331C30.5346 74.3195 30.4563 74.3344 30.3892 74.3733" fill="#EB996E"/>
<path id="Vector_74" d="M31.0189 74.8544C31.0189 74.9135 30.6856 75.0063 30.3269 74.7996C29.9682 74.5928 29.8711 74.251 29.9302 74.2383C29.9893 74.2256 30.1412 74.4493 30.4366 74.6097C30.732 74.77 31.0105 74.7911 31.0189 74.8544Z" fill="#263238"/>
<path id="Vector_75" d="M28.9749 62.7894C28.3548 62.7679 27.7375 62.8835 27.1671 63.1278C26.5967 63.3722 26.0872 63.7393 25.6749 64.2031C24.8562 65.1504 24.4398 66.3799 24.5144 67.6297C24.5061 68.0992 24.6546 68.5581 24.9364 68.9337C25.3584 69.419 26.0716 69.5161 26.7172 69.5794C27.373 69.7009 28.0481 69.6662 28.688 69.4781C29.3125 69.2376 29.8316 68.5919 29.6923 67.942C29.3843 68.364 29.6417 68.9886 30.0806 69.2544C30.545 69.4823 31.0639 69.5758 31.5787 69.5245H33.79C34.0423 69.5495 34.2961 69.4949 34.5158 69.3684C34.6339 69.2482 34.7268 69.1057 34.7892 68.9492C34.8515 68.7927 34.8819 68.6253 34.8787 68.4569C34.9969 67.2795 35.1066 66.0261 34.5664 64.9754C34.0298 64.0444 33.1545 63.3565 32.1231 63.0553C31.1145 62.7219 30.0131 62.8738 28.9623 62.8063" fill="#263238"/>
<path id="Vector_76" d="M22.7396 82.328C23.5456 82.75 25.0733 81.0874 25.5712 80.3235C26.0146 79.5187 26.1638 78.5847 25.9932 77.6818C25.8877 76.7745 25.6472 75.8841 25.6261 74.9726C25.5966 73.4956 26.1536 72.0819 26.4152 70.626C26.6959 69.0423 26.6282 67.4165 26.2169 65.8616C26.0565 65.2581 25.7949 64.5956 25.2041 64.3677C24.9572 64.2853 24.6929 64.2696 24.438 64.3222C24.183 64.3749 23.9465 64.4939 23.7524 64.6673C23.3704 65.0197 23.0707 65.452 22.8747 65.9333L22.4062 69.4866L22.7565 74.462L22.7396 82.328Z" fill="#263238"/>
<path id="Vector_77" d="M43.9819 101.065L46.1341 108.407C46.1341 108.407 34.8709 112.505 28.773 112.429C23.0549 112.362 21.4176 111.712 19.4088 107.095C17.4001 102.478 15.1044 97.178 14.636 94.127C14.636 94.127 10.0404 81.3741 22.346 82.6317L24.034 92.3377C24.034 92.3377 25.397 96.8404 25.4941 97.1021C26.414 99.5328 27.6041 103.094 28.7561 103.525C29.9082 103.955 43.9819 101.065 43.9819 101.065Z" fill="#FDA92B"/>
<path id="Vector_78" d="M43.9827 101.065C43.8873 101.101 43.7882 101.126 43.6873 101.141L42.8433 101.322C42.0921 101.478 41.0034 101.71 39.653 102.023C38.3026 102.335 36.699 102.719 34.8591 103.057C32.8611 103.453 30.8274 103.641 28.7907 103.618H28.719L28.6936 103.55C28.4615 102.947 28.2168 102.31 27.9847 101.66C26.3642 97.1063 25.132 92.9201 24.136 89.9239C23.6423 88.4216 23.2287 87.2104 22.9333 86.3791C22.7941 85.9571 22.6801 85.6575 22.5957 85.4212C22.5499 85.3108 22.5146 85.1963 22.4902 85.0793C22.4902 85.0793 22.5451 85.1891 22.6379 85.4043C22.7308 85.6195 22.8574 85.936 23.0135 86.3496C23.3342 87.1725 23.7689 88.3752 24.2795 89.8733C25.3176 92.861 26.5752 97.0473 28.1915 101.584C28.4236 102.234 28.6641 102.85 28.8962 103.47L28.7949 103.403C30.8178 103.428 32.838 103.25 34.8253 102.871C36.6483 102.542 38.2646 102.166 39.6234 101.883C40.9823 101.601 42.071 101.381 42.8306 101.246L43.7 101.107C43.7934 101.088 43.8878 101.074 43.9827 101.065Z" fill="#263238"/>
<path id="Vector_79" d="M46.1351 108.408C46.0303 108.468 45.9201 108.519 45.8059 108.56C45.5865 108.652 45.2615 108.779 44.8395 108.935C43.9955 109.247 42.7548 109.661 41.2061 110.113C39.6574 110.564 37.8048 111.058 35.7412 111.581C33.5089 112.204 31.2203 112.604 28.909 112.775C28.2982 112.804 27.6861 112.789 27.0775 112.729C26.4816 112.674 25.8939 112.551 25.3262 112.362C24.263 111.977 23.2884 111.381 22.4609 110.611C21.0917 109.29 19.9509 107.751 19.0849 106.057C18.3253 104.635 17.8189 103.437 17.4559 102.605C17.2829 102.183 17.1521 101.867 17.0677 101.643C17.0167 101.534 16.9757 101.421 16.9453 101.305C17.0098 101.406 17.0635 101.514 17.1057 101.626C17.2112 101.862 17.3547 102.175 17.5277 102.571C17.9033 103.39 18.4392 104.576 19.2157 105.985C20.0909 107.65 21.2311 109.161 22.5917 110.459C23.4032 111.201 24.3543 111.775 25.3895 112.147C25.937 112.327 26.5033 112.445 27.0775 112.497C27.6762 112.557 28.2785 112.572 28.8795 112.543C31.1756 112.374 33.4497 111.981 35.6695 111.37C37.7372 110.86 39.594 110.387 41.1555 109.952C42.7169 109.518 43.9491 109.108 44.8015 108.842L45.7806 108.505C45.8961 108.463 46.0146 108.431 46.1351 108.408Z" fill="#263238"/>
<path id="Vector_80" opacity="0.2" d="M18.9873 105.981C18.9873 105.981 21.0973 114.084 26.5833 113.919C32.0693 113.754 37.2219 111.408 37.2219 111.408L36.9772 111.155C36.9772 111.155 27.6932 113.155 25.1147 111.898C20.2153 109.518 18.9873 105.981 18.9873 105.981Z" fill="black"/>
<path id="Vector_81" d="M45.3705 107.563H47.0965C48.6621 107.411 49.5357 107.386 49.9745 106.973C50.5611 106.411 49.7551 105.867 49.7551 105.867C49.7551 105.867 50.8861 105.475 50.7806 104.787C50.7088 104.314 50.1729 104.263 50.1729 104.263C50.1729 104.263 51.173 103.871 51.3714 103.453C51.6372 102.888 50.9494 102.584 50.9494 102.584C52.3124 101.74 52.19 100.896 51.8735 100.828C51.557 100.761 50.4978 101.25 50.4978 101.25C49.599 101.508 47.1471 102.255 48.0544 100.904C48.9617 99.5539 49.1516 98.1739 48.9449 97.7646C48.887 97.6755 48.8029 97.6067 48.7041 97.5677C48.6053 97.5287 48.4969 97.5214 48.3938 97.547C48.2907 97.5725 48.1982 97.6295 48.129 97.7101C48.0599 97.7908 48.0176 97.8909 48.008 97.9967C47.868 98.5278 47.6535 99.0365 47.3708 99.5074C47.1574 99.8953 46.8807 100.245 46.5521 100.541C46.1681 100.883 45.8263 101.157 45.5351 101.385L43.999 102.862L45.3705 107.563Z" fill="#FFBE9D"/>
</g>
</g>
</svg>
