<svg width="353" height="235" viewBox="0 0 353 235" fill="none" xmlns="http://www.w3.org/2000/svg">
<path d="M299.495 29.4731H48.794C45.6825 29.4731 43.1602 31.9955 43.1602 35.107V202.744C43.1602 205.856 45.6825 208.378 48.794 208.378H299.495C302.606 208.378 305.129 205.856 305.129 202.744V35.107C305.129 31.9955 302.606 29.4731 299.495 29.4731Z" fill="#2D583D"/>
<path d="M247.443 121.903C248.044 120.932 248.772 120.047 249.609 119.272L248.775 116.226L253.383 113.765L255.449 116.156C256.561 115.893 257.702 115.78 258.843 115.822L260.406 113.082L265.404 114.603L265.173 117.751C266.144 118.351 267.029 119.079 267.804 119.916L270.854 119.079L273.311 123.691L270.925 125.757C271.184 126.867 271.295 128.007 271.254 129.146L273.998 130.713L272.478 135.712L269.329 135.481C268.727 136.45 267.999 137.335 267.164 138.112L267.997 141.158L263.385 143.619L261.319 141.228C260.209 141.491 259.069 141.603 257.93 141.562L256.367 144.306L251.369 142.781L251.595 139.633C250.624 139.032 249.74 138.304 248.964 137.468L245.918 138.305L243.457 133.693L245.848 131.627C245.587 130.517 245.476 129.377 245.518 128.238L242.774 126.675L244.276 121.672L247.425 121.903H247.443ZM251.642 126.642C251.236 127.979 251.235 129.406 251.641 130.742C252.046 132.079 252.839 133.265 253.918 134.152C254.998 135.038 256.317 135.583 257.707 135.72C259.097 135.857 260.496 135.578 261.728 134.919C262.959 134.26 263.968 133.25 264.625 132.018C265.283 130.786 265.561 129.386 265.423 127.996C265.285 126.606 264.737 125.289 263.85 124.21C262.963 123.131 261.776 122.339 260.439 121.936C258.648 121.395 256.716 121.586 255.066 122.469C253.417 123.351 252.185 124.852 251.642 126.642Z" fill="#285338"/>
<path d="M193.443 63.9683C194.021 63.0313 194.722 62.1764 195.528 61.4267L194.724 58.485L199.176 56.1317L201.172 58.4379C202.25 58.1825 203.359 58.0748 204.466 58.1179L205.977 55.468L210.806 56.9365L210.585 59.977C211.52 60.558 212.373 61.2608 213.122 62.0668L216.064 61.2619L218.44 65.7144L216.13 67.7054C216.384 68.7843 216.493 69.8922 216.454 71L219.095 72.4826L217.626 77.307L214.586 77.0857C214.007 78.0232 213.304 78.8781 212.496 79.6273L213.301 82.569L208.853 84.9223L206.857 82.6161C205.779 82.8715 204.67 82.9792 203.563 82.9361L202.057 85.586L197.228 84.1175L197.449 81.077C196.514 80.4948 195.659 79.7922 194.907 78.9872L191.97 79.7921L189.593 75.3396L191.9 73.3439C191.648 72.2726 191.541 71.1725 191.58 70.0728L188.93 68.562L190.403 63.7376L193.443 63.9588V63.9683ZM197.491 68.5384C197.1 69.8254 197.1 71.1993 197.489 72.4866C197.879 73.7739 198.641 74.9169 199.68 75.7713C200.718 76.6258 201.987 77.1533 203.325 77.2873C204.664 77.4213 206.012 77.1559 207.199 76.5244C208.386 75.8929 209.36 74.9237 209.997 73.7392C210.634 72.5547 210.906 71.208 210.779 69.8692C210.651 68.5303 210.129 67.2593 209.28 66.2166C208.43 65.1739 207.291 64.4062 206.005 64.0106C204.278 63.4854 202.414 63.6673 200.821 64.5163C199.228 65.3653 198.037 66.8119 197.51 68.5384H197.491Z" fill="#285338"/>
<path d="M172.292 105.472C172.654 104.89 173.091 104.358 173.591 103.89L173.092 102.059L175.864 100.581L177.107 102.017C177.774 101.859 178.46 101.792 179.145 101.819L180.086 100.167L183.089 101.109L182.953 102.991C183.535 103.352 184.067 103.789 184.534 104.29L186.365 103.791L187.847 106.564L186.407 107.783C186.565 108.45 186.633 109.135 186.61 109.821L188.257 110.762L187.325 113.774L185.442 113.638C185.079 114.22 184.64 114.751 184.139 115.219L184.642 117.05L181.87 118.528L180.627 117.092C179.96 117.25 179.275 117.317 178.589 117.29L177.648 118.942L174.641 118.029L174.777 116.146C174.197 115.784 173.669 115.345 173.205 114.843L171.374 115.313L169.91 112.56L171.322 111.317C171.164 110.65 171.097 109.964 171.125 109.279L169.473 108.338L170.414 105.33L172.297 105.467L172.292 105.472ZM174.815 108.296C174.572 109.097 174.572 109.953 174.816 110.754C175.059 111.555 175.534 112.266 176.182 112.798C176.829 113.329 177.619 113.656 178.453 113.739C179.286 113.821 180.125 113.655 180.864 113.26C181.602 112.866 182.208 112.261 182.603 111.523C182.998 110.785 183.166 109.946 183.085 109.113C183.004 108.279 182.677 107.488 182.147 106.84C181.617 106.192 180.906 105.716 180.105 105.472C179.571 105.31 179.01 105.255 178.454 105.31C177.898 105.366 177.359 105.531 176.868 105.795C176.376 106.06 175.942 106.419 175.589 106.852C175.237 107.285 174.974 107.784 174.815 108.319V108.296Z" fill="#285338"/>
<path d="M216.808 188.695C217.17 188.112 217.609 187.58 218.112 187.114L217.608 185.283L220.38 183.805L221.623 185.24C222.29 185.082 222.976 185.015 223.661 185.043L224.602 183.391L227.605 184.308L227.469 186.191C228.052 186.552 228.584 186.991 229.05 187.495L230.881 186.991L232.363 189.763L230.923 191.006C231.081 191.673 231.149 192.359 231.126 193.044L232.773 193.985L231.86 196.988L229.977 196.852C229.615 197.435 229.176 197.966 228.673 198.433L229.177 200.264L226.391 201.756L225.148 200.316C224.476 200.47 223.785 200.533 223.096 200.504L222.155 202.151L219.147 201.238L219.284 199.356C218.701 198.993 218.169 198.555 217.702 198.052L215.871 198.555L214.412 195.797L215.848 194.555C215.692 193.887 215.626 193.202 215.65 192.517L213.998 191.576L214.916 188.568L216.799 188.704L216.808 188.695ZM219.331 191.561C219.088 192.363 219.088 193.218 219.332 194.02C219.575 194.821 220.05 195.532 220.698 196.063C221.345 196.595 222.135 196.922 222.968 197.005C223.802 197.087 224.641 196.92 225.38 196.526C226.118 196.132 226.724 195.527 227.119 194.789C227.514 194.051 227.682 193.212 227.601 192.378C227.52 191.545 227.193 190.754 226.663 190.106C226.133 189.458 225.422 188.982 224.621 188.737C224.088 188.575 223.529 188.519 222.974 188.573C222.42 188.627 221.881 188.79 221.39 189.052C220.899 189.314 220.464 189.671 220.11 190.102C219.757 190.532 219.492 191.028 219.331 191.561Z" fill="#285338"/>
<path d="M148.597 113.729L139.115 140.729L172.888 152.589L182.369 125.589L148.597 113.729Z" fill="#1D482D"/>
<path d="M182.364 125.579C182.309 125.564 182.254 125.547 182.2 125.527L181.729 125.367L179.884 124.727L172.961 122.322L148.561 113.802L148.679 113.746L139.209 140.748L139.143 140.616L172.913 152.496L172.801 152.548C175.676 144.424 178.053 137.689 179.719 132.977L181.677 127.518C181.903 126.892 182.073 126.407 182.195 126.077C182.317 125.748 182.379 125.579 182.379 125.579C182.379 125.579 182.327 125.743 182.219 126.049L181.724 127.461L179.842 132.921C178.19 137.651 175.832 144.415 172.989 152.571L172.961 152.651L172.876 152.623L139.101 140.781L139.002 140.748L139.035 140.649C142.461 130.902 145.7 121.686 148.528 113.652L148.556 113.567L148.646 113.595L173.074 122.223L179.936 124.727L181.748 125.376L182.219 125.546L182.364 125.579Z" fill="black"/>
<path d="M285.558 176.919C285.921 176.897 286.273 176.779 286.575 176.575C286.928 176.317 287.183 175.947 287.299 175.526C287.362 175.254 287.388 174.976 287.375 174.697C287.375 174.391 287.375 174.071 287.375 173.728C287.422 170.974 287.488 167.021 287.572 162.145C287.596 160.921 287.624 159.641 287.648 158.304C287.648 157.64 287.676 156.958 287.69 156.266C287.719 155.928 287.719 155.588 287.69 155.249C287.628 154.924 287.475 154.624 287.248 154.383C287.015 154.142 286.715 153.978 286.386 153.913C286.03 153.878 285.671 153.866 285.313 153.875H283.049L278.343 153.847L257.304 153.691C256.88 153.697 256.473 153.86 256.162 154.149C255.852 154.438 255.66 154.832 255.623 155.254C255.623 156.172 255.576 157.08 255.553 157.984C255.511 159.801 255.473 161.594 255.431 163.354C255.351 166.87 255.27 170.264 255.195 173.497L255.167 174.702C255.141 175.07 255.226 175.437 255.412 175.756C255.598 176.063 255.879 176.301 256.212 176.434C256.563 176.544 256.932 176.584 257.299 176.552L261.756 176.599L269.758 176.684L281.341 176.834L284.489 176.891L285.308 176.914H285.586C285.494 176.925 285.401 176.925 285.308 176.914H284.489H281.341L269.753 176.881L261.752 176.839L257.294 176.811C256.891 176.845 256.484 176.798 256.099 176.674C255.704 176.516 255.373 176.231 255.158 175.865C254.936 175.496 254.831 175.07 254.856 174.641L254.885 173.436C254.95 170.202 255.026 166.809 255.101 163.288C255.139 161.528 255.176 159.74 255.214 157.923C255.238 157.01 255.261 156.087 255.285 155.165C255.332 154.655 255.567 154.18 255.943 153.833C256.319 153.485 256.81 153.289 257.323 153.282L278.366 153.466L283.073 153.508H285.337C285.715 153.496 286.095 153.512 286.471 153.555C286.858 153.634 287.211 153.829 287.483 154.115C287.749 154.398 287.928 154.751 288.001 155.132C288.033 155.49 288.033 155.851 288.001 156.21C288.001 156.901 287.963 157.584 287.949 158.252C287.917 159.586 287.885 160.864 287.85 162.088C287.718 166.964 287.61 170.918 287.535 173.671C287.535 174.01 287.535 174.335 287.506 174.636C287.515 174.925 287.483 175.213 287.412 175.493C287.282 175.933 287.002 176.314 286.622 176.571C286.39 176.724 286.126 176.823 285.85 176.858C285.756 176.891 285.658 176.912 285.558 176.919Z" fill="black"/>
<path d="M272.652 163.251L276.531 165.646L272.53 167.953L268.529 170.259L268.647 165.552L268.769 160.85L272.652 163.251Z" fill="black"/>
<path d="M253.266 75.3066C253.299 75.3026 253.332 75.3026 253.365 75.3066L253.642 75.3819L254.716 75.669L258.721 76.7515L258.655 76.7892C258.834 76.0973 259.027 75.3207 259.239 74.4876V74.45H259.281C260.706 74.2215 262.083 73.7536 263.352 73.0662C264.062 72.675 264.715 72.1907 265.296 71.626C265.914 71.0238 266.403 70.3035 266.736 69.508C267.44 67.7695 267.513 65.8397 266.943 64.0529C266.318 62.1303 265.105 60.4526 263.475 59.2569C262.249 58.3677 260.793 57.8498 259.281 57.7648C257.847 57.641 256.404 57.8755 255.083 58.4473C253.853 58.9917 252.783 59.8424 251.976 60.9183C251.797 61.1866 251.59 61.4313 251.435 61.7043L250.964 62.5233C250.702 63.0629 250.489 63.6253 250.329 64.2036C250.19 64.7555 250.106 65.32 250.08 65.8885C250.067 66.4216 250.108 66.9546 250.202 67.4794C250.38 68.4224 250.714 69.3291 251.19 70.1622C251.885 71.3882 252.799 72.4762 253.887 73.3721C253.68 73.984 253.515 74.45 253.417 74.7841C253.36 74.9348 253.322 75.0571 253.289 75.1418C253.257 75.2266 253.242 75.2642 253.242 75.2689C253.249 75.2286 253.26 75.1891 253.275 75.1513C253.304 75.0618 253.336 74.9442 253.384 74.7936C253.492 74.4641 253.642 73.9887 253.854 73.3816V73.4145C252.743 72.5283 251.809 71.441 251.101 70.2093C250.611 69.3691 250.266 68.4527 250.08 67.4982C249.979 66.9646 249.937 66.4218 249.952 65.8791C249.973 65.301 250.055 64.7266 250.197 64.1659C250.352 63.5754 250.565 63.0016 250.833 62.4527L251.303 61.6196C251.459 61.3419 251.67 61.0925 251.854 60.8195C252.675 59.7192 253.764 58.8475 255.017 58.2873C256.364 57.7061 257.833 57.4653 259.295 57.586C260.839 57.6766 262.325 58.2056 263.578 59.1109C265.245 60.3288 266.483 62.0444 267.113 64.0106C267.414 64.9363 267.541 65.9096 267.489 66.8817C267.484 67.1167 267.462 67.351 267.424 67.5829C267.4 67.8147 267.359 68.0444 267.301 68.2701C267.249 68.496 267.198 68.7408 267.136 68.9432L266.896 69.5833C266.549 70.3941 266.046 71.1283 265.414 71.7436C264.822 72.3153 264.155 72.8045 263.432 73.198C262.145 73.8884 260.749 74.3547 259.305 74.5771L259.356 74.5347L258.759 76.8315V76.8786H258.707L254.687 75.7302L253.633 75.4243L253.365 75.3442L253.266 75.3066Z" fill="#FDA92B"/>
<path d="M258.363 78.3377C257.408 78.1639 256.465 77.9313 255.539 77.6411C254.598 77.4108 253.672 77.1232 252.767 76.7798C254.659 77.1886 256.527 77.7088 258.358 78.3377H258.363Z" fill="#FDA92B"/>
<path d="M255.963 79.9473C255.615 79.969 255.266 79.9144 254.941 79.7873C254.596 79.7046 254.274 79.5436 254 79.3167C254.337 79.3747 254.667 79.4694 254.984 79.599C255.322 79.6775 255.651 79.7943 255.963 79.9473Z" fill="#FDA92B"/>
<path d="M254.404 75.6032C254.4 75.572 254.4 75.5403 254.404 75.5091C254.404 75.4385 254.451 75.349 254.479 75.2408C254.555 74.9913 254.658 74.643 254.785 74.2053L255.943 70.407C256.188 69.6022 256.461 68.7268 256.748 67.7854C256.828 67.5574 256.861 67.3158 256.847 67.0747C256.848 66.9612 256.808 66.8511 256.735 66.7646C256.661 66.6781 256.559 66.6211 256.447 66.6041C256.327 66.61 256.212 66.647 256.111 66.7114C256.01 66.7758 255.928 66.8653 255.873 66.9712C255.75 67.195 255.711 67.4556 255.764 67.7054C255.83 67.9748 255.961 68.2241 256.145 68.4319C256.328 68.6397 256.56 68.7998 256.819 68.8984C257.078 68.997 257.358 69.0312 257.633 68.998C257.908 68.9648 258.172 68.8653 258.4 68.7079C258.899 68.3805 259.268 67.8896 259.445 67.3195C259.549 67.0395 259.57 66.7357 259.506 66.444C259.472 66.31 259.394 66.1912 259.285 66.106C259.176 66.0209 259.042 65.9742 258.904 65.9734C258.766 65.9992 258.641 66.0701 258.548 66.1749C258.455 66.2798 258.4 66.4125 258.391 66.5523C258.372 66.8512 258.432 67.1499 258.565 67.4183C258.778 67.9794 259.145 68.4689 259.624 68.8303C259.854 69.0006 260.122 69.1121 260.405 69.1551C260.684 69.1894 260.967 69.1538 261.229 69.0515C261.482 68.9623 261.702 68.7981 261.859 68.5809C261.936 68.4754 261.989 68.3553 262.017 68.2282C262.044 68.101 262.045 67.9695 262.02 67.8419C262.001 67.7178 261.946 67.6018 261.863 67.5081C261.779 67.4145 261.67 67.3473 261.549 67.3148C261.43 67.2919 261.308 67.2965 261.191 67.3283C261.074 67.3601 260.966 67.4183 260.876 67.4983C260.543 67.8684 260.296 68.307 260.151 68.7832C259.784 69.6963 259.473 70.5577 259.186 71.3437C258.631 72.9157 258.184 74.1677 257.868 75.0855C257.713 75.5185 257.595 75.8621 257.506 76.1068C257.468 76.2151 257.435 76.2998 257.412 76.3704C257.388 76.441 257.374 76.4598 257.369 76.4551C257.375 76.4232 257.383 76.3918 257.393 76.361C257.393 76.2951 257.44 76.2057 257.473 76.0927L257.802 75.0666C258.094 74.1771 258.518 72.8875 259.068 71.3013C259.351 70.5106 259.657 69.6446 260.01 68.7221C260.109 68.4961 260.198 68.2514 260.306 68.0302C260.414 67.7807 260.575 67.5575 260.777 67.3759C260.886 67.279 261.015 67.2085 261.156 67.1701C261.296 67.1318 261.444 67.1265 261.587 67.1547C261.732 67.1997 261.863 67.2842 261.963 67.3989C262.064 67.5135 262.131 67.6539 262.156 67.8043C262.184 67.9536 262.182 68.107 262.151 68.2556C262.119 68.4042 262.059 68.5451 261.972 68.6703C261.797 68.9186 261.551 69.1087 261.266 69.2163C260.978 69.3281 260.666 69.3669 260.358 69.3292C260.049 69.2832 259.755 69.1638 259.501 68.9809C258.996 68.5997 258.608 68.0844 258.381 67.4936C258.24 67.2007 258.175 66.8769 258.193 66.5523C258.192 66.3673 258.26 66.1886 258.385 66.0519C258.51 65.9153 258.681 65.8308 258.866 65.8153C259.05 65.7999 259.234 65.8546 259.379 65.9685C259.525 66.0825 259.623 66.2473 259.652 66.4299C259.727 66.7553 259.705 67.0953 259.591 67.4089C259.399 68.0185 259.001 68.5425 258.466 68.8915C258.209 69.0664 257.914 69.1751 257.605 69.2079C257.296 69.2408 256.984 69.1968 256.696 69.0798C256.42 68.9678 256.175 68.7908 255.981 68.5638C255.788 68.3369 255.652 68.0666 255.586 67.776C255.522 67.4871 255.569 67.1847 255.717 66.9288C255.786 66.7979 255.889 66.6878 256.015 66.61C256.14 66.5322 256.285 66.4895 256.433 66.4864C256.585 66.5015 256.725 66.5759 256.823 66.6935C256.909 66.8087 256.959 66.9459 256.969 67.0888C256.984 67.3507 256.947 67.613 256.861 67.8607C256.564 68.8021 256.291 69.6728 256.037 70.4729C255.529 72.0591 255.096 73.3487 254.828 74.2383C254.687 74.676 254.574 75.0149 254.489 75.2643L254.399 75.5279C254.404 75.5528 254.405 75.578 254.404 75.6032Z" fill="#FDA92B"/>
<path d="M257.577 79.2555C256.801 79.1311 256.034 78.9486 255.285 78.7095C254.521 78.5248 253.77 78.2857 253.04 77.9941C254.582 78.3011 256.098 78.7227 257.577 79.2555Z" fill="#FDA92B"/>
<path d="M173.309 78.9542H143.657C143.112 78.9542 142.59 79.1704 142.206 79.5552C141.821 79.9401 141.604 80.462 141.604 81.0063V99.0799C141.604 99.6241 141.821 100.146 142.206 100.531C142.59 100.916 143.112 101.132 143.657 101.132H160.968L168.917 107.886V101.132H173.332C173.876 101.132 174.398 100.916 174.783 100.531C175.168 100.146 175.384 99.6241 175.384 99.0799V81.0063C175.384 80.735 175.329 80.4665 175.225 80.2163C175.12 79.966 174.966 79.739 174.774 79.5483C174.581 79.3575 174.352 79.2068 174.1 79.1049C173.849 79.0029 173.58 78.9517 173.309 78.9542Z" fill="#1D482D"/>
<path d="M173.308 78.9542C173.486 78.9447 173.664 78.9638 173.835 79.0107C174.349 79.1387 174.793 79.461 175.073 79.9096C175.281 80.2362 175.394 80.6145 175.398 81.0016C175.398 81.4158 175.398 81.8723 175.398 82.3665C175.398 83.3502 175.398 84.4798 175.398 85.7459C175.398 88.2781 175.398 91.3516 175.421 94.8769C175.421 95.757 175.421 96.6654 175.421 97.602C175.421 98.0727 175.421 98.5433 175.421 99.014C175.435 99.5253 175.269 100.025 174.951 100.426C174.62 100.836 174.149 101.109 173.628 101.193C173.37 101.221 173.111 101.231 172.852 101.221H168.893L169.002 101.118C169.002 103.259 169.002 105.528 169.002 107.872V108.117L168.818 107.957L160.859 101.207L160.939 101.236H143.736C143.209 101.256 142.691 101.085 142.28 100.753C141.869 100.422 141.592 99.9529 141.501 99.4329C141.467 99.1834 141.456 98.9313 141.468 98.6798V95.0745C141.468 91.248 141.468 87.5439 141.468 84.0374V81.4252C141.468 81.2134 141.468 81.0016 141.468 80.7757C141.504 80.4437 141.616 80.1246 141.797 79.8436C141.978 79.5626 142.221 79.3274 142.508 79.1566C142.883 78.9344 143.315 78.828 143.75 78.8506H147.36H156.063L168.663 78.8883L156.063 78.9307H147.36H143.75C143.355 78.9099 142.962 79.0065 142.621 79.2084C142.277 79.414 142.005 79.7216 141.844 80.0885C141.762 80.2725 141.708 80.4676 141.684 80.6674C141.684 80.8651 141.684 81.0816 141.684 81.2934C141.684 82.15 141.684 83.0208 141.684 83.9009C141.684 87.4168 141.684 91.1115 141.684 94.938V98.5669C141.676 98.8043 141.687 99.042 141.717 99.2776C141.796 99.7389 142.04 100.156 142.404 100.45C142.775 100.745 143.239 100.897 143.713 100.878H160.967L161 100.906L168.969 107.783L168.78 107.867C168.78 105.514 168.78 103.255 168.78 101.113V101.005H172.842C173.092 101.016 173.342 101.008 173.591 100.981C174.069 100.913 174.504 100.668 174.81 100.294C175.464 99.5506 175.2 98.4963 175.257 97.5785C175.313 96.6607 175.257 95.7335 175.257 94.8533C175.257 91.328 175.257 88.264 175.28 85.7224C175.28 84.4563 175.28 83.3267 175.28 82.343C175.28 81.8488 175.28 81.4017 175.28 80.9781C175.279 80.604 175.175 80.2375 174.979 79.9191C174.713 79.4767 174.287 79.1545 173.788 79.0201C173.63 78.9889 173.469 78.9669 173.308 78.9542Z" fill="black"/>
<path d="M169.492 85.9344C169.492 86.0003 164.559 86.0568 158.473 86.0568C152.388 86.0568 147.455 86.0003 147.455 85.9344C147.455 85.8685 152.388 85.812 158.473 85.812C164.559 85.812 169.492 85.8685 169.492 85.9344Z" fill="black"/>
<path d="M169.492 89.4266C169.492 89.4972 164.559 89.5537 158.473 89.5537C152.388 89.5537 147.455 89.4972 147.455 89.4266C147.455 89.356 152.388 89.3042 158.473 89.3042C164.559 89.3042 169.492 89.3701 169.492 89.4266Z" fill="black"/>
<path d="M169.492 92.9424C169.492 93.0083 164.559 93.0648 158.473 93.0648C152.388 93.0648 147.455 93.0083 147.455 92.9424C147.455 92.8765 152.388 92.8201 158.473 92.8201C164.559 92.8201 169.492 92.8765 169.492 92.9424Z" fill="black"/>
<path d="M131.904 29.4731C133.396 35.4365 129.01 41.3339 123.498 44.0638C117.987 46.7937 111.6 46.8878 105.448 46.9819C99.2966 47.0761 92.9002 47.222 87.4311 50.0272C81.6136 53.0112 77.6318 58.5839 74.0312 64.0436C70.4306 69.5034 66.8347 75.2361 61.3655 78.8367C55.8964 82.4373 47.9892 83.2515 43.1602 78.8367V36.3166C43.1602 34.5016 43.8812 32.761 45.1646 31.4776C46.448 30.1942 48.1886 29.4731 50.0037 29.4731H131.904Z" fill="#1D482D"/>
<path d="M144.933 45.5794C144.933 45.4947 150.228 45.4241 156.765 45.4241C163.303 45.4241 168.598 45.4947 168.598 45.5794" fill="black"/>
<path d="M200.075 45.5794C200.075 45.6641 194.776 45.7347 188.243 45.7347C181.71 45.7347 176.41 45.6641 176.41 45.5794C176.41 45.4947 181.705 45.4241 188.243 45.4241C194.78 45.4241 200.075 45.4947 200.075 45.5794Z" fill="black"/>
<path d="M231.567 45.5794C231.567 45.6641 226.268 45.7347 219.735 45.7347C213.202 45.7347 207.902 45.6641 207.902 45.5794C207.902 45.4947 213.197 45.4241 219.735 45.4241C226.272 45.4241 231.567 45.4947 231.567 45.5794Z" fill="black"/>
<path d="M263.31 45.5794C263.31 45.6641 258.015 45.7347 251.482 45.7347C244.949 45.7347 239.645 45.6641 239.645 45.5794C239.645 45.4947 244.944 45.4241 251.482 45.4241C258.019 45.4241 263.31 45.4947 263.31 45.5794Z" fill="black"/>
<path d="M290.9 49.34C290.9 49.34 291.097 49.34 291.464 49.2458C291.992 49.1136 292.467 48.8229 292.825 48.4128C293.082 48.1188 293.267 47.7692 293.366 47.3914C293.461 46.9271 293.489 46.4517 293.451 45.9794C293.385 44.9863 293.686 43.6967 292.787 42.7553C292.353 42.2717 291.75 41.9735 291.102 41.9223C290.42 41.9223 289.69 41.9223 288.928 41.9223H284.113H273.076C272.618 41.9231 272.169 42.05 271.779 42.2891C271.389 42.5283 271.072 42.8703 270.863 43.2778C270.66 43.6792 270.565 44.1273 270.59 44.5768C270.59 45.0475 270.59 45.5182 270.59 45.9888C270.559 46.4333 270.589 46.8798 270.68 47.3161C270.788 47.7256 271.001 48.1001 271.296 48.4033C271.588 48.7009 271.949 48.9224 272.346 49.0482C272.751 49.148 273.168 49.1861 273.584 49.1611L282.597 49.1941L288.673 49.2411L290.325 49.2741H290.758C290.807 49.2683 290.856 49.2683 290.904 49.2741C290.856 49.2817 290.807 49.2817 290.758 49.2741H290.325L288.673 49.3023L282.597 49.3541L273.584 49.387C273.14 49.4146 272.694 49.3749 272.261 49.2694C271.809 49.1316 271.399 48.8815 271.07 48.5424C270.741 48.2033 270.503 47.7862 270.379 47.3302C270.317 47.0981 270.284 46.8595 270.28 46.6195V44.6286C270.256 44.1286 270.361 43.6309 270.586 43.1837C270.822 42.7267 271.179 42.3432 271.618 42.0744C272.057 41.8057 272.561 41.6619 273.076 41.6587H284.113H288.928C289.685 41.6587 290.401 41.6587 291.121 41.6587C291.83 41.7239 292.486 42.0613 292.952 42.6C293.377 43.0787 293.618 43.6923 293.634 44.3321C293.634 44.911 293.634 45.457 293.634 45.97C293.662 46.4439 293.622 46.9192 293.517 47.382C293.406 47.7772 293.203 48.1403 292.924 48.441C292.546 48.8607 292.042 49.1464 291.488 49.2553C291.297 49.3138 291.099 49.3424 290.9 49.34Z" fill="black"/>
<path d="M102.045 158.52H73.3342C71.9449 158.52 70.6124 157.969 69.63 156.986C68.6476 156.004 68.0957 154.671 68.0957 153.282C68.0957 151.893 68.6476 150.56 69.63 149.578C70.6124 148.595 71.9449 148.043 73.3342 148.043H102.045C103.434 148.043 104.767 148.595 105.749 149.578C106.731 150.56 107.283 151.893 107.283 153.282C107.283 154.671 106.731 156.004 105.749 156.986C104.767 157.969 103.434 158.52 102.045 158.52Z" fill="#1D482D"/>
<path d="M122.514 114.998C122.514 115.101 110.253 115.182 95.1353 115.182C80.0175 115.182 67.752 115.101 67.752 114.998C67.752 114.894 79.9893 114.819 95.1353 114.819C110.281 114.819 122.514 114.899 122.514 114.998Z" fill="black"/>
<path d="M122.514 124.934C122.514 125.033 110.253 125.113 95.1353 125.113C80.0175 125.113 67.752 125.033 67.752 124.934C67.752 124.835 79.9893 124.75 95.1353 124.75C110.281 124.75 122.514 124.83 122.514 124.934Z" fill="black"/>
<path d="M100.134 134.865C100.134 134.964 92.8856 135.044 83.9429 135.044C75.0002 135.044 67.752 134.964 67.752 134.865C67.752 134.766 75.0002 134.681 83.9429 134.681C92.8856 134.681 100.134 134.766 100.134 134.865Z" fill="black"/>
<path d="M98.9529 104.017C98.9529 104.088 92.0623 104.14 83.5668 104.14C75.0712 104.14 68.1807 104.088 68.1807 104.017C68.1807 103.947 75.0712 103.895 83.5668 103.895C92.0623 103.895 98.9529 103.956 98.9529 104.017Z" fill="#FDA92B"/>
<path d="M299.923 208.378C300.673 208.369 301.413 208.201 302.092 207.884C302.934 207.496 303.655 206.89 304.182 206.128C304.517 205.64 304.769 205.099 304.926 204.528C305.083 203.866 305.144 203.184 305.105 202.504C305.105 196.701 305.105 188.149 305.105 177.135C305.105 155.103 305.105 123.22 305.067 83.8304C305.067 73.984 305.067 63.678 305.067 52.9123V38.557C305.067 37.8604 305.067 37.145 305.015 36.4813C304.857 35.0962 304.329 33.7793 303.486 32.6689C303.275 32.3909 303.049 32.1253 302.808 31.8735C302.56 31.6272 302.296 31.3976 302.017 31.1863C301.464 30.7579 300.854 30.4079 300.205 30.1462C299.55 29.8847 298.863 29.7106 298.162 29.6284C297.466 29.5625 296.75 29.5719 296.03 29.5766H291.672H217.721L136.022 29.5955H51.0906C50.62 29.5955 50.1493 29.5955 49.6786 29.6425L48.9962 29.7508L48.3278 29.9249C46.5463 30.4857 45.0505 31.7134 44.153 33.3514C43.7064 34.1589 43.4233 35.0466 43.3199 35.9636C43.2305 36.872 43.2776 37.8463 43.2635 38.7546V115.271C43.2635 143.614 43.2635 170.955 43.2635 197.002V201.869C43.2234 202.671 43.2675 203.476 43.3952 204.269C43.5673 205.04 43.9134 205.761 44.4072 206.378C44.905 206.987 45.5362 207.473 46.2519 207.8C46.9675 208.126 47.7487 208.284 48.5349 208.261H72.0683H107.966H172.4L299.909 208.345L172.4 208.435H107.966H48.5349C47.2942 208.469 46.0802 208.071 45.1018 207.307C44.1234 206.543 43.4417 205.462 43.174 204.25C43.1317 204.048 43.1081 203.846 43.0752 203.639C43.0422 203.432 43.0752 203.229 43.0752 203.027V201.869C43.0752 200.25 43.0752 198.631 43.0752 197.002C43.0752 170.955 43.0752 143.614 43.0752 115.271V72.0355C43.0752 64.7151 43.0752 57.3413 43.0752 49.9142V38.7546C43.0752 37.8133 43.0375 36.872 43.1317 35.9306C43.3006 34.5013 43.8793 33.1512 44.7978 32.0431C45.7164 30.9349 46.9357 30.116 48.309 29.6849L48.9491 29.5108C49.1844 29.4684 49.4198 29.4354 49.6598 29.3978C50.1305 29.3601 50.6012 29.346 51.0718 29.3507H217.688H291.639H295.964C296.68 29.3507 297.376 29.3507 298.12 29.4025C298.837 29.4894 299.539 29.6682 300.21 29.9344C300.883 30.2047 301.517 30.5657 302.092 31.0075C302.377 31.2249 302.648 31.4607 302.902 31.7135C303.15 31.9705 303.383 32.2425 303.599 32.5277C304.461 33.6657 305.001 35.0153 305.161 36.4343C305.214 37.1327 305.231 37.8333 305.213 38.5334V52.8888C305.213 63.6388 305.213 73.9448 305.213 83.8069C305.213 123.197 305.185 155.08 305.175 177.112C305.175 188.125 305.175 196.677 305.175 202.481C305.212 203.164 305.147 203.85 304.982 204.514C304.784 205.252 304.425 205.936 303.931 206.519C303.437 207.102 302.821 207.568 302.125 207.884C301.612 208.115 301.066 208.266 300.506 208.331C300.111 208.378 299.923 208.378 299.923 208.378Z" fill="black"/>
<path d="M149.165 115.834L140.876 139.437L172.277 150.464L180.566 126.861L149.165 115.834Z" fill="#FDA92B"/>
<g opacity="0.2">
<path d="M140.87 139.43L156.99 128.61L160.558 140.174L166.889 136.889L172.273 150.458L140.87 139.43Z" fill="black"/>
</g>
<g opacity="0.2">
<path d="M167.298 130.215C167.127 130.704 166.814 131.131 166.399 131.443C165.984 131.754 165.487 131.936 164.969 131.964C164.451 131.993 163.937 131.867 163.49 131.603C163.044 131.339 162.686 130.949 162.462 130.481C162.237 130.014 162.156 129.491 162.229 128.977C162.302 128.464 162.526 127.984 162.872 127.597C163.218 127.211 163.671 126.936 164.173 126.807C164.675 126.678 165.204 126.701 165.693 126.873C166.349 127.103 166.887 127.585 167.188 128.211C167.489 128.838 167.529 129.559 167.298 130.215Z" fill="black"/>
</g>
<path d="M258.471 77.034L258.504 76.921L253.327 75.429H253.289H253.261L253.2 75.3772C253.187 75.37 253.177 75.3583 253.172 75.3443C253.167 75.3273 253.167 75.3094 253.172 75.2925V75.2172C253.173 75.1937 253.173 75.1701 253.172 75.1466L253.704 73.4569C252.616 72.574 251.7 71.4987 251.002 70.2846C250.507 69.4324 250.159 68.5033 249.971 67.5359C249.87 66.9929 249.826 66.4408 249.839 65.8886C249.862 65.3028 249.944 64.7209 250.084 64.1518C250.245 63.5541 250.46 62.9726 250.729 62.415L251.2 61.5773C251.306 61.3933 251.426 61.2172 251.557 61.0501L251.755 60.7677C252.589 59.6493 253.696 58.763 254.97 58.1932C256.333 57.6012 257.823 57.3585 259.304 57.4872C260.869 57.5784 262.376 58.1121 263.649 59.0262C265.33 60.2591 266.579 61.9922 267.216 63.9777C267.522 64.9154 267.651 65.9016 267.598 66.8864C267.596 67.0724 267.58 67.2581 267.551 67.4418L267.522 67.6677C267.499 67.8822 267.46 68.0946 267.405 68.3031L267.353 68.529C267.315 68.6796 267.282 68.8255 267.24 68.9714L266.995 69.6257C266.642 70.4527 266.129 71.2015 265.484 71.8284C264.887 72.4091 264.212 72.9048 263.479 73.3016C262.216 73.9812 260.848 74.4456 259.432 74.6759L258.904 76.6998L259.013 76.728L258.876 76.808L258.815 77.0292L258.603 76.9634L258.471 77.034ZM253.426 75.2031L254.748 75.5514L258.584 76.5962L259.055 74.7136L258.923 74.7371L259.088 74.5912L259.149 74.3417H259.267H259.417L259.563 74.2147L259.535 74.3182C260.852 74.0765 262.122 73.6303 263.3 72.9956C264.001 72.6128 264.647 72.1379 265.221 71.5836C265.825 70.9906 266.305 70.2834 266.633 69.5033C267.316 67.7895 267.386 65.8923 266.83 64.133C266.216 62.2331 265.018 60.5749 263.409 59.3934C262.2 58.5159 260.763 58.006 259.272 57.9249C257.856 57.8012 256.433 58.0325 255.13 58.5979C253.92 59.1367 252.867 59.974 252.07 61.0313C252.009 61.1254 251.939 61.2196 251.873 61.309C251.751 61.4678 251.639 61.6345 251.538 61.8079L251.068 62.6221C250.807 63.1534 250.598 63.7081 250.442 64.2789C250.306 64.8217 250.224 65.3767 250.197 65.9356C250.185 66.4609 250.226 66.986 250.319 67.503C250.494 68.4331 250.823 69.3273 251.294 70.1481C251.943 71.2967 252.789 72.3226 253.793 73.1792L253.84 73.038L253.915 73.2827L253.962 73.3204L254.028 73.3769L253.995 73.5322L254.08 73.7958L253.939 73.6875L253.402 75.2454L253.426 75.2031Z" fill="#FDA92B"/>
<path d="M258.363 78.4507C257.395 78.2946 256.441 78.0617 255.511 77.7541C252.602 76.9446 252.621 76.8787 252.658 76.7469C252.696 76.6151 252.696 76.6057 253.637 76.8363C254.169 76.9681 254.875 77.1517 255.623 77.3635C258.532 78.173 258.513 78.2389 258.476 78.3707V78.4131L258.433 78.4413C258.412 78.4527 258.387 78.456 258.363 78.4507Z" fill="#FDA92B"/>
<path d="M255.859 80.0793C255.539 80.0586 255.223 79.9985 254.917 79.9004C254.548 79.8083 254.204 79.6346 253.91 79.3921V79.3404L253.934 79.2839C253.99 79.1615 254.084 79.1897 254.607 79.3639L255.077 79.5051L255.548 79.6416C256.071 79.8016 256.169 79.8298 256.146 79.9616V80.0181L256.094 80.0511C256.059 80.0723 256.02 80.0857 255.979 80.0906C255.939 80.0955 255.898 80.0916 255.859 80.0793Z" fill="#FDA92B"/>
<path d="M257.422 76.5633H257.379C257.266 76.5257 257.294 76.4221 257.323 76.328L257.732 75.0242C258.01 74.1723 258.443 72.8592 259.003 71.2589C259.238 70.5858 259.474 69.9222 259.737 69.235C259.647 69.1878 259.559 69.136 259.474 69.0797C259.3 68.9525 259.142 68.8056 259.003 68.642C258.874 68.7652 258.734 68.8755 258.584 68.9715C258.31 69.1561 257.995 69.2704 257.667 69.3041C257.339 69.3377 257.007 69.2898 256.701 69.1644L256.631 69.1362L254.565 75.5608C254.532 75.6549 254.494 75.7632 254.376 75.7255C254.259 75.6879 254.296 75.5843 254.32 75.4902L254.701 74.1817L256.301 68.9432C255.9 68.6695 255.62 68.2513 255.52 67.776C255.45 67.4544 255.504 67.1183 255.671 66.8346C255.751 66.6859 255.87 66.5615 256.015 66.4746C256.16 66.3876 256.325 66.3413 256.494 66.3404C256.585 66.3486 256.674 66.3749 256.755 66.4177C256.836 66.4605 256.907 66.5191 256.965 66.5899C257.07 66.7254 257.13 66.8896 257.139 67.0606C257.155 67.3367 257.116 67.6133 257.026 67.8748L256.753 68.7455L256.857 68.7973C257.102 68.8957 257.368 68.9318 257.631 68.9022C257.894 68.8726 258.145 68.7784 258.363 68.6279C258.503 68.5409 258.632 68.4383 258.749 68.3219C258.581 68.0754 258.439 67.812 258.325 67.5359C258.173 67.2195 258.105 66.8695 258.128 66.5193C258.137 66.314 258.221 66.1191 258.363 65.9704C258.505 65.8218 258.695 65.7296 258.9 65.7106C259.105 65.6917 259.309 65.7474 259.476 65.8675C259.643 65.9876 259.761 66.1639 259.808 66.364C259.884 66.71 259.861 67.0705 259.742 67.4041C259.641 67.7344 259.482 68.0438 259.271 68.3172C259.402 68.4706 259.551 68.6081 259.714 68.7267C259.77 68.7644 259.827 68.802 259.888 68.835C259.911 68.7785 259.93 68.722 259.954 68.6608L260.029 68.482C260.1 68.3078 260.17 68.1337 260.25 67.9595C260.366 67.6947 260.536 67.4574 260.749 67.2629C260.872 67.1547 261.019 67.0767 261.177 67.035C261.336 66.9933 261.502 66.9892 261.662 67.0229C261.83 67.0738 261.98 67.1704 262.095 67.3017C262.211 67.4331 262.287 67.594 262.316 67.7666C262.348 67.9287 262.346 68.0955 262.312 68.2571C262.278 68.4188 262.213 68.572 262.119 68.7079C261.931 68.9772 261.665 69.1825 261.356 69.2962C261.058 69.4155 260.734 69.4576 260.415 69.4186C260.312 69.4029 260.21 69.3809 260.109 69.3527C259.831 70.0775 259.577 70.7647 259.37 71.353L257.591 76.3751C257.535 76.4739 257.502 76.5633 257.422 76.5633ZM260.246 68.9903C260.313 69.0122 260.382 69.0279 260.453 69.0374C260.711 69.0707 260.973 69.0384 261.215 68.9432C261.45 68.8599 261.652 68.7051 261.794 68.5008C261.86 68.4085 261.907 68.3039 261.932 68.1931C261.957 68.0824 261.96 67.9678 261.94 67.856C261.927 67.7556 261.887 67.6607 261.823 67.5825C261.758 67.5042 261.674 67.4456 261.578 67.4136C261.477 67.3965 261.373 67.402 261.275 67.4296C261.176 67.4573 261.085 67.5065 261.008 67.5736C260.748 67.8388 260.553 68.1611 260.439 68.5149C260.396 68.6138 260.359 68.7126 260.316 68.8067L260.246 68.9903ZM256.447 66.7264C256.355 66.741 256.267 66.7771 256.191 66.8319C256.115 66.8866 256.053 66.9585 256.01 67.0417C255.9 67.2413 255.867 67.4737 255.915 67.696C255.987 68.0237 256.17 68.3164 256.433 68.5243L256.668 67.7524C256.743 67.5394 256.775 67.314 256.763 67.0888C256.766 67.0038 256.738 66.9205 256.684 66.8547C256.631 66.7888 256.555 66.7448 256.471 66.7311L256.447 66.7264ZM258.975 66.0863H258.947C258.837 66.1104 258.739 66.1694 258.666 66.2542C258.593 66.3391 258.549 66.4453 258.542 66.5569C258.526 66.8365 258.582 67.1154 258.706 67.3665C258.796 67.579 258.903 67.7836 259.027 67.9784C259.164 67.7712 259.269 67.5442 259.337 67.3053C259.435 67.0487 259.457 66.769 259.398 66.5005C259.377 66.3947 259.324 66.2981 259.245 66.2239C259.167 66.1497 259.067 66.1017 258.961 66.0863H258.975Z" fill="#FDA92B"/>
<path d="M257.568 79.3732C256.782 79.2561 256.007 79.0719 255.252 78.8226C252.871 78.1589 252.899 78.0836 252.927 77.9612V77.9142L252.969 77.8859C253.007 77.8859 253.115 77.8059 255.351 78.4272C257.587 79.0485 257.643 79.1614 257.662 79.1944L257.69 79.2367L257.662 79.3356L257.62 79.3638C257.603 79.3702 257.585 79.3734 257.568 79.3732Z" fill="#FDA92B"/>
<path d="M68.1805 58.7345C71.4402 58.7345 74.0826 56.092 74.0826 52.8323C74.0826 49.5727 71.4402 46.9302 68.1805 46.9302C64.9208 46.9302 62.2783 49.5727 62.2783 52.8323C62.2783 56.092 64.9208 58.7345 68.1805 58.7345Z" fill="#FDA92B"/>
<path d="M251.308 190.399L202.236 195.769C201.297 195.872 200.346 195.788 199.439 195.524C198.532 195.259 197.686 194.818 196.949 194.226C196.212 193.634 195.599 192.903 195.144 192.075C194.69 191.246 194.404 190.336 194.301 189.396L182.205 78.8696C181.968 76.707 182.601 74.5391 183.963 72.8427C185.325 71.1462 187.305 70.0602 189.467 69.8234L237.631 64.552C239.545 64.3486 241.461 64.912 242.961 66.1188C244.461 67.3256 245.421 69.0774 245.632 70.9907L257.832 182.275C258.043 184.217 257.474 186.164 256.251 187.687C255.028 189.21 253.25 190.186 251.308 190.399Z" fill="black"/>
<path d="M256.762 182.007L244.685 71.5601C244.281 67.8623 240.956 65.1925 237.258 65.5968L189.104 70.862C185.406 71.2664 182.736 74.5917 183.141 78.2894L195.217 188.737C195.621 192.435 198.947 195.104 202.644 194.7L250.798 189.435C254.496 189.03 257.166 185.705 256.762 182.007Z" fill="black"/>
<path d="M209.066 72.704C208.882 72.7176 208.701 72.6594 208.559 72.5417C208.417 72.424 208.327 72.256 208.307 72.0729C208.287 71.8899 208.339 71.7062 208.451 71.5606C208.564 71.4149 208.728 71.3186 208.911 71.292L217.999 70.2942C218.183 70.2806 218.365 70.3387 218.506 70.4564C218.648 70.5742 218.738 70.7422 218.758 70.9252C218.778 71.1083 218.727 71.2919 218.614 71.4376C218.502 71.5833 218.337 71.6796 218.155 71.7062L209.066 72.704Z" fill="black"/>
<path d="M204.194 73.2357C204.054 73.2507 203.913 73.224 203.788 73.1588C203.664 73.0936 203.561 72.9929 203.494 72.8695C203.427 72.746 203.397 72.6054 203.41 72.4653C203.423 72.3253 203.477 72.1921 203.565 72.0827C203.653 71.9732 203.772 71.8925 203.906 71.8506C204.041 71.8087 204.184 71.8076 204.319 71.8474C204.454 71.8872 204.574 71.9661 204.664 72.0742C204.754 72.1822 204.81 72.3145 204.825 72.4544C204.843 72.6413 204.787 72.8281 204.669 72.9743C204.551 73.1205 204.381 73.2144 204.194 73.2357Z" fill="black"/>
<path d="M206.797 72.9533C206.702 72.9671 206.606 72.9618 206.514 72.9376C206.421 72.9133 206.335 72.8708 206.259 72.8124C206.184 72.754 206.121 72.681 206.074 72.5978C206.028 72.5145 205.998 72.4227 205.988 72.3278C205.977 72.2329 205.986 72.1369 206.013 72.0455C206.041 71.9541 206.087 71.8691 206.148 71.7957C206.209 71.7223 206.284 71.662 206.369 71.6183C206.454 71.5746 206.546 71.5484 206.642 71.5413C206.734 71.5309 206.828 71.5388 206.917 71.5646C207.006 71.5905 207.09 71.6337 207.162 71.6919C207.235 71.7501 207.295 71.822 207.34 71.9036C207.385 71.9852 207.413 72.0748 207.423 72.1673C207.443 72.3543 207.388 72.5416 207.271 72.6887C207.154 72.8358 206.984 72.9309 206.797 72.9533Z" fill="black"/>
<path d="M223.069 71.1742C222.929 71.1891 222.788 71.1624 222.664 71.0973C222.539 71.0323 222.437 70.9318 222.369 70.8086C222.302 70.6854 222.273 70.5451 222.285 70.4052C222.297 70.2653 222.351 70.1323 222.439 70.0228C222.526 69.9133 222.645 69.8322 222.779 69.7899C222.913 69.7476 223.056 69.7458 223.191 69.7849C223.326 69.824 223.446 69.9022 223.536 70.0096C223.627 70.1169 223.684 70.2487 223.699 70.3882C223.719 70.5759 223.664 70.7639 223.546 70.9111C223.428 71.0583 223.256 71.1529 223.069 71.1742Z" fill="black"/>
<path d="M220.465 71.4567C220.325 71.4716 220.184 71.4449 220.06 71.3798C219.936 71.3147 219.833 71.2143 219.766 71.0911C219.699 70.9679 219.669 70.8275 219.681 70.6877C219.694 70.5478 219.747 70.4147 219.835 70.3052C219.923 70.1957 220.041 70.1147 220.175 70.0724C220.309 70.03 220.452 70.0283 220.587 70.0674C220.722 70.1065 220.842 70.1847 220.933 70.292C221.023 70.3994 221.08 70.5312 221.096 70.6707C221.106 70.7637 221.098 70.858 221.072 70.9479C221.046 71.0378 221.002 71.1218 220.944 71.1948C220.885 71.2678 220.813 71.3286 220.73 71.3735C220.648 71.4185 220.558 71.4467 220.465 71.4567Z" fill="black"/>
<path d="M235.804 66.623L227.248 67.5643C226.845 67.6097 226.467 67.784 226.171 68.0613C225.875 68.3386 225.677 68.7041 225.605 69.1034L225.167 71.5932C225.089 72.0412 224.867 72.4516 224.535 72.7624C224.203 73.0731 223.779 73.2674 223.327 73.3158L204.373 75.3915C203.921 75.4405 203.466 75.3417 203.075 75.1101C202.684 74.8785 202.378 74.5264 202.204 74.1066L201.262 71.7532C201.106 71.3782 200.833 71.0638 200.484 70.8568C200.134 70.6498 199.727 70.5614 199.323 70.6048L190.766 71.5461C188.96 71.745 187.306 72.6528 186.169 74.0701C185.031 75.4874 184.503 77.2984 184.7 79.105L196.466 186.798C196.563 187.693 196.836 188.56 197.269 189.35C197.702 190.139 198.286 190.835 198.988 191.399C199.69 191.962 200.496 192.382 201.36 192.634C202.225 192.885 203.13 192.964 204.025 192.865L249.077 187.937C249.972 187.839 250.839 187.566 251.628 187.133C252.417 186.701 253.113 186.116 253.676 185.415C254.24 184.713 254.659 183.907 254.911 183.042C255.163 182.178 255.242 181.273 255.144 180.378L243.378 72.6851C243.279 71.7898 243.004 70.9226 242.57 70.1333C242.136 69.344 241.55 68.648 240.847 68.0851C240.144 67.5221 239.336 67.1032 238.471 66.8523C237.606 66.6015 236.7 66.5235 235.804 66.623Z" fill="#234E33"/>
<path d="M240.888 68.1197C240.183 67.5446 239.37 67.116 238.497 66.859C237.624 66.602 236.709 66.5218 235.804 66.623L227.248 67.5644C226.845 67.6097 226.467 67.784 226.171 68.0614C225.875 68.3387 225.677 68.7042 225.605 69.1034L225.167 71.5933C225.089 72.0413 224.867 72.4516 224.535 72.7624C224.203 73.0732 223.779 73.2675 223.327 73.3159L204.373 75.3915C203.921 75.4405 203.466 75.3418 203.075 75.1102C202.684 74.8785 202.378 74.5265 202.204 74.1066L201.262 71.7533C201.106 71.3783 200.833 71.0638 200.484 70.8569C200.134 70.6499 199.727 70.5615 199.323 70.6049L190.766 71.5462C188.96 71.7451 187.306 72.6529 186.169 74.0702C185.031 75.4875 184.503 77.2984 184.7 79.1051L193.148 156.294H193.327C199.111 156.294 204.284 152.082 206.896 146.919C209.508 141.756 209.979 135.778 209.904 129.975C209.828 124.171 209.264 118.373 209.998 112.631C211.284 102.891 216.199 93.9955 223.76 87.723C227.464 84.7202 231.729 82.3668 235.216 79.0722C238.29 76.1917 240.77 72.2616 240.888 68.1197Z" fill="#2D583D"/>
<path d="M255.158 180.383L251.75 149.225C247.482 150.131 243.474 151.99 240.026 154.664C236.578 157.337 233.779 160.755 231.838 164.663C229.897 168.571 228.865 172.867 228.818 177.229C228.771 181.592 229.711 185.909 231.568 189.858L249.072 187.942C249.969 187.846 250.837 187.575 251.629 187.143C252.42 186.711 253.118 186.127 253.684 185.425C254.249 184.723 254.67 183.916 254.923 183.051C255.176 182.186 255.256 181.279 255.158 180.383Z" fill="#2D583D"/>
<path d="M247.854 91.1117C247.909 91.1044 247.965 91.1084 248.019 91.1233C248.073 91.1382 248.123 91.1637 248.167 91.1983C248.211 91.233 248.248 91.2761 248.275 91.325C248.301 91.374 248.318 91.4279 248.324 91.4835L249.816 105.133C249.823 105.188 249.819 105.245 249.805 105.298C249.79 105.352 249.764 105.403 249.73 105.447C249.695 105.49 249.652 105.527 249.603 105.554C249.554 105.581 249.5 105.598 249.444 105.603L247.854 91.1117Z" fill="black"/>
<path d="M185.283 106.978C185.17 106.991 185.067 107.047 184.995 107.135C184.923 107.223 184.888 107.335 184.897 107.448L185.805 115.742C185.817 115.855 185.873 115.959 185.961 116.031C186.05 116.103 186.163 116.138 186.276 116.128L185.283 106.978Z" fill="black"/>
<path d="M183.974 95.0134C183.862 95.0265 183.758 95.0829 183.686 95.1707C183.614 95.2585 183.579 95.3709 183.588 95.4841L184.501 103.787C184.513 103.9 184.569 104.004 184.658 104.076C184.746 104.149 184.859 104.183 184.972 104.173L183.974 95.0134Z" fill="black"/>
<path d="M182.991 86.0378C182.943 86.0425 182.895 86.0569 182.852 86.0801C182.809 86.1034 182.771 86.135 182.74 86.1731C182.71 86.2113 182.687 86.2552 182.673 86.3023C182.66 86.3494 182.656 86.3987 182.662 86.4473L183.043 89.9632C183.055 90.0616 183.105 90.1513 183.183 90.213C183.26 90.2746 183.359 90.3033 183.457 90.2927L182.991 86.0378Z" fill="black"/>
<path d="M229.265 71.4922L228.83 71.5398L228.897 72.1527L229.332 72.1051L229.265 71.4922Z" fill="#2D583D"/>
<path d="M229.947 71.133L229.512 71.1807L229.609 72.0649L230.044 72.0173L229.947 71.133Z" fill="#2D583D"/>
<path d="M230.633 70.8692L230.198 70.9167L230.317 72.0069L230.753 71.9593L230.633 70.8692Z" fill="#2D583D"/>
<path d="M231.297 70.3926L230.862 70.4402L231.024 71.9234L231.46 71.8758L231.297 70.3926Z" fill="#2D583D"/>
<path d="M237.913 71.1885L235.724 71.4285C235.682 71.4325 235.641 71.4199 235.608 71.3935C235.575 71.3671 235.555 71.329 235.55 71.2873L235.427 70.2001C235.424 70.1583 235.436 70.1167 235.462 70.0841C235.489 70.0516 235.527 70.0307 235.569 70.0259L237.762 69.7859C237.766 69.7838 237.771 69.7827 237.776 69.7827C237.781 69.7827 237.786 69.7838 237.79 69.7859C237.793 69.795 237.793 69.805 237.79 69.8141L237.833 70.1718H238.063C238.069 70.1712 238.074 70.1716 238.08 70.1732C238.085 70.1747 238.09 70.1773 238.095 70.1808C238.099 70.1843 238.103 70.1887 238.105 70.1936C238.108 70.1985 238.11 70.2039 238.11 70.2095L238.167 70.7319C238.167 70.7375 238.167 70.7431 238.165 70.7485C238.164 70.7539 238.161 70.759 238.158 70.7633C238.154 70.7677 238.15 70.7714 238.145 70.774C238.14 70.7767 238.135 70.7784 238.129 70.779H237.898L237.936 71.1367C237.938 71.1467 237.937 71.1572 237.933 71.1665C237.929 71.1759 237.922 71.1836 237.913 71.1885ZM237.729 69.8706L235.578 70.1059C235.568 70.1071 235.559 70.1102 235.55 70.1151C235.541 70.12 235.534 70.1266 235.527 70.1345C235.521 70.1424 235.517 70.1514 235.514 70.1611C235.512 70.1707 235.511 70.1808 235.512 70.1907L235.63 71.2779C235.632 71.2983 235.642 71.317 235.658 71.3301C235.674 71.3433 235.694 71.3499 235.715 71.3485L237.866 71.1132L237.828 70.7508C237.826 70.7457 237.826 70.7404 237.827 70.7353C237.828 70.7301 237.83 70.7252 237.833 70.7211C237.837 70.7169 237.841 70.7136 237.846 70.7114C237.85 70.7092 237.856 70.7082 237.861 70.7084L238.096 70.6802L238.049 70.2377L237.814 70.2613C237.808 70.2627 237.803 70.2629 237.798 70.2619C237.792 70.261 237.787 70.2588 237.783 70.2557C237.778 70.2526 237.774 70.2485 237.772 70.2438C237.769 70.239 237.767 70.2338 237.767 70.2283L237.729 69.8706Z" fill="#2D583D"/>
<path d="M235.8 71.1554L235.701 70.2705L237.57 70.0681L237.617 70.4682L237.626 70.5529L237.669 70.953L235.8 71.1554Z" fill="#2D583D"/>
<path d="M233.55 71.579C233.547 71.5579 233.541 71.5375 233.531 71.5189C233.52 71.5004 233.506 71.4841 233.49 71.4709C233.473 71.4578 233.454 71.4481 233.434 71.4424C233.413 71.4367 233.392 71.4351 233.371 71.4378C233.328 71.4427 233.29 71.4644 233.263 71.4979C233.237 71.5315 233.225 71.5742 233.23 71.6166C233.235 71.659 233.256 71.6978 233.29 71.7242C233.323 71.7507 233.366 71.7628 233.408 71.7578C233.43 71.7555 233.45 71.749 233.468 71.7387C233.487 71.7284 233.503 71.7146 233.516 71.6979C233.53 71.6813 233.539 71.6622 233.545 71.6418C233.551 71.6213 233.552 71.6 233.55 71.579Z" fill="#2D583D"/>
<path d="M232.802 71.273L233.028 71.4519C233.11 71.3517 233.228 71.2875 233.357 71.273C233.42 71.2657 233.484 71.2711 233.544 71.2889C233.605 71.3067 233.661 71.3365 233.71 71.3766L233.894 71.1507C233.814 71.0869 233.723 71.0396 233.624 71.0112C233.526 70.9829 233.424 70.9742 233.322 70.9855C233.221 70.9969 233.123 71.0282 233.033 71.0775C232.944 71.1268 232.865 71.1933 232.802 71.273Z" fill="#2D583D"/>
<path d="M233.272 70.5294C233.109 70.5484 232.952 70.5999 232.81 70.6808C232.668 70.7616 232.543 70.8702 232.443 71L232.669 71.1789C232.747 71.0817 232.843 71.0009 232.952 70.9411C233.061 70.8814 233.181 70.8438 233.305 70.8306C233.428 70.8172 233.552 70.8282 233.671 70.8629C233.789 70.8977 233.9 70.9554 233.997 71.033L234.18 70.8071C234.055 70.7028 233.91 70.6245 233.754 70.5769C233.598 70.5292 233.434 70.513 233.272 70.5294Z" fill="#2D583D"/>
<path d="M232.077 70.6895L232.303 70.8683C232.537 70.5787 232.874 70.3913 233.244 70.3459C233.429 70.3258 233.616 70.3425 233.795 70.395C233.973 70.4475 234.14 70.5348 234.284 70.6518L234.468 70.4259C234.293 70.2851 234.092 70.1802 233.877 70.1173C233.662 70.0543 233.436 70.0345 233.213 70.059C232.99 70.0835 232.774 70.1518 232.577 70.26C232.381 70.3682 232.207 70.5141 232.067 70.6895H232.077Z" fill="#2D583D"/>
<path d="M232.779 132.682C237.085 132.596 240.507 129.035 240.421 124.729C240.335 120.423 236.775 117.001 232.468 117.087C228.162 117.172 224.74 120.733 224.826 125.039C224.912 129.346 228.472 132.767 232.779 132.682Z" fill="#1D402D"/>
<path d="M309.995 78.0177C309.995 78.0177 309.995 77.9424 310.033 77.7965C310.07 77.6506 310.113 77.4293 310.169 77.1564C310.296 76.5869 310.475 75.7444 310.711 74.7089C311.181 72.5721 311.892 69.4986 312.749 65.7003C314.499 58.0802 316.909 47.5655 319.587 35.9165L319.705 35.3894L319.823 35.9165C319.874 36.1236 319.921 36.3543 319.973 36.5802C322.633 48.3939 325.042 59.0828 326.789 66.8346C327.645 70.7035 328.342 73.8335 328.822 76.0126L329.368 78.5072L329.5 79.1614C329.528 79.3073 329.537 79.3826 329.537 79.3826C329.537 79.3826 329.537 79.312 329.476 79.1661C329.415 79.0202 329.387 78.7943 329.316 78.5213C329.179 77.9424 328.982 77.1093 328.732 76.0315C328.229 73.8617 327.509 70.7318 326.619 66.877L319.733 36.632C319.681 36.406 319.634 36.1613 319.587 35.973H319.823C317.121 47.6126 314.683 58.1273 312.918 65.738C312.024 69.5269 311.304 72.5956 310.805 74.7277L310.216 77.1893C310.15 77.4576 310.094 77.66 310.056 77.82C310.019 77.98 309.995 78.0177 309.995 78.0177Z" fill="#263238"/>
<path d="M309.99 86.8615V79.3826H329.937V86.8615C329.932 89.1663 329.013 91.375 327.382 93.003C325.75 94.631 323.539 95.5453 321.234 95.5453H318.693C316.388 95.5453 314.177 94.631 312.546 93.003C310.914 91.375 309.995 89.1663 309.99 86.8615Z" fill="#455A64"/>
<path d="M309.99 79.3826C310.075 79.4802 310.151 79.5858 310.216 79.6979L310.823 80.6392C311.36 81.4676 312.104 82.6349 313.021 84.0657L320.199 95.4323L320.251 95.5123H320.053L327.014 84.0845L329.142 80.6392C329.391 80.2486 329.584 79.938 329.735 79.6979C329.799 79.5877 329.872 79.4823 329.951 79.3826C329.905 79.5027 329.847 79.6178 329.777 79.7262C329.636 79.9615 329.452 80.2815 329.226 80.6675L327.16 84.1551L320.265 95.6206L320.161 95.79L320.053 95.6206L320.006 95.5406L312.89 84.1363L310.757 80.6628L310.188 79.7214C310.112 79.6149 310.045 79.5015 309.99 79.3826Z" fill="#263238"/>
<path d="M321.936 35.8506C321.936 36.2816 321.809 36.7029 321.569 37.0613C321.33 37.4196 320.989 37.6989 320.591 37.8639C320.193 38.0288 319.755 38.072 319.332 37.9879C318.909 37.9038 318.521 37.6963 318.216 37.3915C317.912 37.0867 317.704 36.6984 317.62 36.2757C317.536 35.853 317.579 35.4148 317.744 35.0166C317.909 34.6184 318.188 34.2781 318.547 34.0386C318.905 33.7992 319.326 33.6714 319.757 33.6714C320.335 33.6714 320.89 33.901 321.298 34.3097C321.707 34.7183 321.936 35.2726 321.936 35.8506Z" fill="#263238"/>
<path d="M319.767 8.68848C319.838 8.68848 319.889 14.8589 319.889 22.4743C319.889 30.0897 319.838 36.2413 319.767 36.2413C319.696 36.2413 319.645 30.0709 319.645 22.4555C319.645 14.8401 319.701 8.68848 319.767 8.68848Z" fill="#263238"/>
<path d="M320.896 96.3783C320.896 96.5645 320.841 96.7465 320.738 96.9013C320.634 97.0561 320.487 97.1768 320.315 97.248C320.143 97.3193 319.954 97.3379 319.771 97.3016C319.589 97.2653 319.421 97.1756 319.289 97.044C319.158 96.9123 319.068 96.7446 319.032 96.562C318.995 96.3794 319.014 96.1901 319.085 96.0181C319.157 95.8461 319.277 95.6991 319.432 95.5957C319.587 95.4922 319.769 95.437 319.955 95.437C320.205 95.437 320.444 95.5362 320.621 95.7127C320.797 95.8893 320.896 96.1287 320.896 96.3783Z" fill="#263238"/>
<path d="M319.55 96.7266L319.7 96.6513C319.437 96.8207 319.215 97.0476 319.052 97.315C318.889 97.5824 318.789 97.8833 318.759 98.1951C318.704 98.8178 318.758 99.4453 318.919 100.049C318.961 100.247 319.065 100.487 319.263 100.473C319.46 100.459 319.526 100.252 319.554 100.073C319.618 99.7045 319.628 99.3288 319.583 98.9575C319.56 99.4351 319.714 99.9043 320.016 100.275C320.072 100.346 320.157 100.421 320.246 100.398C320.336 100.374 320.369 100.28 320.392 100.195C320.471 99.8872 320.518 99.5718 320.533 99.2541C320.554 99.5364 320.657 99.8066 320.83 100.031C320.875 100.084 320.93 100.128 320.992 100.159C321.054 100.191 321.121 100.21 321.191 100.215C321.26 100.219 321.33 100.21 321.396 100.187C321.461 100.165 321.522 100.129 321.574 100.082C321.671 99.9181 321.7 99.7219 321.654 99.5364C321.493 98.4184 321.041 97.362 320.345 96.4724" fill="#263238"/>
<path d="M311.248 79.3826C311.248 79.3826 302.305 69.0515 303.279 68.6797C304.254 68.3078 312.222 74.0311 312.222 74.0311C312.222 74.0311 305.378 58.7204 306.748 57.6002C308.118 56.48 315.347 71.1695 315.347 71.1695C315.347 71.1695 314.227 49.7589 315.347 49.5188C316.467 49.2788 320.576 70.9295 320.576 70.9295C320.576 70.9295 326.695 51.1379 328.418 51.1379C330.14 51.1379 326.535 70.1811 326.535 70.1811C326.535 70.1811 333.75 57.9861 334.87 59.6005C335.991 61.2149 329.768 74.4124 329.768 74.4124C329.768 74.4124 338.857 66.8205 339.229 67.8231C339.601 68.8256 329.397 79.3968 329.397 79.3968L311.248 79.3826Z" fill="#FDA92B"/>
<path d="M309.995 63.8271C310.056 63.7988 311.647 67.2065 313.544 71.4378C315.441 75.6691 316.933 79.119 316.871 79.1473C316.81 79.1755 315.219 75.7773 313.323 71.5413C311.426 67.3053 309.934 63.8506 309.995 63.8271Z" fill="#263238"/>
<path d="M317.229 65.7285C317.3 65.7285 317.563 68.7267 317.822 72.4355C318.081 76.1444 318.232 79.1566 318.166 79.1613C318.1 79.1661 317.832 76.1632 317.577 72.4543C317.323 68.7455 317.168 65.7332 317.229 65.7285Z" fill="#263238"/>
<path d="M327.222 56.1411C327.217 56.2248 327.199 56.3072 327.17 56.3859L326.973 57.0636C326.784 57.6896 326.53 58.5321 326.224 59.5582C325.594 61.662 324.742 64.5802 323.871 67.8184C323 71.0565 322.289 74.0123 321.791 76.1539C321.546 77.1987 321.32 78.0365 321.198 78.6908C321.132 78.9684 321.075 79.1944 321.028 79.3779C321.014 79.4595 320.989 79.5387 320.953 79.6133C320.95 79.5307 320.959 79.4482 320.981 79.3685C321.014 79.1802 321.056 78.9496 321.103 78.6719C321.216 78.0648 321.39 77.194 321.621 76.1162C322.092 73.9653 322.77 71.0048 323.636 67.7572C324.502 64.5096 325.377 61.6008 326.055 59.5064C326.389 58.4615 326.671 57.6237 326.878 57.0354C326.973 56.7671 327.053 56.5647 327.119 56.367C327.141 56.2868 327.176 56.2106 327.222 56.1411Z" fill="#263238"/>
<path d="M331.543 67.1783C331.595 67.2159 329.849 69.8234 327.632 73.0004C325.415 76.1774 323.579 78.7237 323.523 78.6861C323.466 78.6484 325.217 76.0409 327.434 72.8592C329.651 69.6775 331.486 67.1359 331.543 67.1783Z" fill="#263238"/>
<path d="M314.269 79.1662C313.984 79.0164 313.721 78.8279 313.487 78.6061C312.89 78.1115 312.32 77.5851 311.779 77.0293C311.24 76.4749 310.73 75.8936 310.249 75.2879C310.035 75.0459 309.853 74.7769 309.708 74.4877C309.769 74.4454 310.696 75.5703 311.958 76.8411C313.219 78.1119 314.316 79.1097 314.269 79.1662Z" fill="#263238"/>
<path d="M319.714 75.0618C319.906 75.7561 320.02 76.4696 320.053 77.1892C320.158 77.9027 320.184 78.6257 320.129 79.3448C319.939 78.649 319.832 77.9335 319.809 77.2127C319.693 76.5019 319.661 75.78 319.714 75.0618Z" fill="#263238"/>
<path d="M329.938 84.0422C329.686 84.1195 329.428 84.173 329.166 84.2023C328.672 84.2917 327.947 84.4046 327.048 84.527C324.707 84.8571 322.351 85.066 319.988 85.153C317.631 85.2416 315.27 85.144 312.928 84.8612C312.029 84.7435 311.304 84.6259 310.805 84.5176C310.546 84.4812 310.291 84.4197 310.043 84.334C310.305 84.3463 310.566 84.3762 310.824 84.4235C311.323 84.4988 312.048 84.5929 312.947 84.687C315.293 84.9192 317.651 84.9931 320.007 84.9083C322.76 84.8141 325.246 84.56 327.067 84.3529L329.194 84.1081C329.441 84.0695 329.689 84.0475 329.938 84.0422Z" fill="white"/>
<path d="M329.938 86.2686C329.686 86.3429 329.427 86.3965 329.166 86.4286C328.672 86.518 327.947 86.631 327.048 86.7533C324.707 87.0834 322.351 87.2923 319.988 87.3793C317.631 87.469 315.27 87.3699 312.928 87.0828C312.029 86.9699 311.304 86.8522 310.805 86.7439C310.547 86.7047 310.291 86.6432 310.043 86.5604C310.305 86.5727 310.566 86.6025 310.824 86.6498C311.323 86.7251 312.048 86.8192 312.947 86.9134C315.293 87.1455 317.651 87.2194 320.007 87.1346C322.76 87.0405 325.246 86.7863 327.067 86.5792L329.194 86.3344C329.44 86.2931 329.689 86.271 329.938 86.2686Z" fill="white"/>
<path d="M58.8569 191.157C59.3276 189.547 60.316 187.989 61.855 187.325C63.3941 186.662 65.3097 187.029 66.9524 187.622C68.595 188.215 70.2 189.034 71.9367 189.123C73.6735 189.213 75.6409 188.403 76.1727 186.742C76.6434 185.174 75.7021 183.508 74.5395 182.369C73.2917 181.17 71.7623 180.304 70.0919 179.85C68.4216 179.397 66.6641 179.371 64.9811 179.775C63.2982 180.179 61.744 181 60.4616 182.163C59.1792 183.325 58.2097 184.791 57.6426 186.426" fill="#FDA92B"/>
<g opacity="0.5">
<path d="M58.8569 191.157C59.3276 189.547 60.316 187.989 61.855 187.325C63.3941 186.662 65.3097 187.029 66.9524 187.622C68.595 188.215 70.2 189.034 71.9367 189.123C73.6735 189.213 75.6409 188.403 76.1727 186.742C76.6434 185.174 75.7021 183.508 74.5395 182.369C73.2917 181.17 71.7623 180.304 70.0919 179.85C68.4216 179.397 66.6641 179.371 64.9811 179.775C63.2982 180.179 61.744 181 60.4616 182.163C59.1792 183.325 58.2097 184.791 57.6426 186.426" fill="black"/>
</g>
<path d="M45.0717 198.151C42.516 195.727 42.6431 191.5 43.9186 188.22C45.1941 184.939 47.9711 182.416 51.0775 180.755C54.1096 179.16 57.4639 178.274 60.8879 178.163C64.3119 178.053 67.7165 178.72 70.8455 180.115C69.3143 180.18 67.8226 180.62 66.5013 181.396C65.18 182.172 64.0696 183.261 63.2677 184.567C61.8557 186.888 61.5545 189.707 60.4014 192.164C59.0981 194.934 56.782 197.099 53.93 198.213C51.0781 199.327 47.9077 199.305 45.0717 198.151Z" fill="#FDA92B"/>
<path d="M43.8425 183.56C41.0185 180.223 40.6372 174.867 41.0561 170.513C41.475 166.159 42.4681 161.778 41.7951 157.462C41.3856 154.901 40.3831 152.458 40.0583 149.888C39.7336 147.319 40.1995 144.415 42.1904 142.758C44.4779 140.875 48.0785 141.299 50.46 143.092C52.8416 144.885 54.2254 147.69 55.2279 150.491C57.44 156.647 58.2543 163.477 56.4328 169.76C54.6113 176.043 50.3612 181.677 44.0872 183.56" fill="#FDA92B"/>
<path d="M42.4877 210.948C42.4755 210.821 42.4755 210.694 42.4877 210.567C42.4877 210.313 42.4877 209.941 42.5112 209.465C42.5489 208.524 42.6383 207.112 42.8548 205.422C43.1046 203.432 43.466 201.456 43.9373 199.506C44.5244 197.11 45.4332 194.805 46.639 192.653C47.8509 190.504 49.3347 188.521 51.0538 186.751C52.454 185.307 54.0051 184.018 55.6805 182.906C56.3865 182.435 57.0925 182.044 57.6573 181.706C58.2221 181.367 58.7869 181.127 59.2152 180.92L60.2318 180.491C60.3499 180.439 60.4709 180.393 60.5942 180.355C60.4864 180.426 60.3712 180.486 60.2506 180.534L59.2575 181.004C58.8339 181.225 58.3162 181.498 57.7185 181.823C57.1207 182.148 56.4665 182.553 55.7699 183.047C52.0826 185.559 49.0228 188.887 46.8272 192.771C44.2244 197.318 43.5326 202.1 42.996 205.451C42.7654 207.14 42.6477 208.519 42.5818 209.475C42.5536 209.946 42.5348 210.299 42.5159 210.572C42.5146 210.698 42.5052 210.823 42.4877 210.948Z" fill="#263238"/>
<path d="M18.1021 170.41C12.873 173.568 12.8918 176.439 13.7626 179.15C14.6333 181.861 17.8479 183.744 20.5072 182.727C22.0133 182.153 23.1006 180.844 24.0325 179.531C24.9644 178.218 25.8399 176.815 27.1436 175.869C28.4474 174.923 30.3394 174.566 31.6479 175.502" fill="#FDA92B"/>
<g opacity="0.5">
<path d="M18.1021 170.41C12.873 173.568 12.8918 176.439 13.7626 179.15C14.6333 181.861 17.8479 183.744 20.5072 182.727C22.0133 182.153 23.1006 180.844 24.0325 179.531C24.9644 178.218 25.8399 176.815 27.1436 175.869C28.4474 174.923 30.3394 174.566 31.6479 175.502" fill="black"/>
</g>
<path d="M14.1904 173.869C15.5554 171.986 18.9347 171.436 21.0669 172.377C23.199 173.318 24.7616 175.201 26.1642 177.055C27.5668 178.91 28.9223 180.891 30.8709 182.19C32.8194 183.489 35.5116 183.96 37.4602 182.661C38.0764 182.202 38.5925 181.622 38.9769 180.957C39.3613 180.292 39.6059 179.555 39.6959 178.792C39.8669 177.267 39.7633 175.724 39.3899 174.236C38.9193 172.043 38.1756 169.751 36.42 168.358C34.462 166.804 31.7463 166.729 29.2518 166.814C26.3854 166.903 23.4767 167.12 20.7798 168.113C18.0828 169.106 15.3483 171.252 14.1904 173.878" fill="#FDA92B"/>
<path d="M38.1242 206.764C38.1185 206.725 38.1185 206.685 38.1242 206.646C38.1242 206.557 38.1242 206.448 38.1242 206.312C38.1242 205.997 38.1242 205.559 38.0818 205.013C38.0488 203.864 38.0018 202.241 37.9453 200.236C37.8888 198.231 37.7994 195.826 37.6535 193.176C37.5076 190.526 37.3052 187.594 36.9051 184.548C36.7335 183.067 36.4423 181.601 36.0344 180.166C35.6191 178.842 35.0835 177.558 34.4341 176.331C33.8509 175.216 33.1739 174.153 32.4103 173.154C31.738 172.29 31 171.479 30.2028 170.73C29.0321 169.641 27.708 168.731 26.2728 168.028C26.0139 167.915 25.8021 167.797 25.5903 167.717L25.082 167.557L24.7666 167.43C24.7293 167.419 24.6943 167.402 24.6631 167.378L24.776 167.407L25.0961 167.51L25.6185 167.689C25.8209 167.764 26.0468 167.873 26.3104 167.986C27.7651 168.653 29.1094 169.539 30.297 170.612C31.1094 171.361 31.8616 172.173 32.5468 173.041C33.3224 174.043 34.0105 175.111 34.6036 176.232C35.2664 177.462 35.8147 178.751 36.2415 180.082C36.6532 181.529 36.946 183.007 37.1169 184.501C37.5217 187.556 37.71 190.488 37.8512 193.152C37.9924 195.816 38.0488 198.216 38.0912 200.236C38.1336 202.255 38.1477 203.883 38.1524 205.008V206.307C38.1524 206.444 38.1524 206.557 38.1524 206.646C38.1501 206.687 38.1405 206.727 38.1242 206.764Z" fill="#263238"/>
<path d="M40.0069 209.127C39.7587 208.394 39.5668 207.643 39.4327 206.882C39.0709 204.798 38.9902 202.675 39.1926 200.57C39.5145 197.454 40.1839 194.383 41.1882 191.415C42.2614 188.05 43.7157 184.45 44.9536 180.59C45.5656 178.71 46.067 176.796 46.455 174.857C46.7986 173.049 47.0468 171.223 47.1987 169.388C47.4351 166.278 47.4901 163.157 47.3634 160.041C47.274 157.377 47.1328 155.221 47.0433 153.734C47.001 153 46.968 152.425 46.9398 152.021C46.9398 151.832 46.9398 151.687 46.9398 151.55C46.9336 151.5 46.9336 151.449 46.9398 151.399C46.9545 151.448 46.9624 151.499 46.9633 151.55C46.9633 151.663 46.9916 151.809 47.0057 151.992C47.0433 152.402 47.0904 152.971 47.1516 153.706C47.2693 155.193 47.434 157.344 47.5469 160.013C47.6986 163.136 47.6593 166.265 47.4293 169.384C47.2867 171.226 47.0432 173.06 46.6998 174.876C46.3129 176.832 45.8067 178.762 45.1842 180.656C43.9369 184.534 42.4732 188.13 41.3906 191.481C40.3839 194.433 39.7021 197.485 39.3574 200.584C39.149 202.676 39.2091 204.786 39.5362 206.863C39.668 207.597 39.7857 208.162 39.8892 208.543C39.9316 208.722 39.9645 208.868 39.9928 208.976C40.004 209.025 40.0087 209.076 40.0069 209.127Z" fill="#263238"/>
<path d="M52.9876 211.489H28.4283L27.8682 206.764H52.9876V211.489Z" fill="#455A64"/>
<path d="M31.0645 210.948L34.1379 225.129H47.4813L50.3524 210.948H31.0645Z" fill="#455A64"/>
<path d="M52.9881 211.489C52.9881 211.555 47.5895 211.588 40.9296 211.574C34.2696 211.56 28.8711 211.485 28.8711 211.419C28.8711 211.353 34.2696 211.329 40.9484 211.329C47.6272 211.329 52.9881 211.423 52.9881 211.489Z" fill="#455A64"/>
<path d="M48.7707 218.488C48.1005 217.985 47.37 217.568 46.5963 217.246C45.7568 216.918 44.8663 216.739 43.9652 216.719C42.8608 216.723 41.7658 216.924 40.7318 217.312C39.6116 217.693 38.5667 218.131 37.55 218.375C36.6465 218.57 35.7152 218.598 34.8014 218.46C34.1905 218.377 33.5975 218.194 33.0458 217.919C32.8966 217.838 32.7535 217.747 32.6175 217.646C32.528 217.575 32.481 217.537 32.4857 217.533C32.4904 217.528 32.6975 217.65 33.0834 217.834C33.6409 218.076 34.2308 218.234 34.8343 218.305C35.7294 218.418 36.6375 218.374 37.5171 218.173C38.5008 217.928 39.5457 217.481 40.6706 217.1C41.724 216.706 42.8406 216.508 43.9652 216.516C44.8899 216.543 45.8013 216.743 46.6527 217.104C47.2258 217.345 47.764 217.662 48.253 218.046C48.3863 218.148 48.5136 218.258 48.6342 218.375C48.7378 218.436 48.7754 218.484 48.7707 218.488Z" fill="#263238"/>
<path d="M48.5874 219.434C47.9421 218.95 47.2442 218.539 46.5071 218.21C45.7026 217.881 44.844 217.704 43.9749 217.688C42.9066 217.691 41.8471 217.883 40.845 218.253C39.7624 218.615 38.7505 219.034 37.7809 219.293C36.9223 219.541 36.0279 219.641 35.1358 219.59C34.5327 219.551 33.9436 219.39 33.4037 219.119C33.2593 219.041 33.1209 218.953 32.9895 218.855C32.9017 218.789 32.8593 218.752 32.8625 218.742C32.8625 218.742 33.0649 218.86 33.4414 219.034C33.9808 219.266 34.5585 219.395 35.1452 219.415C36.016 219.441 36.8852 219.326 37.7197 219.076C38.6611 218.808 39.6777 218.385 40.7697 218.022C41.7975 217.645 42.8847 217.455 43.9796 217.462C44.8825 217.489 45.7713 217.692 46.5965 218.06C47.1471 218.305 47.663 218.621 48.1309 219.001C48.2588 219.101 48.3813 219.208 48.498 219.321C48.5639 219.393 48.5937 219.431 48.5874 219.434Z" fill="white"/>
<path d="M49.0151 217.547C48.325 217.03 47.58 216.591 46.7936 216.238C45.9377 215.871 45.0258 215.651 44.0966 215.589C42.9583 215.568 41.8267 215.768 40.7643 216.177C39.6885 216.601 38.5883 216.961 37.4697 217.255C36.535 217.414 35.5803 217.414 34.6457 217.255C34.0115 217.154 33.396 216.959 32.8195 216.676C32.6651 216.597 32.5172 216.505 32.377 216.403C32.2829 216.332 32.2358 216.29 32.2406 216.285C32.2453 216.281 32.4571 216.412 32.8618 216.596C33.4395 216.841 34.0474 217.007 34.6692 217.09C35.5915 217.224 36.5295 217.207 37.4461 217.038C38.4628 216.817 39.5406 216.342 40.7078 215.951C41.798 215.53 42.9617 215.334 44.1296 215.372C45.0809 215.443 46.0117 215.684 46.8783 216.083C47.4495 216.347 47.9867 216.679 48.4786 217.071C48.6167 217.178 48.7487 217.293 48.8739 217.415C48.9775 217.495 49.0198 217.542 49.0151 217.547Z" fill="white"/>
<path d="M53.1858 211.508C53.1858 211.574 47.6602 211.626 40.8497 211.626C34.0391 211.626 28.5088 211.574 28.5088 211.508C28.5088 211.442 34.0344 211.39 40.8497 211.39C47.6649 211.39 53.1858 211.442 53.1858 211.508Z" fill="#263238"/>
<path d="M164.682 180.439L161.651 190.403C161.651 190.403 150.506 190.667 149.767 192.451L168.876 199.04L174.232 183.711L164.682 180.439Z" fill="#455A64"/>
<path d="M167.844 191.604C168.009 191.723 168.124 191.899 168.167 192.098C168.209 192.297 168.177 192.505 168.075 192.681C167.962 192.849 167.788 192.968 167.591 193.012C167.393 193.057 167.186 193.024 167.011 192.921C166.838 192.795 166.717 192.608 166.673 192.398C166.629 192.188 166.664 191.968 166.771 191.782C166.907 191.618 167.101 191.512 167.313 191.489C167.524 191.465 167.737 191.525 167.906 191.655" fill="#E0E0E0"/>
<g opacity="0.6">
<path d="M168.875 199.026L169.346 197.459L150.844 191.745C150.844 191.745 149.87 191.82 149.757 192.451L168.875 199.026Z" fill="white"/>
</g>
<path d="M161.373 190.196C161.345 190.29 161.797 190.493 162.155 190.954C162.512 191.415 162.625 191.895 162.719 191.895C162.814 191.895 162.865 191.298 162.423 190.752C161.98 190.206 161.383 190.107 161.373 190.196Z" fill="#263238"/>
<path d="M159.085 190.337C159.033 190.422 159.382 190.719 159.556 191.222C159.73 191.726 159.683 192.164 159.777 192.201C159.871 192.239 160.111 191.731 159.876 191.1C159.641 190.469 159.118 190.248 159.085 190.337Z" fill="#263238"/>
<path d="M157.122 192.342C157.202 192.394 157.49 191.971 157.428 191.378C157.367 190.785 156.995 190.436 156.929 190.497C156.864 190.559 157.042 190.926 157.085 191.415C157.127 191.905 157.033 192.305 157.122 192.342Z" fill="#263238"/>
<path d="M162.319 188.003C162.319 188.102 162.79 188.121 163.317 188.337C163.844 188.554 164.183 188.864 164.258 188.808C164.334 188.751 164.056 188.276 163.444 188.031C162.832 187.786 162.296 187.914 162.319 188.003Z" fill="#263238"/>
<path d="M150.948 167.214L144.829 175.653C144.829 175.653 134.206 172.283 132.926 173.732L148.863 186.153L158.911 173.393L150.948 167.214Z" fill="#455A64"/>
<path d="M150.312 178.801C150.428 178.968 150.479 179.17 150.456 179.372C150.432 179.573 150.336 179.758 150.185 179.893C150.023 180.017 149.82 180.073 149.618 180.051C149.416 180.029 149.23 179.931 149.098 179.776C148.974 179.599 148.92 179.384 148.946 179.17C148.972 178.956 149.076 178.759 149.239 178.618C149.421 178.507 149.639 178.471 149.847 178.518C150.055 178.564 150.237 178.69 150.354 178.867" fill="#E0E0E0"/>
<g opacity="0.6">
<path d="M148.876 186.153L149.841 184.826L134.196 173.417C134.196 173.417 133.255 173.172 132.939 173.732L148.876 186.153Z" fill="white"/>
</g>
<path d="M144.651 175.37C144.594 175.45 144.952 175.789 145.121 176.312C145.291 176.834 145.262 177.347 145.357 177.371C145.451 177.394 145.686 176.858 145.446 176.199C145.206 175.54 144.688 175.286 144.651 175.37Z" fill="#263238"/>
<path d="M142.438 174.758C142.362 174.82 142.598 175.229 142.602 175.752C142.607 176.274 142.419 176.693 142.499 176.749C142.579 176.806 142.97 176.406 142.946 175.742C142.922 175.079 142.499 174.688 142.438 174.758Z" fill="#263238"/>
<path d="M139.93 176.029C139.991 176.1 140.4 175.794 140.532 175.215C140.664 174.636 140.433 174.18 140.349 174.217C140.264 174.255 140.316 174.66 140.198 175.135C140.08 175.61 139.859 175.949 139.93 176.029Z" fill="#263238"/>
<path d="M146.255 173.601C146.231 173.695 146.674 173.869 147.088 174.241C147.502 174.613 147.737 175.017 147.832 174.984C147.926 174.951 147.832 174.415 147.314 173.982C146.796 173.549 146.264 173.511 146.255 173.601Z" fill="#263238"/>
<path d="M211.715 139.755L219.378 141.925L218.502 135.557L216.535 134.526L213.537 134.06L211.833 135.429L211.287 137.213L211.715 139.755Z" fill="#FDA92B"/>
<g opacity="0.3">
<path d="M211.734 139.698L219.378 141.925L218.502 135.557L216.535 134.526L213.537 134.06L211.833 135.429L211.287 137.213L211.734 139.698Z" fill="black"/>
</g>
<path d="M213.042 120.961C213.042 120.961 218.078 123.865 220.394 124.322C222.71 124.778 229.751 126.675 229.751 126.675L237.658 116.688C237.658 116.688 222.404 116.142 220.272 114.805C218.139 113.468 206.152 98.8022 206.152 98.8022L202.923 102.13C202.923 102.13 212.101 120.453 213.042 120.961Z" fill="#FFBE9D"/>
<path d="M228.946 127.004L229.04 115.238L242.304 113.402C242.304 113.402 245.043 112.626 246.069 113.332C247.095 114.038 240.981 122.161 240.981 122.161L228.946 127.004Z" fill="#FDA92B"/>
<path d="M292.576 82.2818C292.35 80.2391 290.604 78.5824 288.627 78.0458C286.65 77.5093 284.513 77.8999 282.631 78.7189C283.101 77.1986 281.774 75.556 280.211 75.2501C278.649 74.9441 277.053 75.6643 275.82 76.6621C274.648 77.6354 273.711 78.8601 273.077 80.2452C272.443 81.6303 272.129 83.1404 272.158 84.6634C272.201 86.1695 272.587 87.6427 272.728 89.1442C272.869 90.6456 272.728 92.2506 271.867 93.479C271.005 94.7074 269.207 95.3617 267.913 94.6086L267.621 98.9764C269.487 99.9376 271.551 100.449 273.65 100.47C275.749 100.492 277.823 100.022 279.708 99.0988C281.332 98.2845 282.946 96.7737 282.692 94.9757C282.612 94.4203 282.358 93.8979 282.292 93.3425C282.146 92.0952 282.984 90.9139 284.024 90.2126C285.064 89.5113 286.297 89.1724 287.46 88.7064C288.851 88.2016 290.107 87.3835 291.131 86.3154C291.639 85.7809 292.031 85.1459 292.28 84.4513C292.528 83.7567 292.629 83.0177 292.576 82.2818Z" fill="#263238"/>
<path d="M259.248 112.96C259.869 113.602 260.631 114.09 261.475 114.384C262.318 114.679 263.218 114.772 264.104 114.656C264.989 114.54 265.835 114.219 266.574 113.718C267.314 113.216 267.925 112.549 268.36 111.769C269.174 110.319 269.381 108.474 270.629 107.382C271.485 106.625 272.695 106.361 273.514 105.566C274.738 104.384 274.724 102.455 274.625 100.756C274.617 99.6614 274.446 98.5747 274.116 97.5314C273.948 97.0112 273.667 96.5345 273.294 96.1351C272.921 95.7357 272.464 95.4234 271.956 95.2205" fill="#263238"/>
<path d="M257.012 86.6025C256.452 87.7321 255.172 88.2734 253.976 88.6594C252.781 89.0453 251.486 89.4218 250.681 90.4008C249.269 92.1376 250.107 94.9992 248.62 96.6513C247.82 97.5361 246.516 97.8609 245.796 98.7928C245.076 99.7247 245.033 100.967 245.245 102.087C245.457 103.208 245.89 104.318 245.989 105.467C245.989 105.467 246.031 108.15 250.484 109.067" fill="#263238"/>
<path d="M272.633 98.0257C273.241 97.0609 272.779 95.7713 272.078 94.877C271.377 93.9827 270.445 93.2485 269.951 92.2224C269.518 91.3187 269.48 90.2786 269.235 89.2996C268.932 88.0962 268.314 86.9952 267.444 86.1094C266.575 85.2236 265.486 84.5849 264.289 84.2587C263.091 83.9326 261.828 83.9307 260.63 84.2532C259.432 84.5758 258.341 85.2112 257.469 86.0943C256.297 87.2851 255.586 89.0737 256.118 90.6504C256.763 92.4766 258.796 93.352 260.627 93.978C262.458 94.604 264.5 95.39 265.3 97.1268C265.771 98.1905 265.701 99.4095 265.691 100.581C265.682 101.753 265.79 103.01 266.548 103.876C267.306 104.742 268.934 104.959 269.56 103.975" fill="#263238"/>
<path d="M268.652 95.9546C269.035 96.2376 269.296 96.6553 269.384 97.1234C269.471 97.5915 269.378 98.0753 269.123 98.4774L255.13 120.02C253.548 122.608 248.865 121.827 246.107 120.114C243.316 118.387 244.041 116.946 245.472 114.438C247.858 110.249 248.766 108.696 248.766 108.714C248.766 108.733 245.552 106.013 247.566 100.925C248.564 98.3927 250.927 94.6697 252.955 91.681C254.786 88.9935 258.66 86.6637 261.267 88.6028L268.652 95.9546Z" fill="#FFBE9D"/>
<path d="M251.807 95.6065C251.713 95.7606 251.683 95.9453 251.724 96.1212C251.764 96.297 251.872 96.4501 252.023 96.5478C252.096 96.6 252.178 96.6369 252.266 96.6564C252.353 96.6759 252.443 96.6776 252.531 96.6613C252.619 96.645 252.703 96.6112 252.777 96.5617C252.852 96.5123 252.916 96.4483 252.965 96.3737C253.058 96.2189 253.087 96.0338 253.046 95.8579C253.004 95.682 252.896 95.5293 252.743 95.4323C252.671 95.3809 252.589 95.3446 252.502 95.3255C252.415 95.3065 252.326 95.305 252.238 95.3212C252.151 95.3375 252.068 95.3711 251.994 95.4201C251.92 95.4691 251.856 95.5325 251.807 95.6065Z" fill="#263238"/>
<path d="M252.748 93.5637C252.776 93.6861 253.426 93.6202 254.066 94.0014C254.706 94.3827 255.007 94.9851 255.101 94.9428C255.196 94.9004 255.167 94.7404 255.05 94.4721C254.886 94.1139 254.615 93.816 254.273 93.6202C253.941 93.4202 253.553 93.3327 253.167 93.3707C252.894 93.4084 252.748 93.5072 252.748 93.5637Z" fill="#263238"/>
<path d="M257.747 99.3105C257.654 99.4652 257.624 99.6503 257.666 99.8263C257.707 100.002 257.816 100.155 257.968 100.252C258.041 100.305 258.123 100.342 258.21 100.362C258.298 100.382 258.388 100.384 258.476 100.367C258.564 100.351 258.648 100.317 258.723 100.267C258.797 100.217 258.861 100.153 258.91 100.078C259.002 99.9233 259.031 99.7389 258.991 99.5634C258.951 99.3879 258.844 99.2349 258.693 99.1364C258.62 99.0835 258.537 99.0459 258.45 99.026C258.362 99.0061 258.271 99.0042 258.183 99.0205C258.094 99.0368 258.01 99.0709 257.935 99.1207C257.86 99.1706 257.796 99.2352 257.747 99.3105Z" fill="#263238"/>
<path d="M259.041 97.6914C259.069 97.8138 259.719 97.7479 260.359 98.1292C260.999 98.5104 261.3 99.1081 261.399 99.0705C261.498 99.0328 261.46 98.8728 261.343 98.5998C261.18 98.2423 260.91 97.9445 260.571 97.7479C260.238 97.5491 259.851 97.4602 259.465 97.4938C259.177 97.5361 259.027 97.635 259.041 97.6914Z" fill="#263238"/>
<path d="M253.689 101.396C253.412 101.087 253.096 100.817 252.748 100.591C252.598 100.473 252.461 100.351 252.499 100.224C252.536 100.097 252.701 99.9461 252.894 99.8002L254.118 98.8588C255.845 97.4798 257.196 96.3078 257.139 96.2372C257.083 96.1666 255.643 97.2303 253.915 98.5905L252.748 99.5695C252.529 99.7086 252.363 99.9175 252.277 100.163C252.267 100.235 252.273 100.309 252.296 100.378C252.319 100.448 252.358 100.511 252.409 100.563C252.485 100.642 252.571 100.711 252.663 100.77C252.979 101.018 253.324 101.229 253.689 101.396Z" fill="#263238"/>
<path d="M248.767 108.724C250.938 110.055 253.436 110.757 255.982 110.752C255.982 110.752 252.518 113.021 248.117 109.811L248.767 108.724Z" fill="#EB996E"/>
<path d="M259.681 95.9642C259.638 96.176 260.33 96.4725 261.031 97.0091C261.733 97.5456 262.217 98.1104 262.41 98.0116C262.5 97.9645 262.49 97.7386 262.345 97.4233C262.139 97.0222 261.845 96.6731 261.484 96.4024C261.124 96.1317 260.707 95.9465 260.264 95.8607C259.921 95.8089 259.699 95.8654 259.681 95.9642Z" fill="#263238"/>
<path d="M253.689 92.1987C253.732 92.4199 254.325 92.5658 254.932 92.9141C255.539 93.2624 255.986 93.6719 256.193 93.5872C256.292 93.5448 256.297 93.3518 256.156 93.0788C255.946 92.7328 255.649 92.4474 255.295 92.251C254.941 92.0546 254.541 91.9538 254.137 91.9587C253.84 91.9822 253.689 92.0904 253.689 92.1987Z" fill="#263238"/>
<path d="M262.881 113.195C262.161 112.947 261.509 112.53 260.982 111.98C260.454 111.429 260.066 110.761 259.848 110.03C259.63 109.299 259.59 108.527 259.73 107.778C259.871 107.029 260.188 106.323 260.655 105.721C261.474 104.662 262.778 103.838 263.009 102.549C263.324 100.807 261.597 99.1835 261.888 97.442C262.067 96.4301 262.914 95.6205 263.041 94.618C263.169 93.6155 262.618 92.7354 262.001 92.0011C261.385 91.2669 260.66 90.5656 260.302 89.6478C259.944 88.73 260.105 87.5439 260.952 87.0732C264.192 89.5397 267.126 92.3838 269.692 95.5452C270.285 96.2795 270.883 97.089 270.935 98.0304C270.986 98.9717 270.426 99.913 269.88 100.77L261.898 112.96" fill="#263238"/>
<path d="M274.521 100.252C274.431 100.252 274.417 98.6611 273.457 97.0091C272.497 95.357 271.151 94.5098 271.212 94.4392C271.538 94.555 271.838 94.736 272.092 94.9711C273.401 96.0303 274.264 97.5419 274.511 99.2071C274.584 99.5512 274.588 99.9065 274.521 100.252Z" fill="#FDA92B"/>
<path d="M271.104 94.072C271.104 94.072 271.057 94.1144 270.959 94.1709C270.809 94.2388 270.65 94.2863 270.488 94.3121C270.175 94.339 269.859 94.3029 269.56 94.2059C269.261 94.1089 268.984 93.953 268.746 93.7473C268.076 93.1026 267.62 92.2682 267.438 91.3563C267.17 90.3679 267.052 89.2336 266.497 88.2452C265.947 87.3149 265.063 86.6296 264.026 86.3296C263.177 86.0856 262.272 86.1236 261.446 86.4378C260.884 86.6466 260.371 86.9668 259.936 87.3791C259.63 87.6709 259.465 87.8498 259.465 87.8498C259.465 87.8498 259.465 87.7886 259.545 87.6945C259.637 87.5555 259.741 87.4248 259.855 87.3038C260.278 86.8487 260.795 86.4919 261.371 86.259C262.231 85.8985 263.188 85.8372 264.087 86.0848C265.196 86.3911 266.144 87.1147 266.732 88.104C267.339 89.1724 267.443 90.3255 267.697 91.2904C267.855 92.1608 268.269 92.9641 268.888 93.5966C269.328 93.9949 269.903 94.2118 270.497 94.2038C270.703 94.178 270.906 94.1339 271.104 94.072Z" fill="#455A64"/>
<path d="M253.03 103.099C252.959 103.435 252.937 103.779 252.964 104.121C252.978 104.29 253.027 104.454 253.108 104.603C253.189 104.753 253.301 104.883 253.435 104.987C253.592 105.081 253.77 105.133 253.953 105.14C254.135 105.147 254.317 105.107 254.48 105.024C254.805 104.851 255.068 104.581 255.233 104.252C255.384 103.961 255.454 103.546 255.191 103.349C255.075 103.273 254.942 103.23 254.805 103.222L252.969 102.949" fill="#EB996E"/>
<path d="M252.904 104.667C253.159 104.844 253.447 104.971 253.751 105.039C254.078 105.093 254.413 105.024 254.692 104.846C254.849 104.737 254.981 104.597 255.083 104.435C255.184 104.273 255.251 104.093 255.28 103.904C255.292 103.806 255.292 103.706 255.28 103.608C255.28 103.514 255.28 103.523 255.2 103.495C255.12 103.467 255.007 103.462 254.909 103.448L254.607 103.401C254.212 103.344 253.859 103.288 253.562 103.236C253.239 103.205 252.922 103.127 252.621 103.005C252.945 102.955 253.276 102.955 253.6 103.005C253.901 103.005 254.254 103.067 254.65 103.109L254.956 103.142C255.068 103.15 255.179 103.166 255.29 103.189C255.375 103.209 255.451 103.257 255.506 103.325C255.554 103.392 255.584 103.47 255.596 103.551C255.612 103.676 255.612 103.803 255.596 103.928C255.564 104.164 255.481 104.391 255.353 104.592C255.224 104.792 255.053 104.963 254.852 105.09C254.518 105.288 254.119 105.347 253.741 105.255C253.495 105.2 253.269 105.077 253.087 104.902C252.927 104.77 252.889 104.681 252.904 104.667Z" fill="#263238"/>
<path d="M146.166 172.805C146.166 172.805 165.986 142.847 168.565 139.411C171.144 135.976 173.709 133.119 180.012 134.945C183.09 135.839 214.394 144.137 214.394 144.137L219.538 143.356L237.085 157.203C237.085 157.203 226.424 169.567 213.015 164.554C199.493 159.499 179.597 150.872 179.597 150.872C179.597 150.872 170.292 161.227 167.115 165.411C163.792 169.793 155.499 178.383 155.499 178.383L146.166 172.805Z" fill="#263238"/>
<path d="M215.65 138.531C214.892 138.809 170.565 146.062 170.565 146.062L161.622 187.231L172.283 190.526L183.828 157.061L199.563 158.144L219.533 143.365L215.65 138.531Z" fill="#263238"/>
<path d="M215.589 133.142L220.475 133.613L226.763 132.135C226.763 132.135 229.954 124.468 231.54 121.22C233.126 117.973 245.877 112.96 245.877 112.96L258.086 114.687L261.62 116.208L257.615 130.586L246.79 146.801L236.275 159.372C236.275 159.372 216.469 141.718 215.674 138.847C215.001 136.39 215.961 135.081 214.262 134.272C213.664 133.989 212.85 134.568 212.568 135.03C211.927 136.046 211.254 136.606 211.626 139.317C211.248 138.579 211.097 137.745 211.193 136.922C211.368 136.178 211.688 135.476 212.135 134.855C212.516 134.298 213.033 133.848 213.638 133.548C214.243 133.248 214.915 133.108 215.589 133.142Z" fill="#FDA92B"/>
<g opacity="0.3">
<path d="M237.799 124.764C236.472 126.369 235.229 128.652 235.239 130.737C235.302 131.617 235.317 132.5 235.286 133.382C235.197 134.323 234.867 135.189 234.773 136.107C234.715 137.247 234.837 138.39 235.135 139.491C235.265 140.299 235.519 141.082 235.888 141.812C236.324 142.436 236.795 143.035 237.3 143.605C238.298 144.913 238.783 146.528 239.484 148.015C240.186 149.502 241.245 150.966 242.812 151.456C243.556 150.816 244.346 150.091 244.469 149.102C244.498 148.451 244.36 147.803 244.069 147.22C242.586 143.527 240.71 140.005 238.472 136.714C237.775 135.62 237.218 134.442 236.816 133.208C235.874 130.483 236.896 127.329 237.804 124.76" fill="black"/>
</g>
<path d="M238.501 135.674C238.355 135.596 238.222 135.496 238.106 135.378C237.771 135.075 237.482 134.724 237.249 134.338C236.494 133.04 236.154 131.542 236.275 130.045C236.414 128.568 236.772 127.12 237.339 125.748C237.546 125.226 237.725 124.807 237.857 124.515C237.915 124.361 237.991 124.214 238.082 124.077C237.92 124.664 237.727 125.243 237.504 125.809C236.99 127.172 236.659 128.596 236.52 130.045C236.409 131.497 236.716 132.951 237.405 134.234C237.717 134.752 238.085 135.235 238.501 135.674Z" fill="#263238"/>
<path d="M191.015 92.8529L196.414 90.5466L200.876 92.2175L207.225 100.186L203.931 103.65L202.905 102.158C202.905 102.158 199.709 100.967 199.083 99.8564C198.616 99.0611 198.095 98.2985 197.525 97.5737L196.334 96.7218C196.334 96.7218 193.082 97.7667 192.178 97.0795L191.778 96.6935L195.181 95.2815L195.157 94.3826C195.157 94.3826 192.536 95.9075 191.034 95.3568L190.62 94.6603L193.411 93.5495C193.411 93.5495 191.745 93.8931 191.411 93.5495C191.221 93.3557 191.084 93.1156 191.015 92.8529Z" fill="#FFBE9D"/>
<path d="M200.212 94.6885C200.212 94.6885 200.241 94.7262 200.212 94.8156C200.197 94.8766 200.169 94.9338 200.131 94.9839C200.093 95.034 200.046 95.076 199.991 95.1074C199.901 95.1533 199.801 95.1772 199.699 95.1772C199.598 95.1772 199.498 95.1533 199.408 95.1074C199.182 95.0026 198.965 94.8814 198.758 94.745C198.287 94.4673 197.737 94.152 197.097 93.8366C196.776 93.6766 196.438 93.5213 196.085 93.366C195.762 93.1697 195.382 93.0885 195.007 93.1353C194.926 93.1558 194.85 93.1932 194.784 93.2451C194.718 93.297 194.664 93.3623 194.626 93.4366C194.594 93.5142 194.585 93.5988 194.597 93.6815C194.609 93.7642 194.644 93.8421 194.696 93.9072C194.932 94.1863 195.187 94.449 195.459 94.6932L196.819 96.0252C197.205 96.4112 197.511 96.7218 197.723 96.9666C197.934 97.2113 198.043 97.3102 198.028 97.3243C197.891 97.2449 197.766 97.1467 197.657 97.0325C197.426 96.8348 197.101 96.5618 196.715 96.1758L195.303 94.8815L194.903 94.505C194.751 94.3745 194.615 94.226 194.498 94.0626C194.426 93.967 194.38 93.8546 194.363 93.7359C194.347 93.6173 194.361 93.4964 194.404 93.3848C194.455 93.2754 194.529 93.1788 194.622 93.1022C194.715 93.0256 194.824 92.971 194.941 92.9424C195.371 92.878 195.81 92.9645 196.183 93.1871C196.541 93.3471 196.88 93.5119 197.2 93.6578C197.84 93.992 198.396 94.3261 198.852 94.6226C199.046 94.7627 199.249 94.8901 199.459 95.0039C199.531 95.0438 199.61 95.0671 199.691 95.072C199.773 95.0768 199.854 95.0632 199.93 95.0321C200.005 95.0071 200.071 94.9617 200.121 94.9009C200.17 94.8401 200.202 94.7665 200.212 94.6885Z" fill="#EB996E"/>
<path d="M199.728 94.5286C199.393 94.4184 199.076 94.2599 198.786 94.058C198.056 93.6312 197.361 93.1448 196.711 92.6036L196.541 92.4624H196.664C195.793 92.7966 195.007 93.0837 194.437 93.2767C194.137 93.4074 193.82 93.4976 193.496 93.5449C193.77 93.3702 194.064 93.228 194.372 93.1213C194.927 92.886 195.699 92.5707 196.57 92.2365L196.64 92.2083L196.697 92.2553L196.866 92.3965C198.367 93.6861 199.761 94.4627 199.728 94.5286Z" fill="#EB996E"/>
<path d="M251.944 131.099L248.225 142.734L246.126 140.663L241.721 142.908L244.107 152.792C244.107 152.792 246.771 156.501 249.863 156.271C252.956 156.04 253.544 154.12 254.518 151.795C255.492 149.469 260.872 134.978 260.872 134.978C260.872 134.978 253.29 130.991 251.944 131.099Z" fill="#FFBE9D"/>
<path d="M235.136 135.204C235.136 135.204 240.836 132.874 241.429 133.053L246.281 134.549C246.503 134.779 246.647 135.073 246.691 135.389C246.736 135.705 246.68 136.027 246.531 136.31C246.531 136.31 247.303 138.235 246.893 139.331L246.484 140.428C246.582 140.698 246.627 140.984 246.614 141.271C246.601 141.558 246.531 141.839 246.409 142.099C245.731 143.407 245.825 143.742 245.265 143.93C244.705 144.118 241.608 143.459 241.608 143.459C241.608 143.459 237.635 142.612 237.405 142.141C237.174 141.671 237.668 141.289 237.668 141.289H240.963L240.436 140.729L238.492 140.259C238.492 140.259 236.492 140.885 235.47 140.122C235.379 140.045 235.32 139.936 235.306 139.817C235.292 139.698 235.324 139.578 235.395 139.482L235.903 138.861C235.508 138.784 235.152 138.573 234.894 138.263C234.637 137.953 234.495 137.564 234.491 137.162L236.087 136.653C236.087 136.653 234.115 136.183 235.136 135.204Z" fill="#FFBE9D"/>
<path d="M243.97 136.022C242.692 135.831 241.398 135.757 240.106 135.801C238.821 135.931 237.551 136.18 236.312 136.545C236.637 136.334 236.993 136.175 237.367 136.074C238.249 135.783 239.165 135.604 240.092 135.542C241.019 135.481 241.95 135.533 242.864 135.698C243.247 135.75 243.62 135.86 243.97 136.022Z" fill="#EB996E"/>
<path d="M244.323 139.035C243.906 138.982 243.493 138.903 243.086 138.799C242.099 138.607 241.097 138.501 240.092 138.484C239.086 138.478 238.082 138.556 237.089 138.719C236.679 138.813 236.265 138.882 235.847 138.927C236.231 138.746 236.638 138.619 237.056 138.55C238.053 138.331 239.072 138.226 240.092 138.239C241.114 138.254 242.131 138.385 243.123 138.63C243.54 138.711 243.943 138.847 244.323 139.035Z" fill="#EB996E"/>
<path d="M244.403 142.061C243.767 142.057 243.134 141.971 242.52 141.807C241.891 141.727 241.275 141.569 240.685 141.336C241.32 141.334 241.954 141.418 242.567 141.586C243.197 141.666 243.814 141.826 244.403 142.061Z" fill="#EB996E"/>
<path d="M254.089 149.036C253.963 148.961 253.849 148.868 253.75 148.759C253.543 148.57 253.28 148.288 252.912 147.921C252.221 147.196 251.326 146.147 250.272 145.055C249.218 143.963 248.281 142.941 247.608 142.202C247.226 141.819 246.874 141.406 246.554 140.969C246.972 141.31 247.366 141.682 247.73 142.08C248.436 142.791 249.382 143.784 250.446 144.904C251.51 146.024 252.385 147.074 253.039 147.822C253.411 148.208 253.761 148.613 254.089 149.036Z" fill="#EB996E"/>
<path d="M261.29 116.066C262.307 116.618 263.135 117.462 263.669 118.489C264.202 119.515 264.417 120.678 264.284 121.827C263.865 125.936 262.029 136.046 262.029 136.046L250.366 130.624L252.442 122.594C252.442 122.594 258.17 115.426 261.29 116.066Z" fill="#FDA92B"/>
<path d="M241.669 115.078C241.605 115.124 241.536 115.16 241.462 115.186L240.845 115.459C240.309 115.694 239.527 116.019 238.577 116.448C237.459 116.938 236.376 117.502 235.334 118.137C234.75 118.5 234.152 118.904 233.555 119.352C232.925 119.788 232.364 120.314 231.888 120.914C231.008 122.117 230.284 123.427 229.733 124.811C229.196 126.077 228.768 127.245 228.391 128.224C228.015 129.203 227.714 129.989 227.45 130.516C227.332 130.784 227.219 130.986 227.149 131.123C227.116 131.195 227.075 131.263 227.026 131.325C227.123 131.037 227.235 130.755 227.361 130.478C227.582 129.942 227.864 129.146 228.217 128.162C228.57 127.179 228.98 126.002 229.511 124.722C230.06 123.314 230.789 121.983 231.681 120.764C232.17 120.147 232.747 119.606 233.394 119.159C234.006 118.71 234.609 118.305 235.202 117.944C236.259 117.312 237.36 116.757 238.497 116.283C239.461 115.873 240.252 115.577 240.798 115.37L241.433 115.139C241.508 115.106 241.588 115.085 241.669 115.078Z" fill="#263238"/>
<path d="M262.03 136.046C261.764 135.962 261.504 135.858 261.253 135.735L259.173 134.794C257.418 134.003 255.008 132.911 252.348 131.66L250.315 130.718L250.23 130.676V130.582C250.743 128.228 251.219 126.2 251.586 124.745C251.77 124.021 251.925 123.442 252.057 123.046C252.106 122.84 252.174 122.638 252.259 122.444C252.238 122.656 252.199 122.865 252.141 123.07C252.043 123.508 251.911 124.082 251.755 124.783C251.431 126.284 250.988 128.318 250.485 130.633L250.419 130.497L252.452 131.438C255.111 132.671 257.512 133.792 259.244 134.634L261.291 135.632C261.548 135.75 261.795 135.889 262.03 136.046Z" fill="#263238"/>
<path d="M261.53 116.179C261.53 116.217 261.102 116.146 260.424 116.151C259.538 116.164 258.661 116.323 257.826 116.622C256.991 116.916 256.211 117.349 255.52 117.902C254.988 118.325 254.706 118.646 254.673 118.617C254.866 118.294 255.115 118.007 255.407 117.77C256.785 116.546 258.588 115.909 260.429 115.996C260.805 115.985 261.179 116.047 261.53 116.179Z" fill="#263238"/>
<path d="M219.463 145.991C219.463 146.052 215.697 145.05 211.066 143.704C206.435 142.358 202.712 141.252 202.731 141.186C202.749 141.12 206.496 142.127 211.132 143.468C215.768 144.81 219.482 145.906 219.463 145.991Z" fill="#455A64"/>
<path d="M146.166 172.805L146.335 172.895L146.806 173.172L148.689 174.264L155.542 178.326H155.433C159.957 173.285 166.231 166.282 172.956 158.37C175.446 155.419 177.823 152.557 179.889 149.823L179.941 149.752L180.026 149.785C183.584 151.23 186.799 152.797 189.67 154.209C192.541 155.621 195.059 156.897 197.167 157.918C199.276 158.939 200.975 159.711 202.147 160.224L203.493 160.808L203.842 160.959L203.954 161.02L203.832 160.977L203.479 160.846C203.168 160.718 202.707 160.549 202.119 160.295C200.933 159.824 199.229 159.052 197.106 158.05C194.984 157.047 192.451 155.795 189.576 154.388C186.7 152.981 183.485 151.432 179.932 150.001L180.068 149.964C178.007 152.708 175.63 155.579 173.135 158.525C166.409 166.442 160.117 173.426 155.556 178.439L155.509 178.491L155.448 178.458L148.632 174.325L146.787 173.196L146.317 172.895C146.263 172.871 146.213 172.841 146.166 172.805Z" fill="#455A64"/>
<path d="M180.001 149.931C179.765 149.337 179.571 148.726 179.422 148.104C179.199 147.505 179.021 146.89 178.891 146.264C179.247 146.805 179.507 147.404 179.658 148.034C179.884 148.641 180.001 149.283 180.001 149.931Z" fill="#455A64"/>
<path d="M237.96 124.355C237.599 124.464 237.222 124.513 236.844 124.501C234.999 124.526 233.201 123.912 231.757 122.764C231.447 122.545 231.179 122.272 230.966 121.959C231.944 122.759 233.045 123.395 234.228 123.842C235.436 124.211 236.696 124.384 237.96 124.355Z" fill="white"/>
<path d="M250.945 125.668C250.945 125.706 250.239 125.433 249.091 125.117C247.594 124.712 246.056 124.473 244.506 124.407C242.956 124.347 241.404 124.463 239.88 124.75C238.708 124.971 237.997 125.188 237.997 125.146C238.145 125.062 238.303 124.997 238.468 124.953C238.918 124.805 239.375 124.681 239.837 124.581C242.916 123.896 246.119 124.024 249.133 124.953C249.587 125.085 250.033 125.242 250.47 125.423C250.639 125.482 250.799 125.564 250.945 125.668Z" fill="white"/>
<path d="M263.818 125.258C263.818 125.324 261.107 125.103 257.775 124.759C254.443 124.416 251.75 124.082 251.76 124.016C251.769 123.95 254.471 124.171 257.803 124.515C261.135 124.858 263.823 125.197 263.818 125.258Z" fill="white"/>
<path d="M235.437 117.94C235.185 117.462 235.005 116.95 234.905 116.419C234.731 115.909 234.631 115.376 234.608 114.838C235.045 115.822 235.325 116.869 235.437 117.94Z" fill="white"/>
<path d="M246.314 140.155C246.478 140.316 246.581 140.529 246.606 140.757C246.663 141.05 246.647 141.352 246.559 141.637C246.471 141.922 246.314 142.181 246.102 142.391L246.131 142.259C246.245 142.507 246.26 142.789 246.173 143.047C246.085 143.306 245.902 143.52 245.66 143.647C245.417 143.764 245.153 143.829 244.883 143.84C244.629 143.84 244.413 143.84 244.163 143.84C243.76 143.84 243.358 143.815 242.958 143.765C242.585 143.743 242.218 143.66 241.871 143.52C242.239 143.523 242.607 143.547 242.972 143.591C243.311 143.591 243.716 143.624 244.163 143.614C244.633 143.639 245.104 143.57 245.547 143.412C245.732 143.312 245.872 143.146 245.94 142.947C246.008 142.748 245.999 142.531 245.914 142.339L245.876 142.264L245.942 142.202C246.133 142.017 246.279 141.791 246.369 141.54C246.459 141.29 246.49 141.022 246.46 140.757C246.422 140.554 246.373 140.353 246.314 140.155Z" fill="#EB996E"/>
<path d="M273.928 98.2987C273.865 98.4835 273.778 98.6591 273.669 98.8211C273.394 99.2808 273.055 99.6991 272.662 100.064C272.083 100.614 271.41 101.055 270.676 101.367C269.771 101.752 268.791 101.926 267.809 101.876C266.829 101.811 265.878 101.521 265.028 101.029C264.335 100.634 263.719 100.118 263.211 99.5036C262.864 99.0942 262.578 98.6379 262.359 98.1481C262.268 97.9748 262.203 97.7893 262.166 97.5974C262.488 98.2376 262.881 98.8392 263.338 99.3907C263.854 99.9685 264.463 100.455 265.141 100.831C265.962 101.301 266.881 101.575 267.825 101.631C268.77 101.687 269.715 101.525 270.586 101.156C271.304 100.865 271.967 100.453 272.544 99.9366C273.065 99.4441 273.529 98.8947 273.928 98.2987Z" fill="#455A64"/>
<path d="M274.031 98.8398C274.031 98.8398 274.031 98.9057 274.069 99.0375C274.096 99.2308 274.105 99.4262 274.097 99.6212C274.062 100.343 273.886 101.051 273.579 101.706C273.121 102.669 272.515 103.554 271.781 104.328C270.981 105.217 270.017 106.107 269.146 107.152C268.275 108.197 267.527 109.289 266.684 110.15C265.957 110.941 265.054 111.55 264.048 111.929C263.369 112.187 262.634 112.263 261.916 112.15C261.722 112.122 261.533 112.07 261.352 111.995C261.287 111.976 261.225 111.947 261.168 111.91C261.168 111.882 261.436 111.995 261.93 112.056C262.629 112.129 263.335 112.03 263.987 111.769C264.956 111.379 265.822 110.772 266.519 109.995C267.338 109.143 268.082 108.065 268.957 106.996C269.833 105.928 270.817 105.043 271.612 104.172C272.34 103.421 272.951 102.564 273.424 101.631C273.734 100.999 273.929 100.317 273.998 99.6164C274.041 99.1317 274.008 98.8398 274.031 98.8398Z" fill="#455A64"/>
<path d="M281.544 78.46C281.544 78.4835 281.261 78.54 280.776 78.7424C280.096 79.0293 279.474 79.4376 278.941 79.9473C278.153 80.7049 277.591 81.6662 277.317 82.7242C277.002 83.915 277.213 85.2893 277.35 86.7202C277.503 88.0892 277.342 89.4751 276.879 90.7726C276.501 91.8267 275.933 92.8028 275.204 93.6531C274.721 94.2304 274.158 94.7359 273.533 95.1545C273.366 95.2717 273.192 95.3771 273.01 95.4699C272.951 95.5105 272.886 95.5422 272.817 95.564C272.817 95.564 273.057 95.3945 273.476 95.0933C274.07 94.6523 274.606 94.1384 275.072 93.5637C275.765 92.7149 276.303 91.7511 276.663 90.7161C277.099 89.4468 277.246 88.0958 277.091 86.7625C276.955 85.3505 276.743 83.9385 277.091 82.6865C277.388 81.602 277.985 80.6233 278.814 79.8625C279.371 79.3516 280.024 78.955 280.734 78.6953C280.926 78.627 281.123 78.572 281.322 78.5306C281.391 78.4929 281.466 78.4689 281.544 78.46Z" fill="#455A64"/>
<path d="M291.813 82.3666C291.813 82.3666 291.46 82.2019 290.806 81.9666C289.876 81.6472 288.899 81.488 287.916 81.4959C286.461 81.5065 285.035 81.908 283.788 82.6584C282.64 83.3659 281.683 84.3444 281.001 85.5081C280.319 86.6717 279.933 87.9849 279.877 89.3325C279.821 90.2268 279.835 91.0975 279.741 91.9306C279.665 92.7255 279.438 93.4987 279.072 94.2086C278.753 94.8255 278.329 95.3827 277.82 95.8559C277.095 96.5489 276.211 97.0545 275.246 97.3291C274.985 97.4019 274.719 97.4523 274.45 97.4797C274.357 97.4922 274.262 97.4922 274.168 97.4797C274.168 97.4562 274.554 97.428 275.218 97.2209C276.152 96.9193 277.003 96.4035 277.703 95.7147C278.751 94.7035 279.395 93.3448 279.515 91.8929C279.604 91.0787 279.585 90.2127 279.637 89.3043C279.691 87.9171 280.088 86.565 280.793 85.369C281.498 84.173 282.488 83.1705 283.675 82.4514C284.748 81.8198 285.949 81.4385 287.189 81.3358C288.43 81.2331 289.677 81.4117 290.839 81.8583C291.091 81.9562 291.336 82.0709 291.573 82.2019C291.66 82.2466 291.74 82.302 291.813 82.3666Z" fill="#455A64"/>
</svg>
