<svg width="165" height="186" viewBox="0 0 165 186" fill="none" xmlns="http://www.w3.org/2000/svg">
<g id="QR Code-pana 1">
<g id="freepik--qr-code--inject-64">
<path id="Vector" d="M81.207 78.162V81.3006H84.3456V78.162V75.0183H81.207V78.162Z" fill="#263238"/>
<path id="Vector_2" d="M84.3456 59.3247H81.207V62.4633H84.3456V59.3247Z" fill="#263238"/>
<path id="Vector_3" d="M103.743 93.8853H100.604V97.0239H103.743V93.8853Z" fill="#263238"/>
<path id="Vector_4" d="M84.3456 65.602V68.7406H81.207V71.8792H84.3456V75.0178H87.4842H90.6279V78.1615H93.7665V75.0178H96.9051V71.8792V68.7406H93.7665V71.8792H90.6279H87.4842V68.7406V65.602V62.4634H84.3456V65.602Z" fill="#263238"/>
<path id="Vector_5" d="M90.6261 59.3247H87.4824V62.4633H90.6261H93.7647V59.3247H90.6261Z" fill="#263238"/>
<path id="Vector_6" d="M104.753 84.561H106.436V81.4224H104.753H103.064V84.561H104.753Z" fill="#263238"/>
<path id="Vector_7" d="M96.9052 62.4634H93.7666V65.602H96.9052V62.4634Z" fill="#263238"/>
<path id="Vector_8" d="M118.879 75.0183H115.74V78.1569H118.879V75.0183Z" fill="#263238"/>
<path id="Vector_9" d="M122.018 40.4883H118.88V43.6269H122.018V40.4883Z" fill="#263238"/>
<path id="Vector_10" d="M103.182 65.6021V62.4635H106.32V59.3249H103.182V56.1863H100.043V59.3249H96.9043V62.4635H100.043V65.6021V68.7407V71.8793V75.0179H103.182V71.8793V68.7407H106.32V65.6021H103.182Z" fill="#263238"/>
<path id="Vector_11" d="M118.879 96.9936H122.017V93.855H118.879H115.74V96.9936H118.879Z" fill="#263238"/>
<path id="Vector_12" d="M115.74 40.4883H112.602V43.6269H115.74V40.4883Z" fill="#263238"/>
<path id="Vector_13" d="M114.954 65.6019V62.4633H111.815V59.3247H108.677V62.4633V65.6019H105.538V68.7405H108.677H111.815V65.6019H114.954Z" fill="#263238"/>
<path id="Vector_14" d="M132.67 59.3247H129.531V62.4633H132.67V59.3247Z" fill="#263238"/>
<path id="Vector_15" d="M100.134 75.0183H96.9951V78.1569H100.134V75.0183Z" fill="#263238"/>
<path id="Vector_16" d="M112.602 56.1867V53.0481H115.74V49.9044H118.879H122.017V46.7658H118.879V43.6272H115.74V46.7658H112.602V49.9044H109.458V53.0481H106.319V56.1867H109.458H112.602Z" fill="#263238"/>
<path id="Vector_17" d="M112.602 78.1619V75.0182H115.74V71.8796H112.602H109.458V75.0182H106.319V78.1619H109.458H112.602Z" fill="#263238"/>
<path id="Vector_18" d="M122.016 90.7159V87.5722H118.878H115.739V84.4336H112.601V87.5722H109.457V90.7159H106.318H103.18V93.8545H106.318H109.457H112.601V90.7159H115.739V93.8545H118.878V90.7159H122.016Z" fill="#263238"/>
<path id="Vector_19" d="M109.459 43.6269V40.4883H106.32H103.182V43.6269H100.043V46.7655H103.182H106.32V43.6269H109.459Z" fill="#263238"/>
<path id="Vector_20" d="M109.458 46.7656H106.319V49.9042H109.458V46.7656Z" fill="#263238"/>
<path id="Vector_21" d="M117.309 59.3251H114.17V62.4637V65.6023V68.7409H117.309H120.447V65.6023H117.309V62.4637H120.447V59.3251H123.586V56.1865H120.447V53.0479H117.309V56.1865V59.3251Z" fill="#263238"/>
<path id="Vector_22" d="M106.318 49.9041H103.18V53.0427H106.318V49.9041Z" fill="#263238"/>
<path id="Vector_23" d="M115.74 81.3002V84.4388H118.879H122.017V81.3002H125.156H128.295V78.1616H125.156H122.017H118.879V81.3002H115.74Z" fill="#263238"/>
<path id="Vector_24" d="M132.67 68.7407H129.531V71.8793H132.67V68.7407Z" fill="#263238"/>
<path id="Vector_25" d="M122.018 71.8796H118.88V75.0182H122.018V71.8796Z" fill="#263238"/>
<path id="Vector_26" d="M129.868 62.4634H126.73H123.586V65.602H126.73V68.7406H129.868V65.602V62.4634Z" fill="#263238"/>
<path id="Vector_27" d="M128.294 71.8796H125.155V75.0182H128.294V71.8796Z" fill="#263238"/>
<path id="Vector_28" d="M93.7655 90.7776H103.186V78.1572H90.566V81.3009H87.4883V84.4395H90.566V87.5781H87.4883V90.7167H90.566V90.7776H90.6269V93.8553H87.4883V100.133H90.6269V96.9838H93.7655V90.7776ZM100.768 80.5708V88.4198H92.9187V80.5708H100.768Z" fill="#263238"/>
<path id="Vector_29" d="M134.573 78.162H137.712V75.0183H134.573H131.435H128.296V78.162H131.435H134.573Z" fill="#263238"/>
<path id="Vector_30" d="M134.572 65.6019H137.711V62.4633V59.3247H134.572V62.4633V65.6019Z" fill="#263238"/>
<path id="Vector_31" d="M109.58 81.4224H106.437V84.561V87.6996H109.58V84.561V81.4224Z" fill="#263238"/>
<path id="Vector_32" d="M140.85 78.1616H137.711V81.3002H140.85V78.1616Z" fill="#263238"/>
<path id="Vector_33" d="M140.855 71.8793V68.7407H137.711V71.8793V75.0179H140.855V71.8793Z" fill="#263238"/>
<path id="Vector_34" d="M84.3456 93.855H81.207V96.9936V100.132H84.3456V96.9936V93.855Z" fill="#263238"/>
<path id="Vector_35" d="M140.856 56.1867V40.4683H125.138V56.1867H140.856ZM127.511 53.8289V42.8412H138.498V53.8289H127.511Z" fill="#263238"/>
<path id="Vector_36" d="M136.143 45.199H129.866V51.4762H136.143V45.199Z" fill="#263238"/>
<path id="Vector_37" d="M140.856 84.439H125.138V100.132H140.856V84.439ZM127.511 97.7793V86.7917H138.498V97.7793H127.511Z" fill="#263238"/>
<path id="Vector_38" d="M136.143 89.144H129.866V95.4213H136.143V89.144Z" fill="#263238"/>
<path id="Vector_39" d="M81.1689 40.4883V56.2067H96.8518V40.4883H81.1689ZM94.5093 42.841V53.8286H83.5216V42.841H94.5093Z" fill="#263238"/>
<path id="Vector_40" d="M92.1532 45.199H85.876V51.4762H92.1532V45.199Z" fill="#263238"/>
<path id="Vector_41" d="M76.6919 51.4304V40.2754C76.6206 39.2519 76.9354 38.2388 77.5742 37.4359C77.9567 37.0137 78.4277 36.6811 78.9536 36.462C79.4795 36.2428 80.0473 36.1426 80.6165 36.1683H92.3394C92.4321 36.1683 92.5211 36.1315 92.5867 36.0658C92.6524 36.0002 92.6892 35.9112 92.6892 35.8185C92.6892 35.7257 92.6524 35.6367 92.5867 35.5711C92.5211 35.5055 92.4321 35.4686 92.3394 35.4686H80.7585C79.7777 35.4194 78.8047 35.6648 77.9646 36.1734C77.3609 36.5754 76.8649 37.1194 76.5201 37.7576C76.1754 38.3959 75.9924 39.1089 75.9872 39.8342C75.9567 41.6698 75.9872 43.5103 75.9872 45.3408V51.4253C75.9975 51.5115 76.0391 51.5909 76.104 51.6485C76.169 51.7061 76.2528 51.7379 76.3396 51.7379C76.4264 51.7379 76.5101 51.7061 76.5751 51.6485C76.64 51.5909 76.6816 51.5115 76.6919 51.4253V51.4304Z" fill="#FDA92B"/>
<path id="Vector_42" d="M91.3262 105.436H80.1712C79.148 105.505 78.1358 105.19 77.3318 104.554C76.9101 104.171 76.5779 103.7 76.3588 103.174C76.1397 102.648 76.0391 102.08 76.0642 101.511V89.7732C76.0642 89.6804 76.0273 89.5914 75.9617 89.5258C75.8961 89.4602 75.8071 89.4233 75.7143 89.4233C75.6215 89.4233 75.5325 89.4602 75.4669 89.5258C75.4013 89.5914 75.3644 89.6804 75.3644 89.7732V101.369C75.3158 102.35 75.5613 103.323 76.0692 104.163C76.4712 104.767 77.0153 105.262 77.6536 105.606C78.292 105.95 79.005 106.132 79.7301 106.136C81.5656 106.166 83.4011 106.136 85.2366 106.136H91.3212C91.4139 106.136 91.5029 106.099 91.5686 106.033C91.6342 105.967 91.671 105.878 91.671 105.786C91.671 105.693 91.6342 105.604 91.5686 105.538C91.5029 105.473 91.4139 105.436 91.3212 105.436H91.3262Z" fill="#FDA92B"/>
<path id="Vector_43" d="M144.992 89.6614V100.816C145.063 101.84 144.749 102.853 144.11 103.656C143.727 104.078 143.257 104.411 142.731 104.63C142.205 104.849 141.637 104.95 141.067 104.923H129.329C129.237 104.923 129.148 104.96 129.082 105.026C129.016 105.092 128.979 105.181 128.979 105.273C128.979 105.366 129.016 105.455 129.082 105.521C129.148 105.586 129.237 105.623 129.329 105.623H140.925C141.906 105.672 142.879 105.427 143.719 104.918C144.323 104.516 144.818 103.972 145.162 103.334C145.506 102.696 145.688 101.983 145.692 101.258C145.727 99.4221 145.692 97.5866 145.692 95.7511V89.6665C145.692 89.5737 145.655 89.4847 145.589 89.4191C145.524 89.3535 145.435 89.3167 145.342 89.3167C145.249 89.3167 145.16 89.3535 145.094 89.4191C145.029 89.4847 144.992 89.5737 144.992 89.6665V89.6614Z" fill="#FDA92B"/>
<path id="Vector_44" d="M129.532 36.1735H140.687C141.711 36.1035 142.725 36.4201 143.527 37.0608C143.95 37.4421 144.284 37.913 144.503 38.4391C144.722 38.9653 144.822 39.5337 144.794 40.1031V51.8564C144.794 51.9491 144.831 52.0381 144.897 52.1037C144.962 52.1694 145.051 52.2062 145.144 52.2062C145.237 52.2062 145.326 52.1694 145.392 52.1037C145.457 52.0381 145.494 51.9491 145.494 51.8564V40.245C145.543 39.2627 145.298 38.288 144.789 37.4461C144.387 36.8427 143.843 36.3472 143.205 36.0033C142.567 35.6594 141.854 35.4775 141.128 35.4737C139.293 35.4433 137.457 35.4737 135.622 35.4737H129.537C129.445 35.4737 129.356 35.5106 129.29 35.5762C129.224 35.6418 129.188 35.7308 129.188 35.8236C129.188 35.9164 129.224 36.0054 129.29 36.071C129.356 36.1366 129.445 36.1735 129.537 36.1735H129.532Z" fill="#FDA92B"/>
</g>
<g id="freepik--background-complete--inject-64">
<path id="Vector_45" d="M29.8527 99.0317C30.0431 98.2831 29.5906 97.5218 28.842 97.3314C28.0933 97.141 27.3321 97.5936 27.1416 98.3422C26.9512 99.0909 27.4038 99.8521 28.1524 100.043C28.9011 100.233 29.6623 99.7804 29.8527 99.0317Z" fill="#EBEBEB"/>
<path id="Vector_46" d="M25.7166 96.9003C26.0735 96.5166 26.5045 96.2091 26.9836 95.9966C27.4627 95.7841 27.9799 95.6709 28.5039 95.6639C29.028 95.6569 29.548 95.7562 30.0326 95.9559C30.5172 96.1555 30.9562 96.4514 31.3233 96.8255C32.0364 97.5465 33.1514 96.4315 32.4383 95.7183C31.9249 95.1998 31.3129 94.7892 30.6383 94.511C29.9637 94.2328 29.2403 94.0924 28.5106 94.0983C27.7809 94.1042 27.0598 94.2562 26.3898 94.5452C25.7198 94.8343 25.1144 95.2546 24.6095 95.7814C23.9121 96.5142 25.0035 97.6332 25.7166 96.9003Z" fill="#EBEBEB"/>
<path id="Vector_47" d="M20.9575 90.3917C23.0812 88.5556 25.6185 87.3973 28.4435 87.3894C31.2755 87.3558 34.0136 88.4043 36.0989 90.3207C36.8357 91.0142 37.9547 89.907 37.2179 89.2136C34.8397 87.0138 31.7145 85.7998 28.475 85.8173C25.2048 85.8173 22.2971 87.1609 19.8543 89.2766C19.0663 89.9386 20.1971 91.0496 20.9614 90.3917H20.9575Z" fill="#EBEBEB"/>
<path id="Vector_48" d="M22.8292 93.9965C23.5385 93.2063 24.4037 92.5714 25.3703 92.1318C26.3369 91.6922 27.384 91.4574 28.4458 91.4422C29.5076 91.4271 30.561 91.6318 31.5398 92.0436C32.5185 92.4554 33.4015 93.0653 34.1331 93.835C34.8423 94.5639 35.9573 93.441 35.252 92.7318C34.3753 91.8149 33.3196 91.0878 32.1503 90.5957C30.981 90.1036 29.7231 89.8569 28.4546 89.8709C27.186 89.885 25.9339 90.1594 24.7758 90.6773C23.6177 91.1952 22.5783 91.9454 21.7221 92.8815C21.0365 93.6222 22.1397 94.7412 22.8292 93.9965Z" fill="#EBEBEB"/>
<path id="Vector_49" d="M43.3048 51.437C43.5176 49.8886 41.3348 48.6121 39.6879 48.482C38.8999 48.419 38.1119 48.5372 37.3476 48.2772C35.74 47.7177 35.0978 45.6413 33.5297 44.9794C32.3477 44.4829 31.0042 44.9242 29.8694 45.4955C28.7347 46.0668 27.6079 46.7878 26.3235 46.8706C25.2163 46.9415 24.0185 46.5317 23.0493 47.0715C22.3283 47.4655 21.954 48.3047 21.2881 48.7933C20.6223 49.2819 19.7909 49.3725 18.9832 49.4198C18.1777 49.404 17.3761 49.5376 16.6192 49.8138C15.8864 50.1487 15.2796 50.9288 15.4372 51.7207L43.3048 51.437Z" fill="#F5F5F5"/>
<path id="Vector_50" d="M190.951 50.3415C191.18 48.6828 188.84 47.3156 187.078 47.1895C186.239 47.1225 185.368 47.2525 184.573 46.9728C182.851 46.3739 182.161 44.1478 180.483 43.4268C179.226 42.8988 177.78 43.3677 176.563 43.9823C175.345 44.597 174.139 45.3653 172.78 45.4559C171.598 45.5308 170.31 45.0895 169.274 45.6687C168.486 46.0981 168.092 46.9886 167.386 47.5126C166.681 48.0366 165.783 48.1351 164.92 48.1824C164.057 48.2297 163.163 48.2375 162.379 48.6C161.594 48.9625 160.94 49.782 161.106 50.637L190.951 50.3415Z" fill="#F5F5F5"/>
</g>
<g id="freepik--Character--inject-64">
<path id="Vector_51" d="M25.2902 150.477H20.7158V186.792H25.2902V150.477Z" fill="#455A64"/>
<path id="Vector_52" d="M25.294 186.788C25.294 186.788 25.294 186.725 25.294 186.599V186.055C25.294 185.571 25.294 184.873 25.294 183.967C25.294 182.151 25.294 179.527 25.2625 176.268C25.2625 169.748 25.2349 160.686 25.2191 150.477L25.3216 150.58H20.7157L20.8182 150.477C20.7945 166.383 20.7748 180.157 20.763 186.788L20.7157 186.745L24.1081 186.768H24.9906H25.294C25.294 186.768 25.1994 186.768 25.0064 186.768H24.1356L20.7157 186.792H20.6724V186.745C20.6724 180.114 20.6409 166.34 20.6133 150.434L20.7157 150.331H25.3964V150.434C25.3964 160.678 25.361 169.759 25.3531 176.3C25.3531 179.546 25.3295 182.163 25.3216 183.975C25.3216 184.865 25.3216 185.551 25.3216 186.04V186.571C25.2979 186.733 25.294 186.788 25.294 186.788Z" fill="#263238"/>
<g id="Group" opacity="0.3">
<path id="Vector_53" d="M25.2902 151.359H20.7158V152.872H25.2902V151.359Z" fill="black"/>
</g>
<path id="Vector_54" d="M122.612 150.477H118.038V186.792H122.612V150.477Z" fill="#455A64"/>
<path id="Vector_55" d="M122.612 186.788C122.612 186.788 122.612 186.725 122.612 186.599V186.055C122.612 185.571 122.612 184.873 122.612 183.967C122.612 182.151 122.612 179.527 122.581 176.268C122.581 169.748 122.557 160.686 122.537 150.477L122.64 150.58H118.038L118.14 150.477C118.113 166.383 118.093 180.157 118.081 186.788L118.038 186.745L121.43 186.768H122.309H122.612C122.612 186.768 122.518 186.768 122.325 186.768H121.458L118.038 186.792H117.991V186.745C117.991 180.114 117.959 166.34 117.936 150.434L118.038 150.331H122.715V150.434C122.715 160.678 122.683 169.759 122.671 176.3C122.671 179.546 122.648 182.163 122.64 183.975C122.64 184.865 122.64 185.551 122.64 186.04V186.571C122.616 186.733 122.612 186.788 122.612 186.788Z" fill="#263238"/>
<path id="Vector_56" d="M115.441 118.665H110.866V148.936H115.441V118.665Z" fill="#455A64"/>
<path id="Vector_57" d="M115.445 148.933C115.439 148.879 115.439 148.825 115.445 148.771V148.318C115.445 147.924 115.445 147.329 115.445 146.585C115.445 145.068 115.425 142.889 115.413 140.174C115.413 134.745 115.386 127.196 115.37 118.662L115.472 118.764H110.87C111.071 118.559 110.926 118.713 110.969 118.67V123.472C110.969 125.048 110.969 126.581 110.969 128.078C110.969 131.073 110.969 133.902 110.969 136.506C110.949 141.707 110.937 146.005 110.93 148.933L110.878 148.882L114.263 148.909H115.149H115.457H115.165H114.294L110.878 148.937H110.819V148.933C110.819 146.005 110.8 141.707 110.784 136.506C110.784 133.902 110.784 131.073 110.784 128.078C110.784 126.581 110.784 125.046 110.784 123.472V118.674C110.831 118.626 110.681 118.768 110.89 118.563H115.547V118.666C115.547 127.227 115.516 134.82 115.504 140.253C115.504 142.956 115.48 145.127 115.476 146.636C115.476 147.373 115.476 147.948 115.476 148.35C115.476 148.535 115.476 148.685 115.476 148.791C115.476 148.897 115.445 148.933 115.445 148.933Z" fill="#263238"/>
<path id="Vector_58" d="M34.0489 118.665H29.4746V148.936H34.0489V118.665Z" fill="#455A64"/>
<path id="Vector_59" d="M34.0521 148.933C34.0489 148.879 34.0489 148.825 34.0521 148.771C34.0521 148.661 34.0521 148.511 34.0521 148.318C34.0521 147.924 34.0521 147.329 34.0521 146.585C34.0521 145.068 34.0521 142.889 34.0206 140.174C34.0206 134.745 33.993 127.196 33.9773 118.662L34.0797 118.764H29.4778C29.6787 118.559 29.5329 118.713 29.5763 118.67V123.472C29.5763 125.048 29.5763 126.584 29.5763 128.078C29.5763 131.073 29.5763 133.902 29.5763 136.506C29.5763 141.707 29.5448 146.005 29.5369 148.933L29.4857 148.882L32.8701 148.909H33.7566H34.0639H33.7724H32.9016L29.4857 148.937H29.4384V148.933C29.4384 146.005 29.4147 141.707 29.399 136.506C29.399 133.902 29.399 131.073 29.399 128.078C29.399 126.581 29.399 125.046 29.399 123.472V118.674C29.4463 118.626 29.2965 118.768 29.5054 118.563H34.1546V118.666C34.1546 127.227 34.1191 134.82 34.1073 140.253C34.1073 142.956 34.1073 145.127 34.0797 146.636C34.0797 147.373 34.0797 147.948 34.0797 148.35C34.0797 148.535 34.0797 148.685 34.0797 148.791C34.0797 148.897 34.0521 148.933 34.0521 148.933Z" fill="#263238"/>
<path id="Vector_60" d="M124.27 115.21H20.4473V120.056H124.27V115.21Z" fill="#455A64"/>
<path id="Vector_61" d="M124.271 120.056C124.271 120.056 124.271 119.958 124.271 119.761C124.271 119.564 124.271 119.268 124.271 118.87C124.271 118.082 124.271 116.865 124.271 115.21L124.299 115.242L20.4797 115.313L20.5821 115.21V120.056L20.4797 119.954L94.0395 119.997L116.186 120.029H122.199H123.775H124.31H123.786H122.234H116.249L94.1262 120.06L20.4481 120.171H20.3457V115.108H20.4521L124.271 115.183H124.303V115.21C124.303 116.873 124.303 118.086 124.303 118.886C124.303 119.28 124.303 119.576 124.303 119.773C124.303 119.97 124.271 120.056 124.271 120.056Z" fill="#263238"/>
<path id="Vector_62" d="M124.539 122.479H20.7158V127.325H124.539V122.479Z" fill="#455A64"/>
<path id="Vector_63" d="M124.539 127.326C124.539 127.326 124.539 127.227 124.539 127.03C124.539 126.833 124.539 126.538 124.539 126.14C124.539 125.352 124.539 124.134 124.539 122.479L124.566 122.507L20.7511 122.582L20.8536 122.479V127.326L20.7511 127.223L94.2715 127.263L116.418 127.29H122.431H124.007H124.543H124.022H122.47H116.481L94.3582 127.322L20.7196 127.365H20.6172V122.377H20.7275L124.543 122.452H124.574V122.479C124.574 124.142 124.574 125.356 124.574 126.155C124.574 126.549 124.574 126.841 124.574 127.038C124.574 127.235 124.539 127.326 124.539 127.326Z" fill="#263238"/>
<path id="Vector_64" d="M124.539 130.016H20.7158V134.863H124.539V130.016Z" fill="#455A64"/>
<path id="Vector_65" d="M124.539 134.863C124.539 134.863 124.539 134.764 124.539 134.567C124.539 134.37 124.539 134.075 124.539 133.677C124.539 132.889 124.539 131.671 124.539 130.016L124.567 130.044L20.7518 130.119L20.8542 130.016V134.863L20.7518 134.76L94.3155 134.804L116.462 134.835H122.475H124.051H124.587H124.066H122.514H116.525L94.4022 134.867L20.7636 134.91H20.6611V129.914H20.7715L124.587 129.989H124.618V130.02C124.618 131.683 124.618 132.897 124.618 133.696C124.618 134.09 124.618 134.382 124.618 134.583C124.618 134.784 124.539 134.863 124.539 134.863Z" fill="#263238"/>
<path id="Vector_66" d="M124.539 137.554H20.7158V142.4H124.539V137.554Z" fill="#455A64"/>
<path id="Vector_67" d="M124.539 142.4C124.539 142.4 124.539 142.301 124.539 142.104C124.539 141.907 124.539 141.612 124.539 141.214C124.539 140.426 124.539 139.208 124.539 137.553L124.567 137.585L20.7518 137.656L20.8542 137.553V142.4L20.7518 142.297L94.3155 142.34L116.462 142.372H122.475H124.051H124.587H124.066H122.514H116.525L94.4022 142.404L20.7636 142.447H20.6611V137.451H20.7715L124.587 137.526H124.618V137.553C124.618 139.216 124.618 140.43 124.618 141.229C124.618 141.623 124.618 141.919 124.618 142.116C124.618 142.313 124.539 142.4 124.539 142.4Z" fill="#263238"/>
<path id="Vector_68" d="M126.431 146.513H16.21V151.359H126.431V146.513Z" fill="#455A64"/>
<path id="Vector_69" d="M126.43 151.36C126.43 151.36 126.43 151.261 126.43 151.064C126.43 150.867 126.43 150.572 126.43 150.174C126.43 149.386 126.43 148.168 126.43 146.513L126.462 146.541L16.2444 146.616L16.3469 146.513V151.36L16.2444 151.257L94.3273 151.296L117.845 151.328H124.232H125.895C126.269 151.328 126.466 151.328 126.466 151.328H125.906H124.216H117.853L94.3628 151.36L16.2011 151.403H16.0986V146.411H16.205L126.423 146.486H126.45V146.513C126.45 148.176 126.45 149.39 126.45 150.189C126.45 150.583 126.45 150.875 126.45 151.072C126.45 151.269 126.43 151.36 126.43 151.36Z" fill="#263238"/>
<g id="Group_2" opacity="0.3">
<path id="Vector_70" d="M122.614 151.359H118.04V152.872H122.614V151.359Z" fill="black"/>
</g>
<path id="Vector_71" d="M66.8143 90.7465L65.8254 97.1254L63.2801 102.933L59.5095 100.526L58.166 97.1372L57.0431 94.2925C57.0431 94.2925 53.0598 95.2539 51.4719 91.5345C50.7076 89.7379 49.431 85.9082 48.3199 82.4252C47.743 80.6176 47.8687 78.6588 48.672 76.9398C49.4753 75.2207 50.8972 73.8676 52.6539 73.1505L53.0125 73.0008C57.0037 71.6257 60.4 74.2458 61.6608 78.2685L66.8379 90.7544" fill="#A2675F"/>
<path id="Vector_72" d="M57.0381 94.2925C58.7793 93.6138 60.2787 92.4314 61.3445 90.8962C61.3445 90.8962 61.3012 94.0679 57.4281 95.2657L57.0381 94.2925Z" fill="#7A4A45"/>
<path id="Vector_73" d="M50.7504 85.2741C50.8059 85.4143 50.9142 85.5271 51.0519 85.5883C51.1897 85.6494 51.346 85.654 51.4872 85.6011C51.5574 85.5785 51.6224 85.542 51.6782 85.4938C51.7341 85.4456 51.7797 85.3868 51.8124 85.3206C51.8451 85.2545 51.8642 85.1825 51.8686 85.1089C51.8729 85.0352 51.8625 84.9615 51.8379 84.8919C51.7824 84.7518 51.6741 84.6389 51.5363 84.5778C51.3985 84.5166 51.2422 84.512 51.1011 84.5649C51.0309 84.5875 50.9659 84.624 50.9101 84.6722C50.8542 84.7204 50.8086 84.7793 50.7759 84.8454C50.7432 84.9115 50.7241 84.9835 50.7197 85.0572C50.7153 85.1308 50.7258 85.2046 50.7504 85.2741Z" fill="#263238"/>
<path id="Vector_74" d="M49.7499 83.7408C49.8444 83.7841 50.1439 83.3192 50.7034 83.0828C51.2628 82.8464 51.8184 82.9607 51.8499 82.8661C51.8814 82.7715 51.7475 82.7242 51.5111 82.6651C51.1867 82.5892 50.8468 82.6153 50.5379 82.74C50.2385 82.8634 49.986 83.0786 49.8169 83.3546C49.6987 83.5713 49.6908 83.725 49.7499 83.7408Z" fill="#263238"/>
<path id="Vector_75" d="M55.7676 83.036C55.8231 83.1761 55.9313 83.289 56.0691 83.3501C56.2069 83.4113 56.3632 83.4159 56.5044 83.363C56.5749 83.3408 56.6403 83.3046 56.6966 83.2566C56.7529 83.2086 56.7989 83.1497 56.832 83.0836C56.8651 83.0174 56.8845 82.9452 56.8892 82.8714C56.8938 82.7976 56.8835 82.7236 56.859 82.6538C56.8027 82.5143 56.6943 82.4021 56.5568 82.3411C56.4193 82.28 56.2634 82.2749 56.1222 82.3268C56.0516 82.349 55.9863 82.3852 55.93 82.4332C55.8737 82.4812 55.8276 82.54 55.7946 82.6062C55.7615 82.6724 55.742 82.7445 55.7374 82.8183C55.7328 82.8922 55.743 82.9662 55.7676 83.036Z" fill="#263238"/>
<path id="Vector_76" d="M55.4031 81.2235C55.4937 81.2747 55.8246 80.8295 56.4196 80.6679C57.0145 80.5064 57.5425 80.6679 57.6016 80.5773C57.6607 80.4867 57.5188 80.4276 57.2864 80.3409C56.9732 80.2441 56.6382 80.2441 56.325 80.3409C56.0128 80.4307 55.737 80.6169 55.537 80.8728C55.3834 81.0501 55.3597 81.1998 55.4031 81.2235Z" fill="#263238"/>
<path id="Vector_77" d="M55.2388 86.8219C54.8972 86.8506 54.5609 86.9235 54.238 87.0386C54.0844 87.0819 53.9346 87.1095 53.8677 87.0386C53.7916 86.8934 53.7627 86.7281 53.7849 86.5658C53.7849 86.1534 53.777 85.72 53.7613 85.2656C53.7061 83.4256 53.6037 81.9363 53.5328 81.9402C53.4618 81.9441 53.4382 83.4374 53.4934 85.2774C53.4934 85.7305 53.5249 86.1599 53.5367 86.5736C53.5189 86.7885 53.576 87.0029 53.6982 87.1804C53.7405 87.2244 53.7924 87.2579 53.8498 87.2784C53.9072 87.2989 53.9687 87.3059 54.0292 87.2986C54.1199 87.2864 54.2086 87.2626 54.2932 87.2277C54.6238 87.1316 54.9414 86.9953 55.2388 86.8219Z" fill="#263238"/>
<path id="Vector_78" d="M54.3007 78.7728C54.4229 78.9067 54.9666 78.5955 55.6758 78.3788C56.385 78.1621 57.0075 78.1424 57.039 77.9848C57.039 77.902 56.8932 77.7917 56.6135 77.7326C56.2434 77.6676 55.8634 77.6878 55.5023 77.7915C55.1411 77.8953 54.8084 78.08 54.5292 78.3315C54.3204 78.5324 54.2456 78.7097 54.3007 78.7728Z" fill="#263238"/>
<path id="Vector_79" d="M48.9159 81.4797C49.0735 81.5664 49.4124 81.2709 49.8852 81.066C50.358 80.8611 50.8032 80.7942 50.8386 80.6169C50.8386 80.5341 50.7362 80.4317 50.5077 80.3805C50.2105 80.3225 49.9027 80.3612 49.6291 80.4908C49.3502 80.6101 49.1158 80.8141 48.9593 81.0739C48.845 81.2748 48.845 81.4324 48.9159 81.4797Z" fill="#263238"/>
<path id="Vector_80" d="M62.4736 81.1646C62.5288 81.1134 64.7352 79.3482 65.7044 81.9526C66.6737 84.5569 63.8723 84.9864 63.8408 84.9115C63.8093 84.8367 62.4736 81.1646 62.4736 81.1646Z" fill="#A2675F"/>
<path id="Vector_81" d="M64.2648 83.615C64.2648 83.615 64.32 83.615 64.4106 83.6347C64.5343 83.6386 64.655 83.5965 64.7495 83.5165C64.8756 83.3497 64.9551 83.1523 64.9801 82.9447C65.005 82.737 64.9743 82.5265 64.8913 82.3345C64.8146 82.1095 64.688 81.9048 64.5209 81.7356C64.4671 81.663 64.3961 81.6049 64.3143 81.5664C64.2324 81.5279 64.1424 81.5102 64.0521 81.515C63.9947 81.5204 63.9411 81.5459 63.9008 81.587C63.8604 81.6281 63.8358 81.6821 63.8314 81.7396C63.8314 81.8263 63.859 81.8696 63.8314 81.8814C63.8039 81.8932 63.7605 81.8578 63.7408 81.7435C63.7318 81.6736 63.7471 81.6026 63.7842 81.5426C63.8347 81.4612 63.9155 81.4031 64.0087 81.381C64.123 81.3629 64.24 81.374 64.3489 81.4132C64.4577 81.4525 64.5549 81.5187 64.6313 81.6056C64.8242 81.7904 64.9701 82.0188 65.0568 82.2715C65.238 82.7994 65.1513 83.3904 64.8164 83.6387C64.7545 83.6846 64.6832 83.7163 64.6075 83.7312C64.5319 83.7462 64.4539 83.7442 64.3791 83.7253C64.2924 83.6741 64.257 83.6229 64.2648 83.615Z" fill="#7A4A45"/>
<path id="Vector_82" d="M46.1058 78.2212C46.045 77.952 46.0648 77.6709 46.163 77.413C46.2611 77.1551 46.4331 76.9319 46.6574 76.7713C46.4506 76.5745 46.3169 76.313 46.2784 76.0301C46.2399 75.7472 46.2989 75.4595 46.4456 75.2146C46.5924 74.9697 46.8182 74.782 47.0859 74.6825C47.3536 74.583 47.6471 74.5777 47.9182 74.6673C47.8475 74.4742 47.8238 74.2671 47.8489 74.063C47.8741 73.8589 47.9475 73.6638 48.0629 73.4936C48.1784 73.3235 48.3327 73.1833 48.5131 73.0846C48.6934 72.9858 48.8947 72.9314 49.1002 72.9258C48.993 72.7032 48.9644 72.4507 49.0193 72.2097C49.0742 71.9687 49.2093 71.7535 49.4024 71.5993C49.5955 71.4451 49.8353 71.361 50.0825 71.3607C50.3296 71.3605 50.5695 71.4442 50.7629 71.598C50.82 71.3215 50.9385 71.0613 51.1097 70.8367C51.2809 70.6121 51.5005 70.4289 51.7521 70.3007C52.0036 70.1724 52.2809 70.1024 52.5632 70.0958C52.8455 70.0891 53.1257 70.1461 53.383 70.2624C53.8318 69.8829 54.4042 69.6813 54.9917 69.6958C55.5793 69.7103 56.141 69.94 56.5705 70.3412C57.0021 70.199 57.4662 70.1882 57.904 70.3103C58.3417 70.4324 58.7333 70.6817 59.029 71.0267C59.3081 70.9374 59.6058 70.9233 59.8921 70.9857C60.1784 71.0481 60.4432 71.1849 60.6597 71.3823C60.8763 71.5797 61.037 71.8307 61.1256 72.11C61.2142 72.3893 61.2277 72.687 61.1645 72.9731C61.3535 72.9982 61.5342 73.0666 61.6925 73.1728C61.8508 73.2791 61.9826 73.4204 62.0774 73.5858C62.1723 73.7511 62.2278 73.9362 62.2396 74.1265C62.2515 74.3168 62.2193 74.5072 62.1456 74.6831C62.3735 74.7012 62.5917 74.7833 62.7749 74.92C62.9582 75.0567 63.0992 75.2424 63.1815 75.4557C63.2639 75.669 63.2843 75.9012 63.2404 76.1256C63.1966 76.35 63.0902 76.5574 62.9336 76.724C63.3276 76.6137 63.6861 77.051 63.7216 77.4608C63.7037 77.8697 63.6642 78.2774 63.6034 78.6822C63.6034 79.021 63.694 79.352 63.7098 79.6908C63.7224 80.009 63.6655 80.3261 63.543 80.6201C63.4205 80.9141 63.2354 81.1778 63.0006 81.3929L63.0991 81.4441C63.3 81.7436 62.9375 82.1572 62.575 82.1533C62.2147 82.1011 61.8784 81.9419 61.6097 81.6963C61.2545 81.4841 60.9342 81.2183 60.6602 80.9083C60.5262 80.7493 60.4476 80.5511 60.4362 80.3436C60.4249 80.136 60.4814 79.9304 60.5972 79.7578C60.3447 79.7571 60.0968 79.6902 59.8783 79.5636C59.6598 79.4371 59.4784 79.2554 59.3521 79.0368C59.1034 78.5977 58.9365 78.1171 58.8596 77.6184L58.3868 75.4395C57.9145 75.6143 57.4034 75.6563 56.9088 75.5612C56.4143 75.466 55.9553 75.2373 55.5815 74.8998C55.4605 75.0882 55.3007 75.2487 55.1127 75.3706C54.9248 75.4924 54.713 75.5728 54.4916 75.6063C54.2701 75.6399 54.044 75.6259 53.8284 75.5652C53.6128 75.5045 53.4126 75.3985 53.2412 75.2544C53.2633 75.7758 53.0863 76.2861 52.7461 76.6819C52.4059 77.0777 51.9279 77.3294 51.4091 77.3859C51.7282 77.8745 50.9796 78.757 50.5147 79.1116C50.1323 79.3326 49.6882 79.4226 49.25 79.3677C49.25 79.3677 48.5723 80.266 48.001 80.2739C47.4297 80.2818 46.5353 79.9272 46.6456 79.2929C46.3837 78.9832 46.1988 78.616 46.1058 78.2212Z" fill="#263238"/>
<path id="Vector_83" d="M62.2793 74.6205C62.2729 74.7732 62.2325 74.9227 62.1611 75.0578C62.1188 75.1262 62.0612 75.1839 61.9928 75.2263C61.9244 75.2687 61.8472 75.2946 61.7671 75.3021C61.669 75.3137 61.5697 75.2986 61.4795 75.2584C61.3893 75.2182 61.3117 75.1543 61.2549 75.0736L61.1603 74.9318L61.0855 75.0854C61.0202 75.2032 60.925 75.3017 60.8095 75.3709C60.6939 75.4401 60.5621 75.4775 60.4275 75.4794C60.2754 75.4725 60.1291 75.4193 60.0081 75.3271C59.887 75.2349 59.7969 75.108 59.7498 74.9633L59.7065 74.8057L59.5922 74.9199C59.5236 74.9873 59.4423 75.0405 59.353 75.0763C59.2638 75.1122 59.1683 75.13 59.0721 75.1288C58.917 75.1279 58.7663 75.0768 58.6427 74.983C58.4299 74.8214 58.3826 74.652 58.359 74.6599C58.3353 74.6678 58.359 74.8569 58.5678 75.0539C58.7034 75.1817 58.8785 75.2596 59.0642 75.2745C59.1846 75.2826 59.3053 75.2662 59.4191 75.2262C59.5328 75.1863 59.6373 75.1236 59.7262 75.0421L59.5646 74.9987C59.6127 75.1787 59.7152 75.3395 59.858 75.4591C60.0007 75.5788 60.1769 75.6515 60.3625 75.6675C60.5481 75.6834 60.7342 75.6417 60.8952 75.5482C61.0563 75.4546 61.1847 75.3136 61.2628 75.1445H61.0933C61.1718 75.2518 61.2786 75.3351 61.4018 75.3852C61.5249 75.4353 61.6596 75.4502 61.7907 75.4282C61.8905 75.4096 61.9847 75.3683 62.066 75.3075C62.1473 75.2467 62.2135 75.168 62.2596 75.0775C62.4093 74.8057 62.2911 74.6047 62.2793 74.6205Z" fill="#455A64"/>
<path id="Vector_84" d="M63.6732 76.9132C63.6535 76.9132 63.6141 77.0235 63.4447 77.1338C63.3335 77.2105 63.2016 77.2517 63.0664 77.2517C62.9313 77.2517 62.7994 77.2105 62.6882 77.1338L62.6015 77.0629L62.5621 77.1693C62.5131 77.2877 62.4344 77.3916 62.3337 77.4709C62.2329 77.5503 62.1135 77.6024 61.9869 77.6223C61.8403 77.6382 61.6924 77.6089 61.5629 77.5385C61.4334 77.4682 61.3284 77.3599 61.2619 77.2283L61.1831 77.0629L61.0807 77.2126C61.0544 77.2512 61.0225 77.2857 60.9861 77.315C60.9042 77.3826 60.8034 77.4231 60.6975 77.4308C60.5916 77.4386 60.486 77.4133 60.3951 77.3584C60.3147 77.3031 60.2509 77.2269 60.2107 77.138C60.1704 77.0491 60.1552 76.951 60.1666 76.8541L60.1942 76.6571L60.0248 76.7595C59.8303 76.875 59.5986 76.9103 59.3786 76.858C59.2032 76.8188 59.0455 76.7233 58.9294 76.5861C58.8313 76.456 58.7492 76.3144 58.6852 76.1646C58.6759 76.2531 58.6851 76.3426 58.7122 76.4274C58.7393 76.5121 58.7838 76.5904 58.8428 76.6571C58.9626 76.8262 59.1362 76.9498 59.3353 77.0077C59.4657 77.047 59.6027 77.0596 59.7381 77.0447C59.8735 77.0298 60.0045 76.9877 60.1233 76.921L59.9932 76.8304C59.9733 76.9634 59.9912 77.0993 60.0449 77.2226C60.0985 77.3459 60.1857 77.4517 60.2966 77.5278C60.4219 77.6097 60.5699 77.6497 60.7194 77.6419C60.8688 77.6341 61.0119 77.5789 61.128 77.4845C61.18 77.4405 61.2263 77.3902 61.2659 77.3347H61.0846C61.1588 77.4954 61.2793 77.6301 61.4307 77.7217C61.5821 77.8132 61.7574 77.8574 61.9341 77.8485C62.1108 77.8396 62.2807 77.7781 62.4222 77.6717C62.5636 77.5654 62.67 77.4193 62.7276 77.252L62.6015 77.2875C62.6779 77.343 62.7648 77.3825 62.8569 77.4035C62.949 77.4245 63.0444 77.4266 63.1374 77.4096C63.2826 77.3934 63.4197 77.3345 63.5314 77.2402C63.6732 77.055 63.685 76.9132 63.6732 76.9132Z" fill="#455A64"/>
<path id="Vector_85" d="M49.4153 72.7133C49.471 72.6061 49.5458 72.51 49.6359 72.4296C49.6973 72.3785 49.7686 72.3406 49.8453 72.3184C49.922 72.2962 50.0024 72.29 50.0816 72.3004C50.1608 72.3108 50.237 72.3374 50.3054 72.3786C50.3738 72.4198 50.4329 72.4747 50.4791 72.5399L50.5736 72.6699L50.5973 72.5084C50.6252 72.3395 50.6955 72.1804 50.8016 72.046C50.9077 71.9117 51.0462 71.8064 51.204 71.7401C51.3967 71.6656 51.608 71.654 51.8076 71.7071C52.0073 71.7602 52.1849 71.8752 52.3151 72.0356L52.4333 72.1813L52.4806 72.0001C52.533 71.8244 52.6239 71.6626 52.7465 71.5263C52.8692 71.39 53.0206 71.2827 53.1898 71.2121C53.3727 71.1395 53.5709 71.1138 53.7663 71.1371C53.9617 71.1605 54.1481 71.2324 54.3088 71.3461C54.442 71.439 54.5547 71.5583 54.6397 71.6967L54.6988 71.7913L54.7894 71.7243C55.0049 71.5707 55.2656 71.4938 55.5299 71.506C55.7942 71.5181 56.0468 71.6186 56.2472 71.7913C56.415 71.9517 56.5335 72.1567 56.5886 72.3822C56.6438 72.6076 56.6333 72.8442 56.5585 73.0639L56.5033 73.2097L56.6531 73.1742C56.9864 73.1036 57.3341 73.1658 57.6223 73.3476C57.8437 73.4889 58.0158 73.6954 58.1148 73.9386C58.1945 74.1543 58.2359 74.3823 58.2369 74.6123C58.2369 74.6123 58.2685 74.5532 58.2763 74.4311C58.292 74.252 58.2677 74.0717 58.2054 73.9031C58.1125 73.632 57.9342 73.3984 57.6972 73.2373C57.5411 73.13 57.3654 73.0546 57.1802 73.0153C56.9949 72.9761 56.8037 72.9739 56.6176 73.0088L56.7161 73.123C56.8277 72.8511 56.8468 72.5501 56.7704 72.2663C56.6941 71.9825 56.5265 71.7317 56.2936 71.5525C56.0607 71.3734 55.7753 71.2757 55.4814 71.2747C55.1875 71.2737 54.9014 71.3694 54.6673 71.547L54.817 71.5746C54.7148 71.417 54.5806 71.2828 54.423 71.1806C54.2344 71.0462 54.0148 70.9617 53.7848 70.9348C53.5547 70.908 53.3216 70.9396 53.1071 71.0269C52.9099 71.1105 52.7341 71.2376 52.5929 71.3986C52.4517 71.5596 52.3486 71.7504 52.2915 71.9568L52.4609 71.9213C52.3215 71.7481 52.134 71.6199 51.9219 71.553C51.7098 71.4862 51.4827 71.4835 51.2692 71.5454C51.0556 71.6074 50.8651 71.7311 50.7217 71.901C50.5783 72.071 50.4884 72.2795 50.4633 72.5005L50.5815 72.469C50.514 72.3836 50.4277 72.3149 50.3293 72.2684C50.2308 72.222 50.123 72.1989 50.0142 72.2011C49.8537 72.207 49.7009 72.2715 49.5847 72.3823C49.5134 72.4484 49.4593 72.5309 49.4271 72.6226C49.4113 72.6778 49.4113 72.7133 49.4153 72.7133Z" fill="#455A64"/>
<path id="Vector_86" d="M56.9486 86.1961C56.8541 86.2277 57.1102 86.8541 56.7595 87.516C56.4088 88.178 55.7154 88.3828 55.743 88.4735C55.7706 88.5641 55.9439 88.5326 56.2276 88.4262C56.595 88.2805 56.8991 88.0098 57.0865 87.6618C57.2675 87.3277 57.3113 86.9363 57.2087 86.5704C57.1259 86.2868 56.992 86.1725 56.9486 86.1961Z" fill="#263238"/>
<path id="Vector_87" d="M53.1107 97.5431L49.9902 106.333L50.7113 115.947L52.6813 132.554C52.6813 132.554 59.9978 130.084 60.3288 130.332C60.6598 130.58 57.0901 113.496 57.0901 113.496L59.6708 99.5959L59.5053 95.5022L53.1107 97.5431Z" fill="#FDA92B"/>
<path id="Vector_88" d="M53.1107 97.543L49.679 105.423L42.587 108.205L35.1719 110.502L36.212 115.836C36.2635 116.095 36.3675 116.341 36.5177 116.558C36.6678 116.776 36.861 116.96 37.0851 117.099C37.3093 117.239 37.5597 117.331 37.8209 117.37C38.0821 117.409 38.3485 117.394 38.6036 117.326L44.88 115.639L50.727 115.371L53.7687 108.303L53.1107 97.543Z" fill="#FDA92B"/>
<path id="Vector_89" d="M37.5947 108.307L38.1148 107.661C38.6266 107.656 39.1328 107.767 39.5962 107.984C40.2754 108.542 40.7732 109.289 41.0265 110.131C41.0835 110.737 41.0835 111.346 41.0265 111.951L37.4805 108.307" fill="#A2675F"/>
<path id="Vector_90" d="M30.6807 104.477C30.6807 104.584 37.3787 111.68 37.3787 111.68L38.6395 112.925H42.6583L34.8571 104.257L31.4923 103.681L30.6807 104.477Z" fill="#263238"/>
<path id="Vector_91" d="M57.8463 120.242C57.7866 120.164 57.7351 120.081 57.6926 119.993L57.2986 119.261C56.9598 118.622 56.4791 117.685 55.9196 116.503C55.2541 115.136 54.6623 113.736 54.1466 112.306C53.9993 111.89 53.877 111.465 53.7802 111.034C53.7301 110.808 53.6946 110.579 53.6738 110.348C53.6738 110.12 53.6738 109.887 53.6738 109.655C53.6738 108.721 53.6738 107.756 53.7211 106.767C53.7684 105.514 53.8314 104.304 53.9063 103.154V103.095L53.9614 103.071L56.0378 102.157L56.0615 102.338L54.4855 102.129H54.3515L54.4185 102.015C55.4429 100.258 56.2939 98.7883 56.9046 97.7363L57.6099 96.5543L57.8029 96.247C57.8225 96.2092 57.8478 96.1747 57.8778 96.1445C57.8657 96.1847 57.8485 96.2231 57.8266 96.2588L57.6572 96.5819L56.9913 97.7954L54.5721 102.11L54.5052 101.98L56.0812 102.177L56.4161 102.216L56.1087 102.354L54.0402 103.276L54.0993 103.189C54.0284 104.34 53.9654 105.553 53.9181 106.798C53.8826 107.783 53.859 108.745 53.8669 109.674C53.8669 109.907 53.8669 110.135 53.8669 110.364C53.884 110.584 53.9169 110.803 53.9654 111.018C54.0585 111.442 54.1756 111.86 54.316 112.271C54.8716 113.882 55.498 115.289 56.0457 116.467C56.5934 117.645 57.0425 118.583 57.3617 119.225L57.7241 119.974C57.7714 120.06 57.8122 120.149 57.8463 120.242Z" fill="#263238"/>
<path id="Vector_92" d="M34.6311 108.307C34.6311 108.307 33.6146 109.04 33.6422 109.458C33.6424 109.642 33.6874 109.823 33.7732 109.985C33.859 110.148 33.983 110.287 34.1347 110.391C34.3711 110.47 35.0724 110.833 35.0724 110.833C35.0724 110.833 34.4459 111.432 34.6311 112.058C34.6653 112.225 34.7365 112.383 34.8394 112.519C34.9423 112.656 35.0744 112.767 35.226 112.846C35.2405 113.282 35.3284 113.712 35.4861 114.119C35.7254 114.443 36.0787 114.666 36.475 114.741C36.696 115.19 36.9599 115.616 37.263 116.014C37.5674 116.296 37.946 116.486 38.3544 116.561C38.3544 116.561 39.2921 116.668 39.7846 116.329C40.1191 116.161 40.3978 115.899 40.5872 115.576C40.7767 115.254 40.8687 114.883 40.8524 114.509C40.8524 114.509 43.0903 113.39 43.1139 112.818C43.1376 112.247 42.8815 112.066 42.8815 112.066L41.7625 112.271C41.7625 112.271 41.6049 111.676 41.27 111.621C40.9351 111.565 36.8493 112.558 36.8493 112.558C36.8493 112.558 39.631 112.117 39.7098 111.569C39.7886 111.022 39.8122 110.557 39.3946 110.45C38.9769 110.344 36.018 110.667 36.018 110.667L35.8604 110.139C35.8604 110.139 36.6484 110.167 36.6484 109.465C36.6484 108.764 36.2071 108.607 36.2071 108.607L34.6311 108.307Z" fill="#A2675F"/>
<path id="Vector_93" d="M57.8481 96.1362L58.1869 98.8509L56.0869 110.659L58.2185 120.852L69.2662 124.118L73.612 122.243L72.1266 93.6304L68.1788 90.8566L66.6619 89.8362L60.9725 98.449L57.8481 96.1362Z" fill="#FAFAFA"/>
<path id="Vector_94" d="M67.8752 90.6399L70.6332 91.8692L80.4123 93.1851L85.688 120.931L86.3499 124.118L96.4639 139.252C96.5736 139.416 96.6483 139.601 96.6834 139.795C96.7184 139.99 96.713 140.189 96.6676 140.382C96.6221 140.574 96.5375 140.755 96.4191 140.913C96.3007 141.071 96.1509 141.203 95.9793 141.3L87.7053 146.028C87.3978 146.186 87.0432 146.225 86.7089 146.138C86.3747 146.05 86.0842 145.843 85.8929 145.556L75.3612 129.697L70.1447 123.019C70.1447 123.019 67.0203 113.563 66.5987 109.54C66.2705 106.014 66.2705 102.464 66.5987 98.9375C66.843 96.5302 67.8752 90.6399 67.8752 90.6399Z" fill="#FDA92B"/>
<path id="Vector_95" d="M80.3941 93.1853C81.0307 93.5195 81.5836 93.9932 82.0113 94.5711C82.4391 95.149 82.7308 95.816 82.8645 96.5225C83.487 99.8163 85.3624 105.561 86.0677 111.695C87.0527 120.277 84.7439 122.924 83.6564 124.406C82.569 125.887 75.8237 129.031 75.8237 129.031L70.7529 122.278L76.3674 117.676L75.8749 105.758C75.8749 105.758 73.9049 103.047 74.8899 99.0204C75.8749 94.9938 78.7511 92.941 80.4059 93.1853H80.3941Z" fill="#FDA92B"/>
<g id="Group_3" opacity="0.3">
<path id="Vector_96" d="M85.6269 120.706C84.8586 122.787 83.98 124.544 82.1913 125.533C80.2843 126.589 77.6327 128.078 75.8242 129.032L77.1481 131.088C79.2244 130.769 83.0581 128.35 84.3031 126.66C85.5082 124.926 85.9836 122.788 85.6269 120.706Z" fill="black"/>
</g>
<path id="Vector_97" d="M75.7559 106.38C75.7727 106.438 75.7846 106.497 75.7913 106.557C75.815 106.687 75.8426 106.861 75.882 107.081C75.9529 107.558 76.0593 108.236 76.1932 109.107C76.4611 110.88 76.8433 113.441 77.3122 116.593V116.632L77.2807 116.66L70.823 122.349V122.227L75.8977 128.976L75.7716 128.948C77.458 128.097 79.2034 127.175 80.9291 126.155C81.4216 125.859 81.9062 125.564 82.3751 125.245C82.8409 124.945 83.2775 124.602 83.6792 124.22C84.3633 123.372 84.9049 122.418 85.2828 121.395C85.9786 119.443 86.3007 117.376 86.2323 115.304C86.1852 113.425 86.0049 111.551 85.6926 109.698C85.4207 107.952 85.1055 106.337 84.7942 104.867C84.1757 101.924 83.5768 99.5639 83.1591 97.9367C82.9464 97.1487 82.7651 96.5026 82.6666 96.0652C82.6115 95.8564 82.5681 95.6948 82.5406 95.5766C82.5209 95.5219 82.5076 95.465 82.5012 95.4072C82.5012 95.4072 82.5248 95.4624 82.5603 95.5688C82.5957 95.6751 82.643 95.8485 82.706 96.0534C82.8321 96.475 83.0134 97.1054 83.238 97.917C83.6792 99.5403 84.2978 101.896 84.9361 104.836C85.2592 106.305 85.5822 107.925 85.862 109.674C86.1823 111.534 86.368 113.414 86.4175 115.3C86.4935 117.398 86.1727 119.492 85.4719 121.47C85.0847 122.516 84.5298 123.491 83.829 124.358C83.4184 124.754 82.9696 125.107 82.4893 125.414C82.0165 125.733 81.528 126.033 81.0355 126.328C79.2979 127.357 77.5565 128.279 75.8623 129.126L75.7874 129.165L75.7362 129.098L70.6733 122.337L70.6221 122.266L70.6851 122.211L77.1664 116.545L77.1428 116.612C76.6976 113.46 76.3548 110.907 76.0908 109.126C75.9726 108.256 75.878 107.55 75.815 107.097C75.7874 106.873 75.7638 106.703 75.748 106.569C75.7467 106.506 75.7494 106.443 75.7559 106.38Z" fill="#263238"/>
<path id="Vector_98" d="M68.5952 116.573C68.5926 116.481 68.6005 116.388 68.6189 116.298C68.6425 116.101 68.678 115.841 68.7174 115.51C68.8198 114.808 68.9577 113.835 69.1311 112.645C69.4739 110.226 70.0136 106.893 70.5376 103.189C70.7819 101.4 71.0144 99.6983 71.2232 98.146L71.2863 98.2445L69.6157 97.6062L69.4502 97.5432L69.596 97.4486L71.2744 96.3612L71.2429 96.436C71.042 95.0452 70.8804 93.9065 70.7622 93.087C70.715 92.693 70.6716 92.4054 70.644 92.1729C70.6233 92.0665 70.614 91.9582 70.6165 91.8499C70.6491 91.9527 70.6728 92.0582 70.6874 92.1651C70.7268 92.3975 70.7819 92.697 70.8489 93.0752C70.9829 93.8908 71.168 95.0255 71.3926 96.4124V96.4636L71.3532 96.4912L69.6866 97.5944L69.6669 97.4407L71.3453 98.0672L71.4163 98.0948V98.1696C71.2114 99.722 70.9829 101.428 70.7425 103.217C70.2224 106.909 69.659 110.242 69.2768 112.673C69.0798 113.855 68.9183 114.832 68.8001 115.529L68.6622 116.317C68.648 116.405 68.6256 116.49 68.5952 116.573Z" fill="#263238"/>
<path id="Vector_99" d="M78.9063 93.5593C78.93 93.5908 78.4296 93.9533 77.7558 94.6349C77.3646 95.0455 77.0088 95.4884 76.692 95.9588C75.9079 97.1128 75.3713 98.4168 75.116 99.7885C75.0132 100.346 74.9578 100.912 74.9506 101.479C74.9506 102.452 75.0569 103.055 75.0175 103.055C74.9645 102.921 74.93 102.78 74.9151 102.637C74.8814 102.475 74.8578 102.31 74.8442 102.145C74.8197 101.923 74.8065 101.701 74.8048 101.479C74.7898 100.901 74.8307 100.323 74.9269 99.753C75.0539 99.0565 75.2492 98.3742 75.51 97.716C75.7846 97.0626 76.1239 96.4383 76.5226 95.8524C76.8526 95.3778 77.2273 94.9358 77.6416 94.5325C77.7981 94.3771 77.9625 94.2299 78.1341 94.0912C78.2595 93.9815 78.3911 93.8789 78.5281 93.7839C78.6437 93.6927 78.7709 93.6172 78.9063 93.5593Z" fill="#263238"/>
<path id="Vector_100" d="M50.6679 115.379C50.6127 115.379 50.4315 113.473 50.2739 111.109C50.1163 108.745 50.0178 106.83 50.0769 106.822C50.136 106.814 50.3133 108.733 50.4709 111.093C50.6285 113.453 50.7231 115.376 50.6679 115.379Z" fill="#263238"/>
<path id="Vector_101" d="M83.9766 132.774L85.4935 135.871L92.5185 131.376L90.0875 128.622L83.9766 132.774Z" fill="#FDA92B"/>
<path id="Vector_102" d="M83.9766 132.778C84.1096 132.662 84.2504 132.556 84.3981 132.459L85.6353 131.588L90.0323 128.547L90.1033 128.5L90.1584 128.563L92.5973 131.321L92.6761 131.411L92.5736 131.474L92.2663 131.671L85.5329 135.93L85.4619 135.974L85.4304 135.899L84.343 133.598C84.2287 133.346 84.1342 133.141 84.0632 132.979C84.0282 132.912 83.9992 132.843 83.9766 132.77C84.0259 132.838 84.0682 132.911 84.1026 132.987C84.1854 133.149 84.2918 133.354 84.4257 133.602L85.5604 135.836L85.4541 135.808L92.1521 131.474L92.4594 131.277V131.431C91.6005 130.458 90.7809 129.528 90.0323 128.673H90.1584L85.7574 131.608L84.473 132.447L84.1223 132.672L83.9766 132.778Z" fill="#263238"/>
<g id="Group_4" opacity="0.3">
<path id="Vector_103" d="M84.0283 132.912C84.0598 132.972 85.6043 137.668 85.6043 137.668L92.1565 133.019L91.5931 131.99L85.494 135.891L84.0283 132.912Z" fill="black"/>
</g>
<g id="Group_5" opacity="0.3">
<path id="Vector_104" d="M70.8121 93.1658L71.9941 97.0073L70.8121 97.5431L72.3684 98.3075C72.3684 98.3075 69.9177 111.703 69.6104 112.925C69.303 114.146 68.9248 114.54 68.9248 114.54L71.3164 98.1774L69.6458 97.5431L71.3164 96.4438L70.8121 93.1658Z" fill="black"/>
</g>
<path id="Vector_105" d="M44.8919 114.099C44.8609 113.177 44.7113 112.264 44.4467 111.38C44.1172 110.521 43.6803 109.707 43.1465 108.957C43.3708 109.119 43.5632 109.32 43.7138 109.552C44.5159 110.631 44.9583 111.935 44.9786 113.279C44.9992 113.556 44.9698 113.833 44.8919 114.099Z" fill="#263238"/>
<g id="Group_6" opacity="0.3">
<path id="Vector_106" d="M50.0183 106.444C48.8363 109.359 49.2736 112.555 50.6408 115.38C50.428 112.129 50.3019 109.596 50.0183 106.444Z" fill="black"/>
</g>
<path id="Vector_107" d="M67.0187 93.0671C66.9654 93.2058 66.8967 93.3379 66.8138 93.4611L66.2031 94.4816C65.6909 95.3484 65.0211 96.554 64.3395 97.9291C63.8824 98.855 63.4924 99.7415 63.1575 100.49L63.1141 100.6L63.0235 100.529C62.5027 100.114 62.0129 99.6609 61.5578 99.1741C61.3753 98.9992 61.214 98.8035 61.0771 98.591C61.2742 98.7485 61.4598 98.9196 61.6327 99.1032C62.1095 99.5567 62.6092 99.9854 63.1299 100.388L62.9959 100.423C63.2993 99.6627 63.6815 98.7723 64.1385 97.8385C64.7159 96.6601 65.3578 95.5144 66.0612 94.4067C66.3331 93.9812 66.5656 93.6463 66.7311 93.4178C66.8122 93.2896 66.9088 93.1718 67.0187 93.0671Z" fill="#263238"/>
<path id="Vector_108" d="M60.5492 98.5005C60.3943 99.1884 60.1739 99.8599 59.8913 100.506L59.84 100.644L59.7297 100.549L59.6785 100.502C59.1054 100.046 58.6127 99.4974 58.2207 98.8787C58.264 98.8393 58.9141 99.5643 59.7967 100.348L59.8479 100.392L59.6864 100.435C59.9114 99.7641 60.2004 99.1162 60.5492 98.5005Z" fill="#263238"/>
<path id="Vector_109" d="M61.7073 118.661C61.6853 118.601 61.6746 118.537 61.6758 118.472C61.6758 118.319 61.6442 118.137 61.6245 117.917C61.593 117.4 61.5457 116.711 61.4906 115.872C61.3842 114.146 61.2621 111.762 61.1557 109.126C61.0493 106.491 60.9941 104.103 60.9941 102.373C60.9941 101.507 60.9941 100.797 61.0217 100.325C61.0217 100.104 61.0217 99.9305 61.0493 99.769C61.0492 99.7039 61.0571 99.6391 61.0729 99.5759C61.0837 99.6398 61.0837 99.7051 61.0729 99.769C61.0729 99.9187 61.0729 100.104 61.0729 100.325C61.0729 100.841 61.0966 101.53 61.1123 102.369C61.1478 104.099 61.2305 106.483 61.333 109.119C61.4354 111.754 61.5339 114.111 61.6048 115.864C61.6364 116.707 61.66 117.397 61.6797 117.913C61.6797 118.133 61.6797 118.307 61.6797 118.468C61.6949 118.532 61.7041 118.596 61.7073 118.661Z" fill="#263238"/>
<path id="Vector_110" d="M38.6385 171.871L39.6589 181.488C39.6589 181.488 30.2029 185.759 30.2384 187.552L48.9613 186.248L47.9881 171.189L38.6385 171.871Z" fill="#FDA92B"/>
<path id="Vector_111" d="M45.3917 180.275C45.5735 180.321 45.7329 180.431 45.8412 180.584C45.9496 180.737 45.9997 180.924 45.9827 181.11C45.9472 181.296 45.842 181.46 45.6888 181.57C45.5356 181.68 45.3461 181.727 45.1593 181.701C44.9626 181.66 44.789 181.546 44.674 181.381C44.559 181.216 44.5113 181.014 44.5407 180.815C44.5967 180.625 44.7242 180.465 44.8963 180.368C45.0684 180.271 45.2715 180.245 45.4626 180.295" fill="#E0E0E0"/>
<path id="Vector_112" d="M49.0047 186.638L48.9101 185.18L30.9122 186.551C30.9122 186.551 30.1005 186.973 30.2384 187.552L49.0047 186.638Z" fill="#E0E0E0"/>
<path id="Vector_113" d="M39.3474 181.418C39.3474 181.508 39.8163 181.516 40.2891 181.78C40.7619 182.044 41.0259 182.411 41.1047 182.367C41.1835 182.324 41.0141 181.808 40.4388 181.5C39.8636 181.193 39.3238 181.335 39.3474 181.418Z" fill="#263238"/>
<path id="Vector_114" d="M37.4414 182.367C37.4414 182.454 37.8354 182.584 38.1703 182.95C38.5052 183.317 38.6274 183.715 38.718 183.707C38.8086 183.699 38.8322 183.175 38.4028 182.73C37.9733 182.284 37.4375 182.276 37.4414 182.367Z" fill="#263238"/>
<path id="Vector_115" d="M36.493 184.786C36.5757 184.786 36.6703 184.333 36.4024 183.849C36.1345 183.364 35.6892 183.195 35.6577 183.273C35.6262 183.352 35.9059 183.604 36.1226 184.002C36.3393 184.4 36.3984 184.786 36.493 184.786Z" fill="#263238"/>
<path id="Vector_116" d="M39.3598 179.2C39.4031 179.278 39.8129 179.125 40.333 179.121C40.853 179.117 41.2667 179.255 41.3101 179.176C41.3534 179.097 40.9397 178.782 40.329 178.802C39.7183 178.821 39.3086 179.129 39.3598 179.2Z" fill="#263238"/>
<path id="Vector_117" d="M35.3052 133.05L26.6372 137.337C26.6372 137.337 19.364 129.961 17.6855 130.6L25.3922 147.711L39.1822 141.584L35.3052 133.05Z" fill="#FDA92B"/>
<path id="Vector_118" d="M29.7589 142.294C29.7836 142.481 29.7381 142.671 29.6311 142.827C29.5242 142.982 29.3634 143.093 29.1797 143.137C28.9937 143.169 28.8026 143.127 28.6463 143.022C28.49 142.916 28.3804 142.754 28.3405 142.57C28.3111 142.371 28.3588 142.168 28.4738 142.004C28.5888 141.839 28.7624 141.724 28.9591 141.683C29.1529 141.676 29.3421 141.743 29.4884 141.87C29.6347 141.998 29.7272 142.176 29.7471 142.369" fill="#E0E0E0"/>
<path id="Vector_119" d="M25.0387 147.888L26.3744 147.293L18.8529 130.883C18.8529 130.883 18.1792 130.273 17.6709 130.6L25.0387 147.888Z" fill="#E0E0E0"/>
<path id="Vector_120" d="M26.594 137.022C26.5113 137.061 26.661 137.495 26.594 138.027C26.527 138.558 26.2591 138.937 26.3261 139C26.3931 139.063 26.8225 138.72 26.9092 138.074C26.9959 137.428 26.6649 136.967 26.594 137.022Z" fill="#263238"/>
<path id="Vector_121" d="M25.0433 135.559C24.9567 135.559 24.9764 136.005 24.7518 136.446C24.5272 136.887 24.1884 137.139 24.2278 137.234C24.2672 137.328 24.7675 137.155 25.0355 136.6C25.3034 136.044 25.1261 135.536 25.0433 135.559Z" fill="#263238"/>
<path id="Vector_122" d="M22.4376 135.509C22.4376 135.592 22.9223 135.509 23.2847 135.115C23.6472 134.721 23.6512 134.221 23.5645 134.217C23.4778 134.213 23.3438 134.567 23.0405 134.906C22.7371 135.245 22.4061 135.422 22.4376 135.509Z" fill="#263238"/>
<path id="Vector_123" d="M28.6797 136.261C28.6206 136.332 28.9083 136.655 29.0737 137.152C29.2392 137.648 29.2708 138.074 29.3614 138.082C29.452 138.089 29.5938 137.605 29.3614 137.037C29.1289 136.47 28.727 136.19 28.6797 136.261Z" fill="#263238"/>
<path id="Vector_124" d="M39.5373 138.503C38.5999 138.737 37.7494 139.235 37.0872 139.939C36.425 140.642 35.9789 141.521 35.8022 142.471C35.1678 145.808 37.4649 179.373 37.4649 179.373L49.2455 178.427L48.5244 155.812L48.2329 151.249L49.2455 150.461L69.9502 146.817L66.7982 138.259L63.3349 132.231L47.4764 136.171L39.5373 138.503Z" fill="#263238"/>
<path id="Vector_125" d="M78.512 132.849C78.512 132.849 69.9464 120.466 67.4406 118.665C65.376 117.18 62.2713 117.184 60.3486 118.047C58.4258 118.909 28.4346 133.787 28.4346 133.787L32.8355 144.819L61.3848 134.925L65.64 141.623L69.6036 146.872L80.7302 146.958C81.2542 146.958 83.6458 142.23 83.6458 142.23L78.512 132.849Z" fill="#263238"/>
<path id="Vector_126" d="M35.6919 145.059C35.686 145.021 35.686 144.983 35.6919 144.945C35.6919 144.854 35.6919 144.744 35.6919 144.606C35.6919 144.468 35.6919 144.267 35.6919 144.051C35.6919 143.834 35.7432 143.582 35.7747 143.298C35.8062 143.014 35.8968 142.711 35.9599 142.368C35.9953 142.199 36.0662 142.029 36.1214 141.852C36.1786 141.664 36.2497 141.481 36.3342 141.304C36.6989 140.45 37.2801 139.706 38.0205 139.145C38.4518 138.817 38.9429 138.576 39.4665 138.436L41.1725 138.145L44.9273 137.518L53.5362 136.092L61.3532 134.811H61.4162L61.4517 134.866C63.7408 138.44 65.6005 141.564 67.1647 143.582C67.9211 144.602 68.5279 145.414 68.9534 145.981C69.1544 146.253 69.312 146.466 69.4302 146.619L69.5484 146.785L69.5878 146.844C69.5878 146.844 69.5878 146.844 69.5365 146.797L69.4026 146.639L68.9022 146.021C68.4688 145.477 67.8384 144.677 67.0701 143.657C65.4744 141.639 63.5871 138.535 61.2901 134.989L61.3847 135.032L53.5677 136.324L44.9588 137.735L41.2001 138.345L39.5019 138.621C38.9974 138.754 38.5227 138.981 38.1032 139.291C37.3786 139.834 36.806 140.555 36.4405 141.383C36.3532 141.555 36.2807 141.735 36.2238 141.919C36.1579 142.085 36.1014 142.255 36.0544 142.427C35.9718 142.728 35.9061 143.033 35.8574 143.341L35.751 144.086C35.751 144.299 35.7274 144.48 35.7195 144.638C35.7116 144.795 35.7195 144.89 35.6959 144.976C35.6967 145.004 35.6954 145.032 35.6919 145.059Z" fill="#455A64"/>
<path id="Vector_127" d="M65.4714 127.262C65.5011 127.378 65.5156 127.497 65.5147 127.617C65.541 127.941 65.541 128.266 65.5147 128.59C65.4702 129.073 65.3819 129.55 65.2507 130.017C65.0844 130.586 64.8655 131.139 64.5967 131.667C64.3141 132.189 63.9844 132.683 63.6117 133.145C63.3005 133.517 62.9578 133.861 62.5873 134.173C62.3407 134.384 62.0772 134.573 61.7993 134.741C61.7014 134.811 61.5939 134.867 61.4802 134.906C61.4605 134.875 61.8742 134.607 62.4927 134.063C62.8424 133.743 63.1665 133.397 63.462 133.027C63.821 132.57 64.1401 132.084 64.4155 131.573C64.6788 131.055 64.8976 130.516 65.0695 129.961C65.2069 129.508 65.307 129.044 65.3689 128.574C65.4596 127.775 65.432 127.262 65.4714 127.262Z" fill="#455A64"/>
</g>
</g>
</svg>
