<svg width="353" height="275" viewBox="0 0 353 275" fill="none" xmlns="http://www.w3.org/2000/svg">
<path d="M298.588 314.601C297.974 312.172 299.576 309.743 301.37 307.993C303.163 306.242 305.309 304.681 306.248 302.345C307.773 298.582 305.782 293.682 308.366 290.554C309.884 288.712 312.602 288.105 313.944 286.135C314.568 285.044 314.984 283.847 315.172 282.605C316.634 276.352 319.751 270.607 324.195 265.971C324.459 271.555 323.218 277.107 320.601 282.047C319.549 284.024 318.264 285.944 317.904 288.147C317.325 291.733 319.316 295.433 318.405 298.949C317.375 302.973 312.835 305.642 312.595 309.786C312.397 313.316 315.419 316.38 315.186 319.882C314.999 321.378 314.456 322.809 313.605 324.054C310.865 328.544 306.869 331.622 300.84 331.488L293.448 331.707L298.588 314.601Z" fill="#325D42"/>
<path d="M291.952 331.862C291.276 331.963 290.588 331.944 289.919 331.806C289.101 331.68 288.296 331.475 287.518 331.192C286.448 330.81 285.449 330.255 284.56 329.547C284.032 329.109 283.617 328.549 283.353 327.916C283.133 327.2 283.021 326.455 283.021 325.706C283.011 324.906 282.957 324.107 282.859 323.313C282.719 322.47 282.417 321.662 281.969 320.933C281.108 319.394 279.668 317.94 279.216 315.857C278.764 313.775 279.096 311.621 279.449 309.383C279.802 307.145 280.155 304.759 279.315 302.443C278.475 300.128 276.928 298.031 276.138 295.419C275.347 292.806 275.735 289.961 275.58 287.165C275.536 285.748 275.217 284.353 274.641 283.057C274.048 281.743 273.229 280.508 272.587 279.131C271.295 276.307 271.083 273.18 270.737 270.087C270.572 268.529 270.405 266.955 270.236 265.364C270.133 263.764 269.866 262.179 269.438 260.634C268.95 259.073 268.371 257.543 267.701 256.052C267.352 255.279 267.069 254.479 266.854 253.659C266.734 252.816 266.659 251.968 266.628 251.117C266.559 249.408 266.634 247.695 266.854 245.999C267.066 244.297 267.383 242.61 267.56 240.901C267.56 240.795 267.56 240.697 267.56 240.605L267.602 240.266L267.906 240.421C269.468 241.227 270.823 242.382 271.866 243.796C272.879 245.182 273.691 246.703 274.281 248.314C275.495 251.498 275.926 254.824 276.526 258.008C277.126 261.192 277.938 264.312 279.512 266.96C280.317 268.28 281.284 269.487 282.139 270.772C283.048 272.032 283.666 273.479 283.946 275.008C284.37 278.136 282.626 280.875 282.972 283.643C283.136 285.003 283.588 286.312 284.299 287.483C284.963 288.669 285.711 289.771 286.488 290.872C287.245 291.951 287.902 293.097 288.45 294.296C288.965 295.469 289.266 296.724 289.34 298.003C289.502 300.495 289.135 302.86 289.305 305.063C289.499 307.189 290.108 309.256 291.098 311.148C291.98 312.97 292.962 314.615 293.788 316.217C294.198 316.984 294.568 317.771 294.896 318.575C295.187 319.333 295.4 320.118 295.532 320.919C295.734 322.324 295.734 323.751 295.532 325.155C295.333 327.105 294.6 328.961 293.414 330.521C293.235 330.754 293.034 330.969 292.813 331.163C292.667 331.318 292.504 331.455 292.326 331.573C292.051 331.778 291.903 331.869 291.903 331.869C292.421 331.449 292.894 330.975 293.315 330.457C294.461 328.897 295.164 327.055 295.348 325.127C295.524 323.745 295.5 322.344 295.277 320.969C295.148 320.185 294.933 319.418 294.635 318.681C294.306 317.886 293.936 317.108 293.526 316.351C292.693 314.77 291.698 313.125 290.794 311.289C289.775 309.368 289.146 307.264 288.945 305.098C288.761 302.817 289.121 300.452 288.945 298.038C288.899 296.788 288.632 295.557 288.154 294.402C287.607 293.229 286.958 292.106 286.212 291.048C285.471 289.954 284.68 288.853 283.995 287.638C283.245 286.423 282.763 285.06 282.583 283.643C282.245 280.691 283.995 277.938 283.544 275.029C283.268 273.57 282.67 272.19 281.793 270.991C280.96 269.727 279.978 268.52 279.152 267.164C277.493 264.439 276.695 261.255 276.102 258.064C275.509 254.873 275.065 251.569 273.871 248.455C273.297 246.886 272.503 245.405 271.513 244.057C270.519 242.697 269.221 241.587 267.722 240.817L268.061 240.626C268.061 240.725 268.061 240.824 268.061 240.93C267.87 242.652 267.553 244.347 267.355 246.027C267.136 247.698 267.06 249.384 267.129 251.068C267.172 251.887 267.221 252.755 267.341 253.532C267.552 254.322 267.826 255.094 268.16 255.84C268.835 257.349 269.422 258.895 269.918 260.472C270.35 262.042 270.619 263.654 270.723 265.279C270.885 266.875 271.055 268.449 271.217 270.01C271.556 273.116 271.768 276.222 273.017 278.919C273.631 280.261 274.429 281.503 275.058 282.852C275.649 284.188 275.978 285.627 276.025 287.088C276.173 289.912 275.785 292.736 276.54 295.256C277.296 297.777 278.891 299.881 279.696 302.267C280.501 304.653 280.176 307.173 279.809 309.383C279.442 311.593 279.068 313.768 279.534 315.737C280 317.707 281.348 319.168 282.23 320.743C282.689 321.52 282.987 322.382 283.106 323.277C283.202 324.081 283.252 324.89 283.254 325.699C283.251 326.416 283.35 327.129 283.551 327.817C283.796 328.424 284.189 328.96 284.694 329.377C285.558 330.081 286.531 330.639 287.575 331.029C288.341 331.32 289.133 331.54 289.94 331.686C290.436 331.777 290.939 331.826 291.444 331.834L291.952 331.862Z" fill="#1D482D"/>
<path d="M269.099 244.686C269.136 244.754 269.16 244.828 269.17 244.904C269.212 245.081 269.262 245.3 269.332 245.575C269.473 246.154 269.643 247.037 269.911 248.131C270.179 249.225 270.857 250.475 271.422 252C271.987 253.525 272.608 255.276 273.152 257.252C273.695 259.229 274.189 261.418 274.698 263.762C275.136 266.267 275.918 268.699 277.021 270.991C277.621 272.198 278.298 273.42 278.828 274.747C279.351 276.11 279.703 277.533 279.873 278.983C280.227 281.99 280.741 284.976 281.412 287.928L285.493 305.027C286.777 310.266 287.942 314.989 288.917 318.971C289.891 322.953 290.639 326.172 291.183 328.396C291.437 329.483 291.635 330.337 291.776 330.959C291.832 331.234 291.882 331.453 291.917 331.665C291.925 331.742 291.925 331.82 291.917 331.898C291.881 331.829 291.855 331.755 291.839 331.679L291.649 331.015C291.486 330.401 291.253 329.554 290.943 328.474C290.364 326.222 289.531 323.03 288.528 319.098C287.526 315.166 286.326 310.414 284.998 305.183C283.671 299.951 282.4 294.113 280.946 288.048C280.275 285.084 279.761 282.086 279.407 279.068C279.252 277.65 278.917 276.257 278.411 274.924C277.896 273.625 277.232 272.41 276.632 271.196C275.52 268.869 274.74 266.397 274.317 263.853C273.822 261.502 273.356 259.314 272.827 257.351C272.297 255.389 271.74 253.624 271.175 252.106C270.61 250.588 269.996 249.324 269.763 248.187C269.53 247.051 269.375 246.189 269.262 245.596C269.219 245.328 269.184 245.102 269.149 244.926C269.122 244.848 269.106 244.767 269.099 244.686Z" fill="#1D482D"/>
<path d="M290.646 331.877C285.838 328.982 284.503 320.263 286.544 315.038C288.584 309.814 292.135 305.034 292.714 299.45C293.159 295.157 291.775 290.745 292.799 286.551C294.211 280.903 299.739 276.533 299.704 270.709C299.704 267.44 297.847 264.355 298.016 261.093C298.221 257.09 301.313 253.927 303.234 250.411C306.178 245.032 306.403 238.628 307.434 232.599C308.465 226.57 310.809 220.074 316.196 217.13C316.958 222.277 318.314 225.807 317.827 232.768C317.657 235.268 314.727 240.04 314.297 245.519C314.042 248.787 313.859 252.07 313.64 255.346C313.421 258.622 313.209 261.785 312.051 264.75C311.162 267.03 309.743 269.099 309.079 271.457C307.83 275.891 309.411 280.713 308.373 285.21C307.512 289.015 304.843 292.27 304.293 296.146C303.502 301.575 306.989 307.237 305.161 312.384C304.25 314.947 302.125 317.001 301.511 319.649C301.031 321.71 301.511 323.885 301.094 325.96C300.388 329.293 294.034 331.841 290.624 331.608" fill="#1D482D"/>
<path d="M314.834 222.228C314.843 222.324 314.843 222.421 314.834 222.517C314.834 222.736 314.77 223.011 314.721 223.364C314.608 224.106 314.474 225.193 314.22 226.598C313.965 228.003 313.203 229.605 312.603 231.54C312.003 233.474 311.353 235.67 310.795 238.141C310.238 240.612 309.758 243.351 309.256 246.302C308.755 249.253 308.211 252.458 306.729 255.523C306.023 257.062 305.275 258.601 304.696 260.239C304.124 261.926 303.765 263.679 303.63 265.456C303.343 269.216 302.855 272.959 302.168 276.667C300.65 284.278 299.196 291.493 297.883 298.123C296.57 304.752 295.221 310.64 294.169 315.582C293.117 320.524 292.242 324.541 291.642 327.351L290.936 330.549C290.851 330.888 290.787 331.163 290.738 331.375C290.72 331.47 290.691 331.562 290.653 331.65C290.645 331.554 290.645 331.457 290.653 331.361C290.696 331.149 290.745 330.874 290.809 330.528C290.957 329.758 291.162 328.685 291.43 327.316C291.995 324.492 292.842 320.475 293.809 315.511C294.776 310.548 296.054 304.604 297.403 298.024C298.751 291.444 300.142 284.186 301.639 276.582C302.33 272.879 302.825 269.141 303.121 265.385C303.258 263.574 303.623 261.788 304.208 260.069C304.802 258.389 305.578 256.843 306.27 255.318C307.738 252.303 308.268 249.147 308.805 246.21C309.341 243.273 309.821 240.52 310.407 238.042C310.924 235.811 311.553 233.608 312.292 231.441C312.913 229.513 313.704 227.911 313.972 226.555C314.241 225.2 314.417 224.07 314.565 223.336C314.629 222.99 314.686 222.715 314.721 222.503C314.751 222.408 314.788 222.316 314.834 222.228Z" fill="#285338"/>
<path d="M324.76 85.2212L270.32 84.0139C270.32 84.0139 275.34 75.3372 289.319 76.9539C302.676 78.4718 303.481 72.9579 310.308 72.4355C317.135 71.9131 322.684 77.2292 324.76 85.2212Z" fill="#325D42"/>
<path d="M70.1904 114.668H18.8995C18.8995 114.668 23.4321 106.408 36.6343 107.608C49.2505 108.752 49.8859 103.542 56.3034 102.906C62.7209 102.271 68.0583 107.185 70.1904 114.668Z" fill="#325D42"/>
<path d="M196.291 67.8171H145C145 67.8171 149.533 59.5569 162.735 60.7571C175.351 61.9008 175.986 56.6905 182.404 56.0551C188.822 55.4197 194.159 60.3335 196.291 67.8171Z" fill="#325D42"/>
<path d="M293.76 58.2026H254.633C254.633 58.2026 258.093 51.9051 268.167 52.8229C277.783 53.6983 278.27 49.7236 283.163 49.2294C288.055 48.7352 292.129 52.4911 293.76 58.2026Z" fill="#325D42"/>
<path d="M192.127 139.017H153C153 139.017 156.46 132.719 166.534 133.637C176.15 134.513 176.637 130.538 181.53 130.044C186.422 129.549 190.496 133.305 192.127 139.017Z" fill="#325D42"/>
<path d="M70.1406 140.55H44.5481C44.5481 140.55 46.8073 136.427 53.3943 137.02C59.6918 137.592 60.0095 134.994 63.2077 134.676C66.4059 134.359 69.0746 136.816 70.1406 140.55Z" fill="#325D42"/>
<path d="M182.593 166.756H157C157 166.756 159.259 162.633 165.846 163.226C172.144 163.798 172.462 161.2 175.66 160.882C178.858 160.564 181.527 163.021 182.593 166.756Z" fill="#325D42"/>
<path d="M82.9404 69.6962H57.3409C57.3409 69.6962 59.6071 65.5731 66.1941 66.1662C72.4916 66.738 72.8093 64.1399 76.0075 63.8222C79.2057 63.5045 81.8955 65.9614 82.9404 69.6962Z" fill="#376247"/>
<path d="M175.6 85.9015H150C150 85.9015 152.266 81.7785 158.853 82.3715C165.151 82.9434 165.469 80.3453 168.667 80.0276C171.865 79.7099 174.555 82.1668 175.6 85.9015Z" fill="#376247"/>
<path d="M66.822 207.423C66.8729 206.929 67.1056 206.472 67.4749 206.14C67.8443 205.809 68.3237 205.627 68.82 205.629H83.8931C84.1871 205.63 84.4774 205.696 84.743 205.822C85.0086 205.948 85.2429 206.131 85.4292 206.359C85.6155 206.586 85.7491 206.852 85.8204 207.137C85.8918 207.423 85.899 207.72 85.8416 208.009C85.753 208.469 85.5034 208.884 85.1373 209.177C84.7713 209.471 84.3127 209.625 83.8437 209.611H68.8129C68.5346 209.61 68.2595 209.552 68.0052 209.439C67.7508 209.326 67.5227 209.161 67.3355 208.955C67.1482 208.75 67.0058 208.507 66.9174 208.243C66.829 207.979 66.7965 207.7 66.822 207.423Z" fill="#263238"/>
<path d="M57.3407 253.129L75.5484 205.622L79.0078 207.359L61.3649 254.435L57.3407 253.129Z" fill="#263238"/>
<path d="M15.3001 315.879L42.2004 326.568C42.6807 326.759 43.217 326.751 43.6916 326.546C44.1661 326.342 44.5399 325.957 44.7307 325.477L71.4861 258.141C72.497 255.597 72.4558 252.755 71.3717 250.242C70.2876 247.728 68.2493 245.748 65.7053 244.737L54.3678 240.232C51.8238 239.221 48.9824 239.263 46.4688 240.347C43.9551 241.431 41.975 243.469 40.9642 246.013L14.2088 313.349C14.018 313.829 14.0257 314.366 14.2304 314.84C14.435 315.315 14.8198 315.689 15.3001 315.879Z" fill="#FDA92B"/>
<path d="M44.7604 325.784C44.7604 325.784 44.8027 325.642 44.9016 325.374L45.3464 324.181L47.0972 319.599L53.6136 302.789C56.3882 295.694 59.6782 287.257 63.3352 277.874L69.0891 263.168C69.5833 261.898 70.0917 260.613 70.5929 259.314C71.1245 258.043 71.319 256.657 71.1577 255.289C70.984 253.896 70.4376 252.574 69.576 251.465C68.7144 250.356 67.5695 249.5 66.2621 248.986C64.9546 248.473 63.5329 248.322 62.1468 248.549C60.7607 248.776 59.4616 249.373 58.3862 250.277C57.3426 251.173 56.5434 252.32 56.0634 253.609L54.5526 257.471C52.5476 262.568 50.6131 267.482 48.7775 272.17L38.9712 297.049C36.1472 304.109 33.9092 309.835 32.3277 313.81L30.5062 318.363C30.2944 318.865 30.1391 319.26 30.0191 319.542C29.8991 319.825 29.8426 319.938 29.8426 319.938C29.8426 319.938 29.885 319.797 29.9838 319.521L30.4286 318.328C30.831 317.269 31.424 315.73 32.1794 313.753L38.6958 296.943L48.4174 272.029C50.246 267.341 52.1734 262.42 54.1714 257.323C54.6656 256.045 55.1739 254.76 55.6822 253.461C56.1759 252.094 57.015 250.878 58.1179 249.931C59.2507 248.978 60.6195 248.349 62.0801 248.109C63.5407 247.869 65.0389 248.028 66.4168 248.569C67.7946 249.11 69.001 250.012 69.9087 251.181C70.8164 252.35 71.3919 253.743 71.5743 255.212C71.745 256.651 71.5407 258.11 70.9812 259.448L69.4704 263.338C67.4653 268.428 65.5309 273.349 63.6953 278.03C60.01 287.377 56.6847 295.814 53.896 302.874L47.2526 319.641L45.424 324.188C45.2193 324.696 45.0569 325.085 44.9369 325.367C44.8866 325.509 44.8276 325.648 44.7604 325.784Z" fill="#263238"/>
<path d="M46.4964 277.931C46.4399 278.114 42.924 276.724 38.6386 274.839C34.3532 272.954 30.9291 271.266 30.9856 271.09C31.0421 270.913 34.565 272.29 38.8433 274.182C43.1217 276.074 46.5529 277.747 46.4964 277.931Z" fill="#263238"/>
<path d="M70.2889 205.622L73.4306 199.41C73.7827 198.715 74.371 198.17 75.0897 197.871L80.0317 195.809L93.3468 177.75L94.6035 191.58L86.1315 200.327C86.1315 200.327 80.8153 211.525 76.4734 210.953C76.5811 209.944 76.8781 208.964 77.3489 208.065C78.7609 205.622 77.2571 205.622 77.0594 205.636H73.4235L70.2889 205.622Z" fill="#FFBE9D"/>
<path d="M92.0264 196.07C91.6239 196.67 88.334 201.132 88.334 201.132L79.0077 194.348L82.3965 191.036L92.0264 196.07Z" fill="#FDA92B"/>
<path d="M77.3206 208.065C77.3206 208.065 74.8919 209.477 74.5884 210.621V211.327L77.4971 210.903L77.3206 208.065Z" fill="#FFBE9D"/>
<path d="M74.066 209.392C74.4965 209.056 74.8323 208.613 75.0403 208.107C75.134 207.852 75.1295 207.572 75.0277 207.32C74.9259 207.068 74.7341 206.863 74.4896 206.745C73.9883 206.575 73.473 206.935 73.0776 207.295C72.5813 207.74 72.11 208.211 71.6656 208.707C71.4552 208.888 71.2905 209.116 71.185 209.372C71.0794 209.629 71.0361 209.907 71.0584 210.183C71.1237 210.398 71.2537 210.587 71.4307 210.724C71.6076 210.862 71.8228 210.942 72.0468 210.953C72.2722 210.957 72.4963 210.916 72.7051 210.831C72.914 210.746 73.1032 210.619 73.2611 210.458C73.5757 210.141 73.8272 209.768 74.0025 209.357" fill="#FFBE9D"/>
<path d="M71.6021 209.181C72.0327 208.844 72.3684 208.401 72.5764 207.896C72.6701 207.641 72.6656 207.36 72.5638 207.108C72.4621 206.856 72.2702 206.651 72.0257 206.533C71.5245 206.364 71.0091 206.724 70.6137 207.084C70.1175 207.528 69.6461 208 69.2017 208.496C68.9913 208.676 68.8266 208.904 68.7211 209.161C68.6156 209.417 68.5722 209.695 68.5946 209.971C68.6598 210.186 68.7899 210.375 68.9668 210.513C69.1438 210.651 69.359 210.73 69.583 210.741C69.8083 210.745 70.0322 210.704 70.241 210.619C70.4498 210.534 70.6391 210.407 70.7973 210.247C71.1118 209.93 71.3634 209.556 71.5386 209.145" fill="#FFBE9D"/>
<path d="M79.0078 198.577C79.0078 198.492 78.3795 198.52 77.6523 199.148C77.3141 199.561 77.0316 200.017 76.8121 200.504C76.4834 201.095 76.3177 201.762 76.3321 202.438C76.4333 203.103 76.695 203.733 77.0946 204.274C77.3648 204.709 77.5604 205.186 77.6735 205.686C77.7759 206.149 77.8092 206.625 77.7723 207.098C77.8947 206.877 77.9716 206.634 77.9983 206.383C78.0249 206.132 78.0009 205.878 77.9276 205.637C77.8426 205.101 77.6582 204.586 77.384 204.119C77.0252 203.614 76.7839 203.035 76.678 202.424C76.67 201.811 76.8131 201.204 77.0946 200.659C77.2804 200.19 77.5171 199.742 77.8006 199.325C78.0432 199.085 78.319 198.88 78.6195 198.718C78.7462 198.663 78.8758 198.616 79.0078 198.577Z" fill="#EB996E"/>
<path d="M179.479 134.853L189.377 166.496L160.262 196.903L133.582 189.97L179.479 134.853Z" fill="#F5F5F5"/>
<path d="M179.486 134.846L179.26 135.107L178.589 135.898L175.991 138.99L166.312 150.533L133.433 189.857L133.25 190.076L133.525 190.147L148.563 194.058L160.205 197.08H160.311L160.381 197.002L189.483 166.616L189.539 166.552V166.475C186.475 156.781 183.962 148.867 182.218 143.36C181.357 140.635 180.679 138.51 180.213 137.056L179.69 135.418C179.57 135.058 179.514 134.874 179.514 134.874C179.853 135.983 183.333 147.3 189.264 166.559L189.299 166.418L160.162 196.776L160.339 196.727L148.697 193.698L133.659 189.787L133.751 190.083L166.333 150.773L175.977 139.124L178.575 135.968L179.281 135.15L179.486 134.846Z" fill="#263238"/>
<path d="M178.575 155.722C178.205 155.148 177.724 154.654 177.158 154.27C176.593 153.886 175.956 153.62 175.286 153.488C174.615 153.356 173.925 153.361 173.257 153.502C172.588 153.644 171.955 153.918 171.395 154.31C169.574 155.722 168.734 158.384 166.545 159.09C164.964 159.598 163.22 158.857 161.603 159.146C159.69 159.492 158.264 161.264 157.713 163.1C157.162 164.936 157.31 166.962 157.466 168.903L166.933 169.03L178.575 155.722Z" fill="#E0E0E0"/>
<path d="M196.084 137.74L134.733 200.963L159.732 198.428L194.7 161.511L196.084 137.74Z" fill="#F5F5F5"/>
<path d="M196.077 137.74C196.021 138.665 195.512 146.798 194.58 161.504V161.427C185.635 170.845 173.4 183.715 159.57 198.308L159.683 198.252L140.501 200.186L134.683 200.779L134.832 201.09C168.946 165.79 194.693 139.145 196.042 137.74L134.57 200.836L134.217 201.196L134.719 201.146L140.543 200.553L159.718 198.605H159.782L159.831 198.562C173.64 183.941 185.84 171.028 194.757 161.603V161.561C195.604 146.806 196.035 138.665 196.077 137.74Z" fill="#263238"/>
<path d="M172.073 162.867C173.965 165.048 173.69 168.515 172.073 170.922C170.456 173.33 167.787 174.784 165.09 175.822C162.909 176.662 160.219 177.192 158.412 175.709" fill="#E0E0E0"/>
<path d="M175.264 159.429C175.151 159.958 175.815 160.354 176.351 160.304C176.888 160.255 177.382 159.951 177.926 159.923C179.401 159.838 180.206 161.589 181.406 162.443C182.13 162.916 183.01 163.089 183.858 162.924C184.707 162.759 185.458 162.27 185.953 161.561C186.758 160.311 186.736 158.462 188.007 157.692C188.756 157.326 189.613 157.248 190.415 157.473C191.209 157.694 192.035 157.78 192.857 157.727C193.268 157.689 193.652 157.512 193.947 157.224C194.241 156.936 194.427 156.555 194.474 156.146L194.919 155.44L195.964 137.988L175.264 159.429Z" fill="#E0E0E0"/>
<path d="M145.365 199.685C145.051 199.765 144.723 199.779 144.402 199.728C144.082 199.676 143.775 199.56 143.501 199.385C143.227 199.21 142.992 198.982 142.81 198.713C142.628 198.444 142.503 198.14 142.443 197.821C142.364 197.121 142.557 196.417 142.981 195.853C143.405 195.29 144.028 194.911 144.723 194.792C145.973 194.63 147.265 195.357 148.465 194.983C149.834 194.552 150.399 192.964 150.745 191.573C151.091 190.182 151.578 188.594 152.905 188.043C155.101 187.154 157.417 189.97 159.711 189.349C161.413 188.89 162.069 186.843 163.404 185.692C163.944 185.235 164.592 184.923 165.286 184.787C165.981 184.651 166.699 184.695 167.371 184.916C167.982 185.065 168.536 185.389 168.966 185.847C169.396 186.306 169.684 186.88 169.793 187.499L159.662 198.181L145.365 199.685Z" fill="#E0E0E0"/>
<path d="M113.348 123.698C107.439 121.645 101.062 121.356 94.9917 122.865C92.3018 123.536 89.5696 124.651 87.8469 126.826C85.8066 129.396 85.5524 132.897 85.2347 136.166C84.5967 142.815 83.3729 149.395 81.5777 155.828C80.0809 161.18 78.1889 166.418 77.377 171.946C76.5651 177.474 76.9392 183.327 79.7421 188.128C84.0628 195.527 93.2478 198.795 101.812 198.944C106.316 199.014 110.933 198.358 114.929 196.268C118.925 194.178 122.25 190.528 123.225 186.13" fill="#FDA92B"/>
<g opacity="0.5">
<path d="M113.348 123.698C107.439 121.645 101.062 121.356 94.9917 122.865C92.3018 123.536 89.5696 124.651 87.8469 126.826C85.8066 129.396 85.5524 132.897 85.2347 136.166C84.5967 142.815 83.3729 149.395 81.5777 155.828C80.0809 161.18 78.1889 166.418 77.377 171.946C76.5651 177.474 76.9392 183.327 79.7421 188.128C84.0628 195.527 93.2478 198.795 101.812 198.944C106.316 199.014 110.933 198.358 114.929 196.268C118.925 194.178 122.25 190.528 123.225 186.13" fill="black"/>
</g>
<path d="M101.571 130.476C100.644 131.286 99.8208 132.209 99.1215 133.222C98.3946 134.347 97.7573 135.527 97.2153 136.752C96.5514 138.273 95.7897 139.749 94.9349 141.172C94.0563 142.613 92.8461 143.823 91.4049 144.702C90.2002 145.422 88.782 145.699 87.3948 145.485C86.4656 145.352 85.595 144.953 84.8885 144.335C84.7006 144.165 84.5346 143.973 84.3943 143.763C84.2955 143.622 84.2531 143.544 84.2672 143.537C84.2813 143.53 84.5073 143.805 84.9732 144.193C85.6825 144.732 86.5241 145.068 87.4089 145.168C88.7191 145.323 90.0434 145.03 91.1649 144.335C92.5371 143.469 93.6898 142.297 94.5325 140.911C95.3757 139.504 96.1371 138.049 96.8129 136.554C97.3824 135.32 98.0605 134.139 98.8391 133.024C99.3681 132.27 99.9975 131.59 100.71 131.005C100.965 130.781 101.256 130.602 101.571 130.476Z" fill="#E0E0E0"/>
<path d="M89.1674 196.607C89.1493 196.421 89.1493 196.235 89.1674 196.049C89.1674 195.64 89.1674 195.117 89.1674 194.468C89.1674 193.098 89.2662 191.107 89.3721 188.657C89.591 183.715 89.9722 176.966 90.5653 169.496C91.1583 162.027 91.829 155.264 92.3797 150.385C92.6621 147.942 92.9021 145.965 93.0857 144.61C93.1704 143.968 93.2481 143.445 93.3045 143.043C93.3219 142.858 93.3574 142.676 93.4104 142.499C93.4322 142.682 93.4322 142.867 93.4104 143.05C93.3751 143.459 93.3257 143.982 93.2763 144.624C93.1351 146.036 92.9445 148.013 92.7185 150.413C92.2455 155.306 91.6172 162.062 91.0312 169.532C90.4452 177.001 90.0075 183.772 89.711 188.671C89.5627 191.079 89.4427 193.049 89.358 194.475L89.245 196.056C89.2353 196.242 89.2093 196.426 89.1674 196.607Z" fill="#E0E0E0"/>
<path d="M90.9258 166.616C90.9258 166.736 88.2218 166.708 84.9177 166.291C81.6136 165.875 78.9873 165.253 79.0085 165.14C79.0297 165.027 81.6842 165.437 84.9742 165.846C88.2641 166.256 90.9328 166.461 90.9258 166.616Z" fill="#E0E0E0"/>
<path d="M88.7436 166.524C88.9583 166.921 89.0836 167.359 89.1107 167.809C89.1922 168.288 89.2417 168.771 89.2589 169.256C89.2832 169.573 89.2299 169.89 89.1036 170.181C89.0248 170.358 88.8974 170.509 88.7362 170.617C88.575 170.724 88.3866 170.784 88.1929 170.788C88.0827 170.793 87.9729 170.772 87.8724 170.727C87.7718 170.681 87.6833 170.613 87.614 170.527C87.4918 170.374 87.4202 170.186 87.4092 169.991C87.3998 169.684 87.4428 169.379 87.5363 169.087C87.6545 168.603 87.8152 168.131 88.0164 167.675C88.3623 166.92 88.6871 166.517 88.7224 166.545C88.6227 166.975 88.4808 167.393 88.2988 167.795C88.1503 168.24 88.0254 168.692 87.9246 169.15C87.8593 169.402 87.8308 169.661 87.8399 169.92C87.8399 170.16 87.9811 170.308 88.1787 170.308C88.6518 170.308 88.8424 169.736 88.8212 169.228C88.8 168.72 88.8212 168.219 88.7789 167.816C88.7129 167.389 88.7011 166.955 88.7436 166.524Z" fill="#E0E0E0"/>
<path d="M119.171 126.254L90.8059 122.941C87.0919 122.508 84.4326 119.145 84.8663 115.431L85.4812 110.165C85.9149 106.451 89.2772 103.792 92.9913 104.225L121.356 107.538C125.07 107.971 127.73 111.334 127.296 115.048L126.681 120.314C126.247 124.028 122.885 126.687 119.171 126.254Z" fill="#455A64"/>
<path d="M93.467 104.679C93.467 104.679 93.5518 104.622 93.7353 104.566C94.0065 104.488 94.2865 104.445 94.5684 104.438C95.6232 104.443 96.6465 104.798 97.4771 105.448C98.7487 106.343 99.7579 107.562 100.4 108.978C101.118 110.729 101.394 112.63 101.205 114.513C101.102 116.413 100.436 118.239 99.2915 119.759C98.3515 121 97.0601 121.929 95.585 122.427C94.6038 122.765 93.5596 122.881 92.5281 122.766C92.2481 122.735 91.9716 122.679 91.702 122.597C91.5185 122.54 91.4267 122.505 91.4338 122.491C91.4408 122.477 91.8291 122.547 92.5422 122.59C93.5425 122.633 94.5414 122.475 95.4791 122.124C96.8705 121.61 98.0807 120.699 98.9597 119.505C100.03 118.037 100.65 116.291 100.746 114.478C100.94 112.67 100.698 110.842 100.04 109.148C99.4373 107.791 98.4965 106.612 97.3077 105.723C96.5391 105.088 95.5914 104.708 94.5966 104.636C93.8624 104.587 93.4741 104.721 93.467 104.679Z" fill="#263238"/>
<path d="M109.676 106.112L105.299 105.681C106.469 106.039 107.472 106.806 108.123 107.841C108.758 108.871 109.167 110.024 109.323 111.223C110.107 116.257 107.431 121.665 103.132 124.39L106.662 124.856C106.662 124.856 116.758 115.84 109.705 106.112" fill="#263238"/>
<path d="M114.633 115.374C113.505 115.687 112.319 115.73 111.171 115.502C110.023 115.274 108.945 114.78 108.022 114.061C107.099 113.341 106.357 112.415 105.856 111.357C105.355 110.299 105.109 109.139 105.137 107.968C105.187 105.801 106.175 103.584 105.497 101.516C105.031 100.104 103.845 98.9882 103.443 97.555C102.85 95.4017 104.149 93.2343 105.384 91.3846C106.12 90.1555 107.036 89.0441 108.102 88.0875C108.639 87.611 109.274 87.2584 109.962 87.0546C110.65 86.8509 111.375 86.801 112.084 86.9085" fill="#263238"/>
<path d="M134.683 87.0991C134.563 88.737 135.643 90.2055 136.738 91.434C137.832 92.6624 139.039 93.9544 139.279 95.5782C139.696 98.4657 136.872 101.141 137.451 104.001C137.768 105.533 139.018 106.761 139.244 108.307C139.47 109.854 138.658 111.273 137.662 112.409C136.667 113.546 135.46 114.527 134.577 115.727C133.739 117.084 133.03 118.517 132.459 120.006C131.889 121.506 130.852 122.783 129.501 123.649C127.383 124.792 124.446 124.256 122.836 126.028C121.227 127.8 119.363 128.005 117.443 129.297" fill="#263238"/>
<path d="M109.43 89.6053C109.388 88.1227 110.764 86.9719 112.148 86.4283C113.532 85.8847 115.078 85.6729 116.313 84.8398C117.408 84.1338 118.142 82.9618 119.067 82.0158C120.211 80.8624 121.64 80.0332 123.209 79.6129C124.778 79.1926 126.43 79.1962 127.997 79.6233C129.565 80.0505 130.99 80.8858 132.129 82.0442C133.268 83.2025 134.079 84.6423 134.479 86.2165C135.008 88.3345 134.648 90.8408 132.975 92.2528C131.034 93.8837 128.16 93.5236 125.675 93.0153C123.19 92.507 120.38 92.0057 118.304 93.4671C117.055 94.3426 116.342 95.7757 115.572 97.103C114.803 98.4303 113.849 99.7788 112.402 100.273C110.955 100.767 108.992 99.9129 108.936 98.3879" fill="#263238"/>
<path d="M115.325 89.916C114.705 89.9815 114.133 90.278 113.722 90.7464C113.311 91.2147 113.092 91.8207 113.108 92.4435L114.591 126.077C114.654 130.052 120.458 132.283 124.715 132.184C129.007 132.085 129.148 129.974 129.198 126.197C129.29 119.886 129.283 117.514 129.283 117.549C129.283 117.584 134.712 116.638 135.82 109.557C136.371 106.027 136.18 100.259 135.87 95.5429C135.594 91.3069 132.77 86.0895 128.534 86.5414L115.325 89.916Z" fill="#FFBE9D"/>
<path d="M134.528 99.5882C134.532 99.8255 134.442 100.055 134.279 100.227C134.115 100.398 133.89 100.499 133.653 100.506C133.538 100.514 133.423 100.498 133.314 100.461C133.206 100.424 133.105 100.366 133.019 100.29C132.933 100.214 132.863 100.121 132.813 100.018C132.763 99.9142 132.734 99.8018 132.728 99.6871C132.724 99.451 132.813 99.2227 132.975 99.0512C133.137 98.8797 133.36 98.7785 133.596 98.7693C133.712 98.7606 133.827 98.7751 133.937 98.8118C134.046 98.8485 134.148 98.9067 134.234 98.9829C134.321 99.0592 134.392 99.152 134.442 99.256C134.493 99.3599 134.522 99.4729 134.528 99.5882Z" fill="#263238"/>
<path d="M134.626 98.5435C134.513 98.6635 133.821 98.1552 132.847 98.1622C131.873 98.1693 131.153 98.6564 131.047 98.5364C130.941 98.4164 131.11 98.2681 131.421 98.0422C131.837 97.7563 132.328 97.6014 132.833 97.5974C133.339 97.5962 133.833 97.7543 134.245 98.0493C134.577 98.2822 134.683 98.494 134.626 98.5435Z" fill="#263238"/>
<path d="M124.799 99.8353C124.803 100.073 124.713 100.302 124.549 100.474C124.385 100.645 124.16 100.746 123.923 100.753C123.808 100.763 123.693 100.749 123.583 100.713C123.474 100.677 123.373 100.62 123.286 100.544C123.199 100.469 123.128 100.376 123.077 100.273C123.027 100.169 122.998 100.056 122.991 99.9412C122.987 99.7044 123.076 99.4754 123.238 99.3027C123.4 99.13 123.623 99.0273 123.86 99.0163C123.975 99.0077 124.091 99.0221 124.201 99.0587C124.311 99.0953 124.413 99.1534 124.5 99.2296C124.588 99.3058 124.659 99.3986 124.71 99.5025C124.762 99.6065 124.792 99.7196 124.799 99.8353Z" fill="#263238"/>
<path d="M125.018 98.7482C124.905 98.8682 124.22 98.3599 123.239 98.367C122.258 98.374 121.552 98.8612 121.446 98.7412C121.34 98.6211 121.502 98.4729 121.82 98.247C122.233 97.9562 122.727 97.8008 123.232 97.8022C123.739 97.7961 124.235 97.9546 124.644 98.254C124.962 98.4799 125.075 98.6988 125.018 98.7482Z" fill="#263238"/>
<path d="M128.583 105.992C129.098 105.827 129.632 105.727 130.172 105.695C130.419 105.695 130.652 105.625 130.694 105.455C130.72 105.197 130.663 104.938 130.532 104.714L129.784 102.815C129.099 101.214 128.542 99.5611 128.117 97.8727C128.23 97.8303 129.155 99.9907 130.179 102.688C130.433 103.394 130.666 103.994 130.885 104.601C131.045 104.899 131.093 105.245 131.019 105.575C130.983 105.663 130.927 105.742 130.856 105.805C130.785 105.869 130.701 105.916 130.61 105.942C130.472 105.981 130.329 106.002 130.186 106.006C129.653 106.065 129.115 106.06 128.583 105.992Z" fill="#263238"/>
<path d="M129.282 117.549C125.952 117.617 122.667 116.762 119.794 115.078C119.794 115.078 122.138 119.9 129.198 119.222L129.282 117.549Z" fill="#EB996E"/>
<path d="M128.174 108.343C127.986 108.11 127.743 107.929 127.466 107.816C127.19 107.702 126.889 107.66 126.592 107.693C126.377 107.715 126.168 107.779 125.978 107.882C125.788 107.985 125.62 108.125 125.484 108.293C125.354 108.457 125.278 108.656 125.265 108.865C125.252 109.073 125.304 109.28 125.413 109.458C125.571 109.632 125.776 109.755 126.004 109.812C126.232 109.869 126.471 109.856 126.691 109.776C127.154 109.613 127.579 109.358 127.941 109.028C128.052 108.951 128.145 108.853 128.216 108.738C128.255 108.686 128.275 108.623 128.275 108.558C128.275 108.493 128.255 108.43 128.216 108.378" fill="#EB996E"/>
<path d="M125.709 106.669C125.865 106.669 125.872 107.721 126.783 108.47C127.693 109.218 128.823 109.105 128.83 109.253C128.837 109.402 128.576 109.458 128.124 109.472C127.502 109.485 126.896 109.274 126.415 108.879C125.95 108.505 125.651 107.962 125.582 107.368C125.519 106.931 125.667 106.662 125.709 106.669Z" fill="#263238"/>
<path d="M125.456 97.0395C125.364 97.3007 124.382 97.1807 123.239 97.3219C122.095 97.4631 121.163 97.7737 121.015 97.5408C120.944 97.4207 121.107 97.1736 121.481 96.9124C121.976 96.5926 122.54 96.3942 123.126 96.3335C123.712 96.2629 124.307 96.3306 124.863 96.5312C125.286 96.7218 125.498 96.9124 125.456 97.0395Z" fill="#263238"/>
<path d="M134.26 95.7194C134.09 95.9382 133.412 95.7194 132.608 95.7194C131.803 95.7194 131.111 95.8676 130.956 95.6347C130.885 95.5288 130.991 95.3028 131.287 95.091C131.69 94.8374 132.158 94.7093 132.634 94.7232C133.109 94.737 133.569 94.8921 133.956 95.1687C134.238 95.3805 134.337 95.6135 134.26 95.7194Z" fill="#263238"/>
<path d="M110.383 113.207C111.362 113.404 112.373 113.366 113.334 113.095C114.294 112.824 115.177 112.328 115.908 111.648C116.639 110.969 117.198 110.125 117.539 109.187C117.879 108.249 117.992 107.243 117.867 106.253C117.641 104.516 116.709 102.723 117.309 101.099C118.107 98.9245 121.157 98.275 121.969 96.0864C122.434 94.8227 122.011 93.3471 122.547 92.1116C123.084 90.8761 124.27 90.276 125.463 89.8454C126.69 89.5288 127.86 89.0214 128.93 88.3416C129.932 87.565 130.553 86.0965 129.911 85.0093C124.621 85.6394 119.426 86.9003 114.436 88.7652C113.285 89.1959 112.07 89.7183 111.386 90.742C110.701 91.7657 110.68 93.2342 110.757 94.5403L111.647 113.602" fill="#263238"/>
<path d="M106.57 119.095C106.573 118.488 106.698 117.888 106.937 117.33C107.23 116.684 107.639 116.098 108.144 115.6C108.823 114.952 109.594 114.407 110.432 113.983C111.357 113.482 112.423 113.023 113.51 112.402C114.708 111.765 115.718 110.826 116.44 109.677C116.819 109.034 117.023 108.304 117.033 107.559C117.002 106.802 116.896 106.05 116.715 105.314C116.519 104.59 116.468 103.834 116.567 103.09C116.644 102.724 116.801 102.38 117.027 102.082C117.252 101.784 117.542 101.54 117.873 101.367C118.579 100.972 119.285 100.725 120.026 100.386C120.785 100.079 121.426 99.5368 121.855 98.8398C122.212 98.1481 122.396 97.3802 122.392 96.6017C122.392 95.8604 122.392 95.1474 122.392 94.4837C122.375 93.8206 122.47 93.1594 122.674 92.5281C122.88 91.9497 123.253 91.4457 123.747 91.0808C124.703 90.4669 125.771 90.0471 126.889 89.8453C127.835 89.6569 128.739 89.2981 129.557 88.7863C130.175 88.3666 130.627 87.745 130.835 87.0284C130.979 86.5832 130.979 86.1039 130.835 85.6587C130.78 85.5091 130.699 85.3704 130.595 85.2493C130.595 85.2493 130.673 85.3975 130.765 85.687C130.884 86.1165 130.869 86.5722 130.722 86.9931C130.501 87.6598 130.061 88.2321 129.473 88.6169C128.663 89.0937 127.777 89.4258 126.853 89.5982C125.696 89.7915 124.587 90.2114 123.592 90.8337C123.047 91.2315 122.631 91.7818 122.399 92.4152C122.18 93.0801 122.073 93.7767 122.081 94.4767C122.081 95.1827 122.081 95.8887 122.081 96.5947C122.083 97.3159 121.913 98.0273 121.587 98.6703C121.193 99.3064 120.607 99.8009 119.913 100.082C119.207 100.414 118.452 100.654 117.725 101.078C117.36 101.293 117.035 101.57 116.765 101.897C116.506 102.232 116.329 102.624 116.249 103.04C116.143 103.834 116.196 104.64 116.405 105.413C116.583 106.123 116.69 106.849 116.722 107.58C116.719 108.27 116.534 108.947 116.186 109.543C115.499 110.647 114.538 111.554 113.397 112.176C112.338 112.797 111.279 113.27 110.347 113.793C109.495 114.239 108.717 114.813 108.039 115.494C107.527 116.016 107.122 116.632 106.845 117.309C106.672 117.735 106.578 118.19 106.57 118.65C106.561 118.77 106.561 118.89 106.57 119.01C106.556 119.053 106.563 119.095 106.57 119.095Z" fill="#263238"/>
<path d="M127.207 123.952C127.316 124.006 127.433 124.042 127.553 124.058C127.697 124.093 127.843 124.117 127.991 124.129C128.189 124.159 128.39 124.173 128.591 124.171C129.894 124.172 131.165 123.773 132.234 123.027C132.98 122.522 133.607 121.86 134.069 121.086C134.562 120.183 134.883 119.197 135.015 118.177C135.143 117.09 135.453 116.033 135.933 115.05C136.484 114.068 137.507 113.419 138.432 112.579C139.377 111.759 139.994 110.626 140.169 109.388C140.334 108.237 140.102 107.064 139.512 106.062C138.938 105.246 138.444 104.376 138.037 103.464C137.76 102.65 137.657 101.786 137.733 100.93C137.873 99.6748 138.175 98.4433 138.63 97.2655C138.807 96.8343 138.961 96.3936 139.089 95.9453C139.015 96.0424 138.956 96.1494 138.912 96.263C138.814 96.4819 138.665 96.7996 138.496 97.2161C137.981 98.3921 137.637 99.6354 137.472 100.908C137.377 101.805 137.47 102.712 137.747 103.57C138.147 104.504 138.639 105.396 139.216 106.232C139.763 107.169 139.972 108.265 139.809 109.338C139.646 110.493 139.069 111.549 138.185 112.31C137.303 113.115 136.23 113.793 135.622 114.866C135.122 115.886 134.805 116.985 134.683 118.114C134.566 119.101 134.27 120.058 133.808 120.938C133.377 121.683 132.789 122.326 132.085 122.823C131.066 123.563 129.849 123.983 128.591 124.03C127.701 124.051 127.214 123.91 127.207 123.952Z" fill="#263238"/>
<path d="M106.605 90.2056C106.537 90.2875 106.495 90.3886 106.485 90.4951C106.47 90.6476 106.487 90.8017 106.534 90.9475C106.582 91.0934 106.659 91.2278 106.761 91.3423C106.918 91.5304 107.111 91.6845 107.33 91.795C107.548 91.9055 107.787 91.9701 108.032 91.9847C108.663 91.9462 109.276 91.7626 109.825 91.4482C110.458 91.0944 111.162 90.8869 111.886 90.841C112.728 90.8188 113.569 90.8946 114.393 91.0669C115.322 91.2681 116.267 91.3886 117.217 91.427C118.285 91.4694 119.328 91.0889 120.118 90.368C120.828 89.6163 121.392 88.7403 121.784 87.784C122.146 86.927 122.6 86.1126 123.14 85.3554C123.601 84.7359 124.232 84.2644 124.957 83.9985C125.682 83.7327 126.469 83.6841 127.221 83.8587C128.245 84.1311 129.127 84.7854 129.685 85.6872C129.881 86.0242 130.055 86.3731 130.207 86.7321C130.207 86.7321 130.207 86.6262 130.151 86.4285C130.073 86.1422 129.959 85.8669 129.812 85.6095C129.362 84.7779 128.637 84.1282 127.762 83.7715C126.886 83.4148 125.914 83.3732 125.011 83.6539C124.167 83.9172 123.426 84.4381 122.893 85.1436C122.332 85.9171 121.858 86.7506 121.481 87.6287C121.102 88.5418 120.562 89.379 119.885 90.0997C119.166 90.7602 118.214 91.1081 117.238 91.0669C116.307 91.031 115.382 90.9177 114.47 90.728C113.62 90.5594 112.752 90.4931 111.886 90.5304C111.126 90.6055 110.391 90.8465 109.733 91.2364C109.222 91.5465 108.648 91.7394 108.053 91.8012C107.833 91.7944 107.617 91.7441 107.417 91.6532C107.217 91.5623 107.037 91.4326 106.888 91.2717C106.79 91.1735 106.712 91.0568 106.66 90.9282C106.608 90.7997 106.582 90.662 106.584 90.5233C106.605 90.3044 106.662 90.2127 106.605 90.2056Z" fill="#455A64"/>
<path d="M110.608 88.1652C111.776 87.897 112.815 87.2335 113.55 86.2869C114.285 85.3404 114.67 84.169 114.64 82.9711C114.61 81.7732 114.167 80.6224 113.386 79.7137C112.605 78.805 111.534 78.1942 110.354 77.9846C109.797 77.8478 109.212 77.8663 108.665 78.038C108.117 78.2098 107.627 78.5283 107.248 78.9589C106.598 79.8414 106.64 81.1616 105.836 81.8818C105.031 82.6019 103.59 82.3195 102.447 82.5878C101.57 82.8378 100.811 83.3909 100.304 84.1486C99.7971 84.9062 99.5757 85.8193 99.6793 86.7249C99.8232 87.6252 100.201 88.4719 100.774 89.1806C101.348 89.8892 102.098 90.4349 102.948 90.7632C104.671 91.3919 106.555 91.4267 108.3 90.8621C110.03 90.3011 111.674 89.5027 113.185 88.4899" fill="#263238"/>
<path d="M102.101 83.0466C102.169 83.5141 102.345 83.9592 102.617 84.3456C103.204 85.3256 104.018 86.151 104.989 86.7531C105.96 87.3591 107.061 87.7268 108.201 87.8262C108.674 87.8993 109.157 87.8631 109.613 87.7203C109.613 87.6567 109.077 87.7203 108.251 87.565C107.171 87.4009 106.136 87.019 105.208 86.4424C104.283 85.8607 103.483 85.0998 102.857 84.2044C102.37 83.5196 102.158 83.0254 102.101 83.0466Z" fill="#455A64"/>
<path d="M105.843 90.8763C106.753 89.6775 107.894 88.6737 109.199 87.9242C110.504 87.1747 111.946 86.6949 113.439 86.5132C112.994 86.4266 112.536 86.4266 112.091 86.5132C109.905 86.8338 107.922 87.9717 106.542 89.6973C106.23 90.0375 105.991 90.439 105.843 90.8763Z" fill="#FDA92B"/>
<path d="M157.29 167.767L168.734 165.55L166.672 168.48L171.558 170.922L175.646 169.009C175.328 169.844 174.928 170.646 174.452 171.403C173.556 172.892 172.334 174.092 171.586 174.149C171.335 175.18 170.813 176.126 170.075 176.888C169.411 177.55 168.586 178.029 167.681 178.276C166.777 178.524 165.823 178.532 164.914 178.3L157.226 175.519L157.29 167.767Z" fill="#FFBE9D"/>
<path d="M168.832 173.507C169.021 173.743 169.261 173.935 169.533 174.068C169.805 174.201 170.103 174.272 170.406 174.276C170.704 174.338 171.011 174.335 171.307 174.268C171.603 174.201 171.881 174.072 172.122 173.888C172.08 173.782 171.353 174.022 170.449 173.888C169.545 173.754 168.889 173.415 168.832 173.507Z" fill="#EB996E"/>
<path d="M167.322 175.942C167.251 176.013 167.745 176.564 168.592 176.782C168.838 176.878 169.102 176.917 169.364 176.897C169.627 176.878 169.882 176.8 170.11 176.669C170.11 176.564 169.404 176.627 168.698 176.429C167.992 176.232 167.406 175.865 167.322 175.942Z" fill="#EB996E"/>
<path d="M164.448 167.322C164.761 167.548 165.094 167.744 165.443 167.908C166.057 168.254 166.855 168.833 167.752 169.454C168.519 170.011 169.373 170.437 170.279 170.718C170.653 170.859 171.058 170.895 171.451 170.824C171.451 170.767 171.013 170.718 170.357 170.471C169.509 170.123 168.704 169.68 167.956 169.15C167.198 168.598 166.397 168.105 165.563 167.675C165.223 167.473 164.842 167.353 164.448 167.322Z" fill="#EB996E"/>
<path d="M95.027 186.765C95.027 186.765 94.6387 187.012 93.6644 188.742C90.678 194.072 89.4707 206.844 100.724 218.246C115.282 232.973 132.332 257.076 132.332 257.076L145.746 313.669L165.966 309.284L155.545 250.468L126.973 197.461L95.027 186.765Z" fill="#263238"/>
<path d="M72.7244 296.294L103.873 248.625L113.319 207.479L137.38 219.305L125.314 261.065L86.8162 309.016L72.7244 296.294Z" fill="#263238"/>
<path d="M145.732 313.669C145.728 313.573 145.711 313.478 145.683 313.386C145.641 313.189 145.584 312.92 145.514 312.574C145.344 311.868 145.111 310.802 144.808 309.461L142.16 298.038C139.894 288.38 136.766 275.072 133.307 260.373C133.039 259.229 132.77 258.092 132.516 257.033V256.984C123.691 245.688 115.65 235.698 109.733 228.603C106.768 225.073 104.347 222.249 102.631 220.314C101.791 219.347 101.099 218.627 100.64 218.133L100.118 217.575C99.9977 217.448 99.9342 217.384 99.9271 217.391C99.9755 217.464 100.03 217.533 100.09 217.596L100.591 218.175C101.029 218.69 101.699 219.425 102.532 220.406C104.213 222.348 106.599 225.2 109.536 228.765C115.403 235.903 123.409 245.921 132.227 257.21V257.139C132.474 258.198 132.742 259.335 133.017 260.479L141.906 298.101C143.071 302.895 144.024 306.785 144.666 309.496C144.998 310.823 145.252 311.868 145.436 312.588C145.521 312.934 145.591 313.196 145.641 313.393C145.663 313.488 145.693 313.58 145.732 313.669Z" fill="#455A64"/>
<path d="M109.204 201.81C109.348 201.929 109.513 202.021 109.691 202.078C110.158 202.28 110.642 202.439 111.138 202.551C112.789 202.928 114.509 202.877 116.134 202.404C117.76 201.931 119.238 201.051 120.429 199.847C120.788 199.486 121.114 199.094 121.404 198.675C121.601 198.372 121.693 198.195 121.672 198.181C121.651 198.167 121.178 198.802 120.26 199.657C119.06 200.772 117.616 201.592 116.044 202.05C114.471 202.509 112.813 202.593 111.202 202.297C109.952 202.071 109.225 201.754 109.204 201.81Z" fill="#455A64"/>
<path d="M92.0271 189.208C104.213 195.625 123.988 199.459 130.313 196.854L130.532 173.379C130.532 173.379 139.195 159.097 139.23 153.696C139.28 145.93 129.586 128.16 129.586 128.16L115.036 124.256C112.106 124.193 109.207 124.868 106.606 126.219C103.885 127.727 101.67 130.006 100.242 132.77C98.8136 135.534 98.2349 138.658 98.5788 141.751L102.243 165.105L92.0271 189.208Z" fill="#FDA92B"/>
<g opacity="0.3">
<path d="M107.643 126.197C106.796 126.07 106.485 127.447 107.085 128.054C107.685 128.661 108.638 128.689 109.479 128.817C113.27 129.41 116.2 132.657 117.576 136.237C118.953 139.816 119.087 143.727 119.313 147.533C119.539 151.338 119.913 155.299 121.713 158.694C123.394 155.715 124.391 152.398 124.63 148.985C124.869 145.572 124.346 142.148 123.097 138.963C121.849 135.778 119.906 132.91 117.412 130.569C114.917 128.228 111.932 126.472 108.674 125.428" fill="black"/>
</g>
<path d="M106.605 126.219C106.605 126.219 108.723 122.766 115.727 124.263C120.415 125.265 130.666 135.114 127.806 150.936C124.947 166.757 117.28 172.363 117.28 172.363C117.28 172.363 124.34 148.14 120.415 137.571C119.387 134.587 117.553 131.947 115.115 129.943C112.677 127.939 109.732 126.65 106.605 126.219Z" fill="#263238"/>
<g opacity="0.3">
<path d="M130.264 178.364C127.362 179.296 124.58 180.482 121.559 180.863C118.535 181.359 115.434 181.035 112.578 179.924C108.702 178.272 105.822 174.742 104.339 170.795C102.857 166.849 102.652 162.528 103.047 158.327C105.695 161.603 105.377 166.453 107.629 170.019C109.041 172.243 111.336 173.761 113.694 174.961C118.853 177.442 124.543 178.617 130.264 178.385" fill="black"/>
</g>
<path d="M121.537 154.381C121.537 154.381 122.483 172.2 100.745 168.656L98.5567 173.81C98.5567 173.81 121.41 178.639 124.679 159.69L121.537 154.381Z" fill="#263238"/>
<path d="M101.727 132.234C100.812 133.593 100.196 135.131 99.9185 136.746C99.6411 138.36 99.7089 140.016 100.117 141.602L105.532 165.839C107.855 172.659 114.485 176.804 118.608 177.354L157.219 181.442V167.032L121.375 161.709L119.695 142.082C119.547 139.442 118.248 134.698 116.567 132.65C114.689 130.37 111.802 127.264 107.086 128.054C104.198 128.534 102.97 130.462 101.727 132.234Z" fill="#FDA92B"/>
<path d="M100.611 142.548C100.605 142.73 100.617 142.912 100.646 143.092C100.689 143.452 100.752 143.974 100.844 144.652C101.028 146.008 101.31 147.956 101.741 150.357C102.171 152.757 102.722 155.616 103.449 158.758C103.809 160.325 104.198 161.977 104.671 163.7C105.133 165.464 105.767 167.178 106.563 168.819C107.367 170.469 108.473 171.953 109.824 173.196C111.084 174.348 112.513 175.3 114.06 176.02C116.686 177.196 119.49 177.924 122.356 178.173C124.792 178.42 126.768 178.434 128.131 178.448H129.705C129.886 178.465 130.068 178.465 130.249 178.448C130.07 178.416 129.888 178.402 129.705 178.406L128.138 178.343C126.776 178.286 124.799 178.23 122.384 177.947C119.556 177.668 116.794 176.924 114.209 175.744C112.691 175.043 111.289 174.114 110.05 172.991C108.738 171.769 107.661 170.317 106.873 168.706C106.09 167.086 105.464 165.396 105.002 163.658C104.529 161.977 104.134 160.332 103.76 158.765C103.054 155.631 102.433 152.792 101.981 150.399C101.529 148.006 101.197 146.064 100.971 144.751C100.858 144.109 100.774 143.593 100.71 143.205C100.694 142.984 100.661 142.764 100.611 142.548Z" fill="#263238"/>
<path d="M120.338 165.839C120.74 165.185 121.033 164.47 121.206 163.721C121.5 163.018 121.676 162.272 121.729 161.511C121.031 162.86 120.554 164.312 120.317 165.811L120.338 165.839Z" fill="#263238"/>
<path d="M118.142 165.289C118.904 164.931 119.577 164.408 120.111 163.757C120.732 163.19 121.215 162.49 121.523 161.709C120.92 162.272 120.354 162.873 119.829 163.51C119.227 164.063 118.663 164.658 118.142 165.289Z" fill="#263238"/>
<path d="M153.858 166.538L153.696 166.496L153.216 166.404L151.366 166.1L144.497 165.02L121.432 161.533L121.587 161.695C121.46 160.354 121.326 158.942 121.185 157.501C120.726 152.411 120.239 147.561 119.999 143.134C119.832 141.03 119.429 138.951 118.798 136.936C118.292 135.152 117.433 133.488 116.271 132.043C113.984 129.551 111.421 128.231 109.536 127.991C108.816 127.888 108.084 127.902 107.368 128.033C107.128 128.082 106.945 128.139 106.825 128.174L106.641 128.238C107.584 128.021 108.559 127.985 109.515 128.132C111.35 128.407 113.849 129.741 116.073 132.22C117.198 133.642 118.025 135.278 118.502 137.027C119.118 139.022 119.506 141.08 119.66 143.163C119.879 147.589 120.366 152.446 120.825 157.537C120.959 158.949 121.093 160.361 121.227 161.73V161.872H121.368L144.483 165.246L151.366 166.206L153.23 166.453L153.71 166.51L153.858 166.538Z" fill="#263238"/>
<path d="M131.76 178.279C131.859 178.279 132.268 175.024 132.671 170.993C133.073 166.962 133.32 163.672 133.221 163.658C132.789 166.071 132.483 168.505 132.304 170.951C131.997 173.383 131.815 175.829 131.76 178.279Z" fill="#FAFAFA"/>
<path d="M103.492 156.4C104.309 156.47 105.13 156.482 105.949 156.435C107.467 156.435 109.557 156.351 111.872 156.266C114.188 156.181 116.278 156.082 117.789 155.991C118.607 155.977 119.424 155.904 120.231 155.772C119.415 155.692 118.593 155.677 117.775 155.729C116.264 155.729 114.167 155.814 111.858 155.899C109.55 155.984 107.46 156.082 105.942 156.174C105.121 156.184 104.301 156.259 103.492 156.4Z" fill="#FAFAFA"/>
<path d="M128.005 151.79C128.529 151.924 129.067 151.996 129.607 152.002C130.596 152.072 131.973 152.122 133.49 152.093C135.008 152.065 136.385 151.959 137.373 151.846C137.912 151.822 138.446 151.73 138.962 151.571C138.427 151.518 137.887 151.518 137.352 151.571C136.364 151.62 134.994 151.677 133.483 151.705C131.973 151.733 130.603 151.705 129.614 151.705C129.076 151.674 128.537 151.702 128.005 151.79Z" fill="#FAFAFA"/>
<path d="M124.813 135.043C124.87 135.135 126.352 134.337 128.273 133.631C130.193 132.925 131.803 132.495 131.803 132.389C129.293 132.695 126.894 133.606 124.813 135.043Z" fill="#FAFAFA"/>
<path d="M96.7707 179.091C96.868 179.16 96.9751 179.215 97.0884 179.253L98.0203 179.634C98.8251 179.966 100.011 180.404 101.487 180.919C105.337 182.245 109.257 183.362 113.228 184.266C117.198 185.19 121.217 185.897 125.265 186.384C126.818 186.56 128.089 186.68 128.95 186.737L129.953 186.793C130.07 186.812 130.189 186.812 130.306 186.793C130.194 186.754 130.078 186.731 129.96 186.723L128.964 186.596C128.096 186.497 126.846 186.341 125.293 186.13C122.208 185.706 117.951 185.007 113.291 183.948C108.631 182.889 104.515 181.661 101.55 180.693C100.068 180.213 98.8675 179.811 98.0203 179.521L97.0672 179.204C96.972 179.157 96.8728 179.119 96.7707 179.091Z" fill="#FAFAFA"/>
<path d="M99.0724 136.872C99.0724 136.971 103.238 136.922 108.37 136.752C113.503 136.583 117.654 136.371 117.654 136.272C117.654 136.173 113.489 136.223 108.356 136.385C103.224 136.547 99.0724 136.766 99.0724 136.872Z" fill="#FAFAFA"/>
<path d="M148.824 180.376C149.096 178.032 149.247 175.675 149.276 173.316C149.429 170.966 149.458 168.609 149.361 166.256C149.089 168.6 148.938 170.956 148.909 173.316C148.756 175.666 148.727 178.023 148.824 180.376Z" fill="#FAFAFA"/>
<path d="M227.805 108.173C221.519 107.006 215.03 107.688 209.124 110.136C206.505 111.23 203.907 112.776 202.495 115.24C200.815 118.149 201.083 121.735 201.274 125.089C201.643 131.921 201.407 138.772 200.568 145.563C199.862 151.211 198.753 156.859 198.774 162.507C198.796 168.155 200.066 174.099 203.632 178.533C209.131 185.36 218.924 187.28 227.636 186.116C232.211 185.508 236.778 184.139 240.513 181.414C244.248 178.688 247.044 174.488 247.361 169.885" fill="#455A64"/>
<path d="M216.919 116.829C216.105 117.792 215.412 118.852 214.857 119.985C214.284 121.232 213.812 122.524 213.445 123.846C213.005 125.487 212.46 127.097 211.815 128.668C211.142 130.267 210.096 131.681 208.765 132.792C207.655 133.704 206.262 134.203 204.825 134.204C203.871 134.213 202.934 133.946 202.128 133.434C201.913 133.292 201.716 133.124 201.542 132.933C201.422 132.806 201.366 132.728 201.38 132.721C201.394 132.714 201.662 132.954 202.227 133.279C203.026 133.716 203.929 133.926 204.839 133.886C206.19 133.844 207.486 133.346 208.518 132.474C209.773 131.39 210.759 130.03 211.398 128.499C212.04 126.946 212.591 125.357 213.05 123.741C213.44 122.405 213.945 121.105 214.561 119.858C214.984 119.016 215.518 118.235 216.149 117.535C216.364 117.257 216.624 117.019 216.919 116.829Z" fill="#263238"/>
<path d="M214.426 185.678C214.372 185.498 214.337 185.314 214.321 185.127C214.264 184.713 214.193 184.176 214.109 183.517C213.932 182.105 213.699 180.1 213.403 177.601C212.873 172.596 212.238 165.677 211.687 158.024C211.136 150.371 210.805 143.424 210.621 138.39C210.529 135.877 210.473 133.843 210.452 132.438C210.452 131.775 210.452 131.238 210.452 130.822C210.43 130.634 210.43 130.444 210.452 130.257C210.491 130.44 210.513 130.627 210.515 130.815C210.515 131.238 210.579 131.768 210.621 132.431C210.699 133.893 210.805 135.912 210.939 138.376C211.207 143.403 211.602 150.335 212.139 157.989C212.676 165.642 213.276 172.56 213.72 177.566C213.939 180.03 214.116 182.042 214.243 183.496C214.299 184.16 214.342 184.697 214.37 185.113C214.411 185.298 214.43 185.488 214.426 185.678Z" fill="#263238"/>
<path d="M211.638 155.016C211.638 155.136 208.913 155.518 205.503 155.602C202.093 155.687 199.339 155.461 199.346 155.334C199.353 155.207 202.1 155.228 205.488 155.136C208.877 155.045 211.624 154.882 211.638 155.016Z" fill="#263238"/>
<path d="M209.421 155.32C209.697 155.689 209.889 156.112 209.986 156.562C210.139 157.025 210.262 157.496 210.353 157.974C210.431 158.29 210.431 158.619 210.353 158.935C210.299 159.127 210.193 159.3 210.046 159.435C209.898 159.57 209.716 159.661 209.52 159.697C209.409 159.714 209.296 159.706 209.189 159.675C209.081 159.643 208.982 159.588 208.899 159.513C208.748 159.379 208.646 159.197 208.609 158.998C208.56 158.689 208.56 158.375 208.609 158.066C208.659 157.569 208.753 157.078 208.892 156.598C208.975 156.142 209.163 155.711 209.442 155.341C209.415 155.793 209.336 156.241 209.209 156.675C209.125 157.142 209.068 157.614 209.04 158.087C209 158.349 209 158.616 209.04 158.878C209.096 159.118 209.245 159.252 209.435 159.224C209.922 159.139 210.028 158.518 209.929 158.031C209.831 157.544 209.753 157.007 209.668 156.619C209.531 156.198 209.448 155.762 209.421 155.32Z" fill="#263238"/>
<path d="M234.258 109.887L204.714 110.862C200.977 110.985 197.847 108.056 197.724 104.319L197.534 98.5749C197.411 94.8376 200.341 91.708 204.078 91.5847L233.622 90.6098C237.359 90.4865 240.489 93.4161 240.612 97.1534L240.802 102.897C240.925 106.634 237.996 109.764 234.258 109.887Z" fill="#263238"/>
<path d="M204.783 91.9493C204.783 91.9493 204.861 91.8787 205.037 91.794C205.3 91.6713 205.578 91.5857 205.863 91.5398C206.93 91.38 208.019 91.5839 208.956 92.1188C210.377 92.8235 211.584 93.8961 212.45 95.2252C213.446 96.8869 214.016 98.7688 214.109 100.704C214.296 102.644 213.9 104.595 212.973 106.309C212.21 107.71 211.044 108.849 209.626 109.578C208.684 110.068 207.645 110.343 206.583 110.383C206.296 110.395 206.007 110.381 205.722 110.341C205.622 110.338 205.523 110.314 205.433 110.27C205.433 110.228 205.842 110.27 206.569 110.199C207.589 110.095 208.577 109.783 209.471 109.282C210.802 108.551 211.889 107.447 212.599 106.105C213.461 104.456 213.824 102.591 213.643 100.739C213.553 98.878 213.021 97.0653 212.09 95.4511C211.272 94.1716 210.14 93.1238 208.8 92.4082C207.926 91.8734 206.906 91.6264 205.885 91.7022C205.164 91.7799 204.797 91.9917 204.783 91.9493Z" fill="#455A64"/>
<path d="M221.409 90.9326L216.919 91.1585C218.153 91.3475 219.278 91.9739 220.089 92.9235C220.889 93.8686 221.479 94.9733 221.819 96.1641C223.379 101.106 221.494 107.022 217.583 110.432L221.219 110.376C221.219 110.376 230.065 99.7011 221.437 90.9326" fill="#455A64"/>
<path d="M243.352 82.4748C245.187 78.0341 245.286 70.3246 242.483 66.2368C239.68 62.1491 234.428 59.5016 229.606 58.4708C228.812 58.2268 227.964 58.2268 227.17 58.4708C226.784 58.6163 226.466 58.9018 226.28 59.2706C226.095 59.6394 226.054 60.0646 226.168 60.4617C225.231 59.8185 224.193 59.3365 223.097 59.0356C222.545 58.88 221.964 58.863 221.405 58.9862C220.846 59.1094 220.326 59.3689 219.891 59.7416C219.682 59.9334 219.513 60.1653 219.395 60.4235C219.277 60.6818 219.212 60.9612 219.204 61.2451C219.196 61.529 219.245 61.8115 219.349 62.076C219.452 62.3405 219.608 62.5814 219.807 62.7845C219.127 62.5325 218.389 62.486 217.683 62.6509C216.977 62.8157 216.336 63.1845 215.838 63.7114C215.341 64.2383 215.009 64.9 214.885 65.6139C214.761 66.3279 214.849 67.0626 215.14 67.7265C215.8 69.0861 216.716 70.3061 217.837 71.32C218.846 72.2519 219.016 73.2121 218.846 74.5747" fill="#263238"/>
<path d="M242.2 74.3345L243.471 101.501C243.524 102.596 243.353 103.691 242.97 104.718C242.586 105.745 241.998 106.683 241.24 107.475C240.483 108.268 239.572 108.898 238.564 109.327C237.555 109.757 236.47 109.977 235.373 109.973C233.298 109.963 231.306 109.155 229.81 107.718C228.313 106.28 227.426 104.323 227.332 102.25C227.24 100.202 227.155 98.4938 227.134 98.2891C227.134 98.2891 220.187 97.9644 219.368 91.1444C218.973 87.8474 218.705 80.9921 218.542 74.7864C218.456 71.5721 219.584 68.4435 221.701 66.0232C223.818 63.6029 226.768 62.0685 229.965 61.7254L230.622 61.6548C237.753 61.3018 242.045 67.1757 242.2 74.3345Z" fill="#FFBE9D"/>
<path d="M227.092 98.1903C230.251 97.9112 233.255 96.697 235.72 94.7026C235.72 94.7026 234.357 98.9739 227.481 99.094L227.092 98.1903Z" fill="#EB996E"/>
<path d="M220.978 79.1424C221.003 79.3978 221.127 79.6333 221.324 79.7983C221.521 79.9632 221.774 80.0446 222.03 80.0249C222.155 80.0213 222.278 79.9927 222.392 79.9407C222.505 79.8887 222.607 79.8144 222.691 79.7222C222.776 79.63 222.841 79.5218 222.882 79.404C222.924 79.2862 222.941 79.1612 222.934 79.0365C222.909 78.7824 222.786 78.548 222.59 78.3832C222.395 78.2185 222.144 78.1362 221.889 78.154C221.764 78.1585 221.641 78.1878 221.528 78.24C221.414 78.2922 221.312 78.3665 221.228 78.4584C221.143 78.5503 221.077 78.658 221.034 78.7754C220.992 78.8928 220.973 79.0176 220.978 79.1424Z" fill="#263238"/>
<path d="M220.35 77.9777C220.485 78.0906 221.162 77.4693 222.214 77.3564C223.266 77.2434 224.085 77.6882 224.184 77.547C224.283 77.4058 224.092 77.2646 223.725 77.0599C223.238 76.7956 222.681 76.6871 222.13 76.7492C221.583 76.8067 221.069 77.0367 220.661 77.4058C220.365 77.66 220.273 77.9282 220.35 77.9777Z" fill="#263238"/>
<path d="M231.335 78.366C231.36 78.6202 231.484 78.8545 231.679 79.0193C231.874 79.1841 232.126 79.2663 232.38 79.2485C232.505 79.244 232.628 79.2148 232.741 79.1625C232.855 79.1103 232.957 79.0361 233.042 78.9442C233.126 78.8523 233.192 78.7445 233.235 78.6271C233.278 78.5097 233.297 78.385 233.291 78.2601C233.268 78.0053 233.145 77.7698 232.949 77.6047C232.754 77.4396 232.501 77.358 232.246 77.3776C232.121 77.3802 231.997 77.4082 231.883 77.4598C231.768 77.5114 231.665 77.5855 231.58 77.6778C231.495 77.7702 231.43 77.8787 231.388 77.9969C231.346 78.1152 231.328 78.2407 231.335 78.366Z" fill="#263238"/>
<path d="M230.686 77.0598C230.82 77.1728 231.498 76.5515 232.55 76.4385C233.602 76.3256 234.428 76.7704 234.526 76.6292C234.625 76.488 234.428 76.3538 234.067 76.142C233.577 75.8784 233.018 75.7701 232.465 75.8314C231.919 75.8922 231.406 76.1217 230.996 76.488C230.707 76.7704 230.622 77.0104 230.686 77.0598Z" fill="#263238"/>
<path d="M227.714 85.2565C227.143 85.1382 226.559 85.0955 225.977 85.1294C225.709 85.1294 225.448 85.1294 225.384 84.9318C225.329 84.6582 225.361 84.3742 225.476 84.1199L226.048 82.0019C226.838 78.9802 227.375 76.5021 227.255 76.4739C227.135 76.4456 226.394 78.8672 225.603 81.896C225.419 82.602 225.236 83.3503 225.066 84.014C224.942 84.3584 224.942 84.7356 225.066 85.08C225.114 85.1712 225.182 85.25 225.265 85.3101C225.349 85.3702 225.445 85.4099 225.546 85.426C225.699 85.4465 225.853 85.4465 226.005 85.426C226.58 85.4443 227.154 85.3873 227.714 85.2565Z" fill="#263238"/>
<path d="M230.862 85.6519C230.693 85.6519 230.813 86.7956 229.923 87.7134C229.033 88.6312 227.805 88.6312 227.805 88.7936C227.805 88.956 228.094 88.9842 228.61 88.9419C229.279 88.8809 229.905 88.5829 230.375 88.1017C230.825 87.6441 231.079 87.0283 231.081 86.3861C231.116 85.9061 230.961 85.6378 230.862 85.6519Z" fill="#263238"/>
<path d="M229.973 72.979C230.107 73.2544 231.138 72.979 232.388 73.0214C233.637 73.0638 234.668 73.2614 234.802 73.0214C234.859 72.8873 234.661 72.6401 234.23 72.4072C233.659 72.1184 233.027 71.9707 232.388 71.9765C231.749 71.9704 231.118 72.113 230.545 72.3931C230.114 72.5978 229.91 72.8449 229.973 72.979Z" fill="#263238"/>
<path d="M220.406 74.8993C220.618 75.1182 221.31 74.7934 222.178 74.6875C223.047 74.5816 223.802 74.6875 223.943 74.4051C224.007 74.2781 223.866 74.0521 223.52 73.8615C223.062 73.6449 222.55 73.5669 222.049 73.6372C221.547 73.7074 221.077 73.9228 220.696 74.2569C220.385 74.5322 220.314 74.7934 220.406 74.8993Z" fill="#263238"/>
<path d="M242.158 79.4531C242.271 79.3895 246.698 77.561 247.058 82.2418C247.418 86.9225 242.631 86.3224 242.617 86.1883C242.603 86.0542 242.158 79.4531 242.158 79.4531Z" fill="#FFBE9D"/>
<path d="M243.937 84.3035C243.937 84.3035 244.022 84.3529 244.17 84.4094C244.366 84.485 244.582 84.485 244.778 84.4094C245.066 84.1943 245.292 83.9063 245.432 83.575C245.572 83.2437 245.622 82.8811 245.575 82.5243C245.556 82.122 245.447 81.729 245.258 81.3736C245.202 81.2316 245.114 81.105 245 81.0043C244.886 80.9035 244.749 80.8317 244.601 80.7946C244.505 80.7767 244.406 80.793 244.321 80.8407C244.236 80.8885 244.17 80.9646 244.135 81.0559C244.079 81.19 244.135 81.2818 244.093 81.2888C244.05 81.2959 243.987 81.2182 244.008 81.0276C244.027 80.9093 244.084 80.8004 244.17 80.717C244.293 80.6088 244.452 80.553 244.615 80.5617C244.81 80.5854 244.996 80.6589 245.154 80.7752C245.312 80.8914 245.438 81.0464 245.519 81.2253C245.751 81.6151 245.882 82.0568 245.9 82.5102C245.957 82.9256 245.89 83.3487 245.706 83.7257C245.523 84.1028 245.232 84.4169 244.869 84.6282C244.746 84.675 244.613 84.6936 244.481 84.6826C244.349 84.6716 244.221 84.6313 244.107 84.5647C243.959 84.4164 243.923 84.3105 243.937 84.3035Z" fill="#EB996E"/>
<path d="M214.857 66.1733C214.773 72.2873 222.447 74.25 225.447 70.607C226.859 68.9197 228.024 66.8511 230.036 65.9898C230.725 65.7223 231.46 65.5951 232.198 65.6157C232.937 65.6363 233.663 65.8043 234.336 66.1098H234.378C236.383 66.9641 237.697 69.1103 238.163 71.2424C238.805 74.2147 238.53 76.8904 239.518 79.5944C239.62 79.9998 239.853 80.3599 240.182 80.6181C240.775 80.9782 241.594 80.5616 241.996 80.0039C242.613 79.057 242.94 77.9501 242.935 76.8198C243.153 74.2649 242.86 71.6922 242.074 69.2515C241.276 66.8043 239.779 64.6445 237.767 63.0387C235.174 61.1249 231.939 60.2922 228.744 60.716C225.56 61.1608 222.596 62.5958 220.272 64.8178C219.149 65.7955 218.288 67.038 217.766 68.4325" fill="#263238"/>
<path d="M219.567 62.4527C219.347 62.4234 219.124 62.4501 218.917 62.5304C218.343 62.7227 217.834 63.0725 217.449 63.54C216.853 64.2196 216.505 65.0804 216.46 65.9827C216.452 67.0959 216.857 68.1726 217.597 69.0044C218.308 69.836 219.237 70.4522 220.28 70.7835C221.119 71.0522 221.997 71.1787 222.878 71.1577C223.466 71.147 224.051 71.0856 224.629 70.9741C224.846 70.9533 225.057 70.891 225.25 70.7906C225.25 70.727 224.339 70.9318 222.885 70.9035C222.035 70.8872 221.192 70.742 220.386 70.4729C219.411 70.1393 218.544 69.552 217.872 68.7714C217.191 68.0067 216.81 67.021 216.799 65.9968C216.821 65.1607 217.116 64.3548 217.639 63.7023C217.989 63.2555 218.449 62.9075 218.974 62.6928C219.334 62.5092 219.567 62.488 219.567 62.4527Z" fill="#455A64"/>
<path d="M222.532 60.0663C222.532 60.0663 222.355 60.0239 222.087 60.1793C221.907 60.2972 221.756 60.4533 221.644 60.6363C221.532 60.8194 221.461 61.0249 221.437 61.2383C221.392 61.8662 221.566 62.4904 221.932 63.0033C222.317 63.6336 222.793 64.2044 223.344 64.6977C224.347 65.6025 225.56 66.2431 226.874 66.5615C227.405 66.7267 227.965 66.7796 228.519 66.7168C228.519 66.6462 227.897 66.618 226.944 66.3144C225.707 65.9365 224.568 65.2932 223.605 64.4294C223.076 63.9586 222.608 63.4224 222.214 62.8338C221.874 62.3848 221.69 61.8368 221.692 61.2736C221.703 61.0875 221.752 60.9056 221.834 60.7384C221.917 60.5712 222.031 60.422 222.172 60.2993C222.39 60.1299 222.539 60.0946 222.532 60.0663Z" fill="#455A64"/>
<path d="M242.384 126.776L240.189 110.722L271.74 117.076L300.453 107.1L308.212 115.078L277.656 130.815C274.931 132.116 271.86 132.51 268.895 131.937L242.384 126.776Z" fill="#FFBE9D"/>
<path d="M300.453 107.1C300.453 107.1 311.431 101.847 312.137 101.664C312.681 101.523 320.969 101.085 324.746 100.887C325.042 100.885 325.329 100.993 325.549 101.191C325.769 101.389 325.907 101.662 325.937 101.956C325.966 102.251 325.884 102.546 325.707 102.783C325.529 103.02 325.27 103.183 324.979 103.238H324.838C322.72 103.415 318.089 104.474 318.089 104.474L320.207 109.416C320.309 109.661 320.327 109.933 320.256 110.189C320.186 110.445 320.032 110.67 319.818 110.828L313.429 115.551C312.592 115.931 311.67 116.085 310.756 115.995C309.841 115.906 308.966 115.577 308.219 115.043L305.395 115.621L300.453 107.1Z" fill="#FFBE9D"/>
<path d="M320.228 109.726C320.03 110.651 317.827 112.55 316.154 112.55C315.785 112.556 315.426 112.428 315.144 112.19C315.011 112.065 314.917 111.903 314.876 111.724C314.834 111.546 314.847 111.359 314.911 111.188C315.029 110.977 315.196 110.798 315.398 110.665L319.112 107.75" fill="#FFBE9D"/>
<path d="M319.112 107.75C318.559 108.045 318.036 108.395 317.552 108.794L315.921 110.016C315.61 110.256 315.3 110.461 314.961 110.771C314.863 110.862 314.785 110.971 314.73 111.092C314.676 111.213 314.646 111.344 314.643 111.477C314.642 111.734 314.729 111.983 314.89 112.183C315.052 112.366 315.255 112.509 315.481 112.601C315.708 112.693 315.952 112.731 316.196 112.713C316.618 112.691 317.033 112.591 317.418 112.416C318.057 112.141 318.646 111.762 319.161 111.294C319.513 110.983 319.815 110.622 320.058 110.221C320.22 109.924 320.227 109.726 320.206 109.726C320.185 109.726 320.129 109.889 319.938 110.143C319.662 110.497 319.344 110.817 318.992 111.096C318.477 111.514 317.904 111.854 317.29 112.106C316.939 112.253 316.563 112.337 316.182 112.353C315.996 112.367 315.809 112.338 315.635 112.27C315.462 112.202 315.306 112.095 315.18 111.957C315.066 111.828 315.004 111.663 315.004 111.491C315.004 111.32 315.066 111.154 315.18 111.025C315.448 110.771 315.808 110.524 316.09 110.319L317.7 108.999C318.214 108.634 318.687 108.216 319.112 107.75Z" fill="#EB996E"/>
<path d="M311.346 112.579C311.346 112.579 311.593 112.452 311.819 112.099C312.114 111.63 312.28 111.092 312.299 110.538C312.328 109.989 312.214 109.442 311.968 108.95C311.77 108.576 311.572 108.399 311.537 108.427C311.775 109.109 311.909 109.824 311.932 110.545C311.843 111.249 311.645 111.935 311.346 112.579Z" fill="#EB996E"/>
<path d="M315.752 110.044C315.599 110.331 315.353 110.557 315.053 110.683C314.754 110.81 314.42 110.829 314.108 110.737C313.796 110.646 313.525 110.45 313.341 110.182C313.157 109.915 313.071 109.592 313.097 109.268C313.16 108.874 313.303 108.498 313.516 108.161C313.73 107.825 314.01 107.536 314.34 107.312L317.086 104.827" fill="#FFBE9D"/>
<path d="M317.086 104.799C316.67 105.042 316.283 105.333 315.935 105.667L314.756 106.677C314.242 107.083 313.769 107.54 313.344 108.039C313.126 108.324 312.98 108.659 312.921 109.013C312.865 109.356 312.93 109.708 313.104 110.009C313.24 110.264 313.444 110.475 313.693 110.62C313.943 110.765 314.228 110.837 314.516 110.828C314.894 110.81 315.252 110.651 315.519 110.383C315.702 110.192 315.745 110.051 315.73 110.044C315.716 110.037 315.617 110.136 315.427 110.277C315.16 110.47 314.838 110.571 314.509 110.567C314.278 110.559 314.053 110.489 313.858 110.365C313.663 110.241 313.505 110.067 313.401 109.861C313.281 109.6 313.241 109.31 313.283 109.027C313.326 108.744 313.45 108.479 313.641 108.265C314.047 107.792 314.488 107.351 314.961 106.945L316.09 105.872C316.47 105.561 316.804 105.2 317.086 104.799Z" fill="#EB996E"/>
<path d="M311.042 104.382C313.258 104.911 315.372 105.796 317.305 107.001C317.428 107.062 317.526 107.164 317.58 107.291C317.637 107.474 317.495 107.651 317.347 107.771C316.739 108.183 315.998 108.351 315.271 108.244C314.556 108.13 313.835 108.054 313.111 108.018C311.854 108.018 310.697 108.646 309.482 108.985C308.268 109.324 306.799 109.31 305.952 108.364" fill="#FFBE9D"/>
<path d="M305.967 108.364C305.967 108.364 305.967 108.435 306.079 108.533C306.213 108.678 306.368 108.802 306.538 108.9C307.185 109.252 307.928 109.384 308.656 109.275C309.693 109.096 310.71 108.817 311.692 108.442C312.261 108.264 312.855 108.183 313.45 108.202C314.071 108.237 314.714 108.392 315.42 108.435C316.124 108.517 316.834 108.347 317.425 107.954C317.596 107.845 317.722 107.677 317.778 107.481C317.806 107.359 317.785 107.23 317.721 107.121C317.666 107.037 317.594 106.965 317.51 106.91C317.234 106.733 316.98 106.592 316.719 106.444C315.815 105.927 314.871 105.485 313.895 105.123C313.233 104.876 312.556 104.671 311.869 104.509C311.619 104.432 311.36 104.39 311.099 104.382C311.099 104.446 312.165 104.693 313.803 105.363C314.76 105.758 315.689 106.215 316.585 106.733C316.832 106.881 317.1 107.044 317.34 107.199C317.453 107.284 317.488 107.333 317.467 107.404C317.426 107.513 317.349 107.605 317.248 107.665C316.722 108 316.096 108.142 315.476 108.067C314.82 108.025 314.163 107.877 313.507 107.849C312.87 107.83 312.235 107.921 311.629 108.117C310.667 108.5 309.675 108.802 308.663 109.02C307.988 109.136 307.294 109.053 306.665 108.78C306.425 108.655 306.191 108.516 305.967 108.364Z" fill="#EB996E"/>
<path d="M271.253 122.611C271.868 120.786 271.925 118.82 271.415 116.963C271.309 116.963 271.415 118.248 271.415 119.787C271.415 121.326 271.147 122.59 271.253 122.611Z" fill="#EB996E"/>
<path d="M243.641 103.274L252.593 113.362C252.593 113.362 257.38 148.203 257.719 150.943C258.058 153.682 258.968 162.422 258.968 164.816C258.968 167.209 260.952 184.315 260.952 184.315C260.952 184.315 222.962 192.208 216.601 184.315L218.585 169.666L216.862 133.328C216.862 133.328 214.038 108.103 227.311 102.264C227.332 102.25 235.72 107.312 243.641 103.274Z" fill="#FDA92B"/>
<path d="M221.211 105.822C221.211 105.822 223.83 103.238 232.204 105.406C241.021 107.686 245.674 115.939 243.5 139.294C241.692 158.568 234.074 161.335 234.074 161.335C234.074 161.335 238.247 132.269 237.527 120.112C236.623 104.756 221.225 108.576 221.225 108.576C219.023 107.884 221.211 105.822 221.211 105.822Z" fill="#263238"/>
<path d="M243.641 103.274L251.379 105.406L268.789 116.066L263.833 131.81L253.61 130.688L243.641 103.274Z" fill="#FDA92B"/>
<path d="M253.716 114.202C253.61 114.202 254.055 119.85 254.697 126.769C255.34 133.688 255.947 139.322 256.046 139.308C256.144 139.294 255.707 133.66 255.064 126.741C254.422 119.822 253.815 114.195 253.716 114.202Z" fill="#263238"/>
<path d="M218.274 163.135C218.274 163.135 220.745 171.078 229.478 157.96C238.212 144.843 236.99 150.71 236.99 150.71L238.776 152.828C238.776 152.828 229.168 174.467 218.387 171.078L218.274 163.135Z" fill="#263238"/>
<path opacity="0.3" d="M254.069 117.987L260.952 131.492L255.262 130.871L254.069 117.987Z" fill="black"/>
<g opacity="0.3">
<path d="M257.225 153.844C252.158 159.358 246.175 163.952 239.539 167.421C236.765 168.875 233.694 170.153 230.587 169.751C227.17 169.313 224.233 166.842 222.631 163.799C221.028 160.756 221.219 159.288 220.859 155.871C220.435 152.101 220.435 147.067 220.237 143.629C220.237 143.021 220.195 142.315 220.195 141.645C220.195 140.918 219.961 140.212 219.527 139.629C219.093 139.047 218.483 138.619 217.787 138.411C217.787 138.411 219.905 137.43 221.268 137.628C222.631 137.825 223.718 138.99 224.445 140.19C228.321 146.58 226.634 155.948 234.025 159.958C236.469 161.207 239.255 161.616 241.954 161.123C248.004 160.135 252.636 156.181 257.098 152.284" fill="black"/>
</g>
<path d="M248.865 140.621C247.013 140.621 245.512 136.107 245.512 130.539C245.512 124.971 247.013 120.458 248.865 120.458C250.717 120.458 252.219 124.971 252.219 130.539C252.219 136.107 250.717 140.621 248.865 140.621Z" fill="#FAFAFA"/>
<path d="M251.979 235.663C251.979 235.663 251.118 196.014 251.979 196.014C252.84 196.014 258.954 192.526 258.954 192.526L266.593 251.442C266.593 251.442 267.299 258.057 259.095 262.738C250.892 267.419 214.314 299.937 214.314 299.937L201.917 284.836C201.917 284.836 225.998 259.737 235.805 251.442C243.571 244.982 251.979 235.663 251.979 235.663Z" fill="#263238"/>
<path d="M229.549 226.421L228.709 220.145C228.709 220.145 222.679 207.437 221.818 202.029C220.957 196.621 221.522 184.901 221.522 184.901H259.61C259.61 184.901 259.448 227.904 254.852 239.969C254.852 239.969 252.522 263.056 252.176 264.99C251.47 269.099 248.907 311.134 248.907 311.134L229.704 310.428C229.704 310.428 228.038 271.782 229.372 260.81C230.029 255.374 230.34 249.585 230.488 244.798C230.669 238.657 230.355 232.512 229.549 226.421Z" fill="#263238"/>
<path d="M258.573 197.447C258.566 197.508 258.566 197.57 258.573 197.631C258.573 197.779 258.573 197.962 258.538 198.188C258.538 198.704 258.481 199.424 258.439 200.306C258.368 202.163 258.227 204.853 258.036 208.171C257.655 214.808 256.942 223.964 255.918 234.053C254.895 244.142 253.744 253.256 252.932 259.857C252.53 263.133 252.226 265.795 251.979 267.673C251.873 268.577 251.788 269.283 251.732 269.791C251.732 270.017 251.689 270.2 251.675 270.349C251.661 270.497 251.675 270.539 251.675 270.539C251.698 270.48 251.715 270.418 251.725 270.356L251.809 269.805L252.127 267.687C252.381 265.816 252.748 263.154 253.2 259.886C254.076 253.292 255.241 244.177 256.293 234.081C257.345 223.986 258.008 214.822 258.326 208.178C258.488 204.853 258.58 202.163 258.608 200.306C258.608 199.396 258.608 198.683 258.644 198.188V197.638C258.627 197.572 258.603 197.508 258.573 197.447Z" fill="#455A64"/>
<path d="M230.523 248.343C230.469 248.546 230.431 248.754 230.41 248.964C230.354 249.402 230.269 250.002 230.163 250.757C229.973 252.324 229.733 254.591 229.514 257.393C229.062 263.006 228.723 270.807 228.596 279.364C228.469 287.921 228.596 295.736 228.935 301.356C229.076 304.18 229.26 306.439 229.408 308.007C229.493 308.762 229.563 309.362 229.613 309.807C229.627 310.018 229.658 310.228 229.704 310.435C229.723 310.224 229.723 310.011 229.704 309.8C229.669 309.355 229.627 308.755 229.57 307.992C229.464 306.425 229.323 304.152 229.21 301.342C228.977 295.729 228.878 287.928 228.984 279.371C229.09 270.814 229.408 263.02 229.796 257.415C229.98 254.591 230.177 252.338 230.326 250.771C230.403 250.016 230.467 249.416 230.509 248.971C230.531 248.762 230.536 248.552 230.523 248.343Z" fill="#455A64"/>
<path d="M223.032 104.94C223.032 104.94 216.798 106.599 215.471 115.89C214.144 125.181 216.601 127.835 216.601 127.835C216.601 127.835 215.591 110.538 223.336 108.18L223.032 105.279" fill="#263238"/>
<path d="M265.506 135.284L297.686 134.655L297.311 136.216L265.661 136.682L265.506 135.284Z" fill="#263238"/>
<path d="M226.485 107.856C227.692 107.561 228.963 107.673 230.1 108.173C232.705 109.268 237.478 112.409 237.817 121.333L238.367 135.714L217.787 138.411C217.787 138.411 216.036 110.637 226.485 107.856Z" fill="#FDA92B"/>
<path d="M264.362 138.326L238.24 146.177L237.852 135.672L222.221 137.945L223.097 155.03C223.185 157.469 224.073 159.81 225.623 161.694C227.173 163.578 229.299 164.901 231.674 165.458C234.406 166.097 237.278 165.681 239.716 164.293L267.44 148.528L264.362 138.326Z" fill="#FFBE9D"/>
<path d="M217.787 138.411C217.787 138.411 217.787 138.319 217.787 138.164C217.787 138.009 217.787 137.755 217.822 137.458C217.822 136.83 217.872 135.947 217.914 134.818C217.985 132.523 218.091 129.247 218.218 125.202C218.281 123.183 218.345 120.966 218.408 118.594C218.408 118.001 218.444 117.394 218.465 116.779C218.465 116.483 218.521 116.179 218.557 115.869C218.592 115.558 218.662 115.261 218.747 114.958C219.268 112.988 220.404 111.237 221.99 109.959C223.577 108.682 225.53 107.944 227.565 107.855C229.027 107.841 230.461 108.251 231.695 109.035C232.97 109.847 234.057 110.92 234.886 112.183C236.07 114 236.87 116.04 237.237 118.177C237.598 120.226 237.813 122.297 237.88 124.376C237.993 128.428 238.099 132.241 238.197 135.707L238.332 135.545L223.456 137.578L219.277 138.164L218.154 138.376L219.234 138.256L223.393 137.748L238.395 135.87H238.529V135.728C238.445 132.255 238.381 128.45 238.247 124.39C238.19 122.292 237.98 120.202 237.619 118.135C237.245 115.949 236.425 113.863 235.211 112.007C234.354 110.699 233.227 109.59 231.907 108.752C230.615 107.93 229.111 107.503 227.579 107.524C226.145 107.585 224.741 107.959 223.467 108.62C222.192 109.281 221.078 110.213 220.202 111.35C219.382 112.394 218.786 113.596 218.451 114.88C218.373 115.191 218.324 115.509 218.26 115.826C218.196 116.144 218.197 116.455 218.168 116.772C218.168 117.386 218.168 118.001 218.126 118.601C218.076 121.001 218.034 123.239 217.992 125.28C217.921 129.332 217.865 132.615 217.822 134.909C217.822 136.018 217.822 136.893 217.787 137.507V138.213C217.781 138.279 217.781 138.345 217.787 138.411Z" fill="#263238"/>
<path d="M263.832 138.637L270.102 133.999C271.245 133.151 273.024 133.293 274.444 133.201C277.268 132.947 281.878 134.613 282.054 134.938L280.162 136.448L292.348 136.074C291.93 136.904 291.295 137.604 290.51 138.101C289.726 138.599 288.821 138.874 287.893 138.898C287.893 138.898 287.505 141.652 283.967 142.174C283.967 142.174 283.05 144.405 281.08 145.055C281.08 145.055 280.692 147.547 277.55 147.413L266.868 148.606L263.832 138.637Z" fill="#FFBE9D"/>
<path d="M280.282 139.329C281.568 139.441 282.861 139.427 284.144 139.287C285.432 139.278 286.716 139.141 287.978 138.877C286.694 138.774 285.404 138.788 284.123 138.92C282.833 138.938 281.547 139.075 280.282 139.329Z" fill="#EB996E"/>
<path d="M277.19 142.266C278.305 142.447 279.437 142.509 280.565 142.45C281.693 142.509 282.824 142.447 283.939 142.266C282.825 142.081 281.693 142.019 280.565 142.082C279.437 142.019 278.305 142.081 277.19 142.266Z" fill="#EB996E"/>
<path d="M273.879 145.034C274.993 145.219 276.125 145.28 277.253 145.217C278.379 145.281 279.509 145.219 280.621 145.034C279.508 144.852 278.379 144.791 277.253 144.85C276.125 144.791 274.994 144.852 273.879 145.034Z" fill="#EB996E"/>
<path d="M236.51 151.507C237.025 150.718 237.416 149.853 237.668 148.945C238.047 148.08 238.285 147.16 238.374 146.219C237.944 147.05 237.601 147.923 237.35 148.825C236.976 149.687 236.694 150.586 236.51 151.507Z" fill="#EB996E"/>
<path d="M234.653 150.491C235.379 149.819 236.038 149.079 236.623 148.281C237.303 147.566 237.911 146.785 238.438 145.951C237.627 146.544 236.913 147.259 236.32 148.069C235.649 148.791 235.087 149.606 234.653 150.491Z" fill="#EB996E"/>
</svg>
