<svg width="25" height="24" viewBox="0 0 25 24" fill="none" xmlns="http://www.w3.org/2000/svg">
<g id="home-01">
<g id="Icon">
<path d="M3.125 10.5653C3.125 9.99094 3.125 9.70376 3.19903 9.4393C3.2646 9.20503 3.37237 8.98469 3.51703 8.7891C3.68034 8.5683 3.90702 8.39199 4.36039 8.03937L11.1427 2.76424C11.494 2.49099 11.6697 2.35436 11.8637 2.30184C12.0348 2.2555 12.2152 2.2555 12.3863 2.30184C12.5803 2.35436 12.756 2.49099 13.1073 2.76424L19.8896 8.03937C20.343 8.39199 20.5697 8.5683 20.733 8.7891C20.8776 8.98469 20.9854 9.20503 21.051 9.4393C21.125 9.70376 21.125 9.99094 21.125 10.5653V17.8002C21.125 18.9203 21.125 19.4804 20.907 19.9082C20.7153 20.2845 20.4093 20.5905 20.033 20.7822C19.6052 21.0002 19.0451 21.0002 17.925 21.0002H6.325C5.2049 21.0002 4.64484 21.0002 4.21702 20.7822C3.84069 20.5905 3.53473 20.2845 3.34299 19.9082C3.125 19.4804 3.125 18.9203 3.125 17.8002V10.5653Z" fill="#69B483"/>
<path d="M3.125 10.5653C3.125 9.99094 3.125 9.70376 3.19903 9.4393C3.2646 9.20503 3.37237 8.98469 3.51703 8.7891C3.68034 8.5683 3.90702 8.39199 4.36039 8.03937L11.1427 2.76424C11.494 2.49099 11.6697 2.35436 11.8637 2.30184C12.0348 2.2555 12.2152 2.2555 12.3863 2.30184C12.5803 2.35436 12.756 2.49099 13.1073 2.76424L19.8896 8.03937C20.343 8.39199 20.5697 8.5683 20.733 8.7891C20.8776 8.98469 20.9854 9.20503 21.051 9.4393C21.125 9.70376 21.125 9.99094 21.125 10.5653V17.8002C21.125 18.9203 21.125 19.4804 20.907 19.9082C20.7153 20.2845 20.4093 20.5905 20.033 20.7822C19.6052 21.0002 19.0451 21.0002 17.925 21.0002H6.325C5.2049 21.0002 4.64484 21.0002 4.21702 20.7822C3.84069 20.5905 3.53473 20.2845 3.34299 19.9082C3.125 19.4804 3.125 18.9203 3.125 17.8002V10.5653Z" fill="url(#paint0_linear_1845_1375)" fill-opacity="0.15"/>
<path d="M3.125 10.5653C3.125 9.99094 3.125 9.70376 3.19903 9.4393C3.2646 9.20503 3.37237 8.98469 3.51703 8.7891C3.68034 8.5683 3.90702 8.39199 4.36039 8.03937L11.1427 2.76424C11.494 2.49099 11.6697 2.35436 11.8637 2.30184C12.0348 2.2555 12.2152 2.2555 12.3863 2.30184C12.5803 2.35436 12.756 2.49099 13.1073 2.76424L19.8896 8.03937C20.343 8.39199 20.5697 8.5683 20.733 8.7891C20.8776 8.98469 20.9854 9.20503 21.051 9.4393C21.125 9.70376 21.125 9.99094 21.125 10.5653V17.8002C21.125 18.9203 21.125 19.4804 20.907 19.9082C20.7153 20.2845 20.4093 20.5905 20.033 20.7822C19.6052 21.0002 19.0451 21.0002 17.925 21.0002H6.325C5.2049 21.0002 4.64484 21.0002 4.21702 20.7822C3.84069 20.5905 3.53473 20.2845 3.34299 19.9082C3.125 19.4804 3.125 18.9203 3.125 17.8002V10.5653Z" stroke="#69B483" stroke-width="2" stroke-linecap="round" stroke-linejoin="round"/>
<path d="M3.125 10.5653C3.125 9.99094 3.125 9.70376 3.19903 9.4393C3.2646 9.20503 3.37237 8.98469 3.51703 8.7891C3.68034 8.5683 3.90702 8.39199 4.36039 8.03937L11.1427 2.76424C11.494 2.49099 11.6697 2.35436 11.8637 2.30184C12.0348 2.2555 12.2152 2.2555 12.3863 2.30184C12.5803 2.35436 12.756 2.49099 13.1073 2.76424L19.8896 8.03937C20.343 8.39199 20.5697 8.5683 20.733 8.7891C20.8776 8.98469 20.9854 9.20503 21.051 9.4393C21.125 9.70376 21.125 9.99094 21.125 10.5653V17.8002C21.125 18.9203 21.125 19.4804 20.907 19.9082C20.7153 20.2845 20.4093 20.5905 20.033 20.7822C19.6052 21.0002 19.0451 21.0002 17.925 21.0002H6.325C5.2049 21.0002 4.64484 21.0002 4.21702 20.7822C3.84069 20.5905 3.53473 20.2845 3.34299 19.9082C3.125 19.4804 3.125 18.9203 3.125 17.8002V10.5653Z" stroke="url(#paint1_linear_1845_1375)" stroke-opacity="0.25" stroke-width="2" stroke-linecap="round" stroke-linejoin="round"/>
</g>
</g>
<defs>
<linearGradient id="paint0_linear_1845_1375" x1="12.125" y1="24.0002" x2="12.125" y2="0.000228659" gradientUnits="userSpaceOnUse">
<stop/>
<stop offset="1" stop-opacity="0.5"/>
</linearGradient>
<linearGradient id="paint1_linear_1845_1375" x1="12.125" y1="24.0002" x2="12.125" y2="0.000228889" gradientUnits="userSpaceOnUse">
<stop/>
<stop offset="1" stop-opacity="0.5"/>
</linearGradient>
</defs>
</svg>
