<svg width="25" height="24" viewBox="0 0 25 24" fill="none" xmlns="http://www.w3.org/2000/svg">
<path d="M5.625 8C7.28185 8 8.625 6.65685 8.625 5C8.625 3.34315 7.28185 2 5.625 2C3.96815 2 2.625 3.34315 2.625 5C2.625 6.65685 3.96815 8 5.625 8Z" fill="#D9D9D9"/>
<path d="M19.625 22C21.2819 22 22.625 20.6569 22.625 19C22.625 17.3431 21.2819 16 19.625 16C17.9681 16 16.625 17.3431 16.625 19C16.625 20.6569 17.9681 22 19.625 22Z" fill="#D9D9D9"/>
<path d="M12.125 5H12.5594C15.6066 5 17.1303 5 17.7086 5.54729C18.2086 6.02037 18.4301 6.71728 18.2952 7.39221C18.139 8.17302 16.8951 9.05285 14.4073 10.8125L10.3427 13.6875C7.8549 15.4471 6.61099 16.327 6.45484 17.1078C6.31986 17.7827 6.54142 18.4796 7.04136 18.9527C7.61974 19.5 9.14336 19.5 12.1906 19.5H13.125M8.625 5C8.625 6.65685 7.28185 8 5.625 8C3.96815 8 2.625 6.65685 2.625 5C2.625 3.34315 3.96815 2 5.625 2C7.28185 2 8.625 3.34315 8.625 5ZM22.625 19C22.625 20.6569 21.2819 22 19.625 22C17.9681 22 16.625 20.6569 16.625 19C16.625 17.3431 17.9681 16 19.625 16C21.2819 16 22.625 17.3431 22.625 19Z" stroke="#131313" stroke-width="2" stroke-linecap="round" stroke-linejoin="round"/>
</svg>
