<svg width="25" height="24" viewBox="0 0 25 24" fill="none" xmlns="http://www.w3.org/2000/svg">
<g id="user-03">
<g id="Icon">
<path d="M12.875 12C15.3603 12 17.375 9.98528 17.375 7.5C17.375 5.01472 15.3603 3 12.875 3C10.3897 3 8.375 5.01472 8.375 7.5C8.375 9.98528 10.3897 12 12.875 12Z" fill="#D9D9D9"/>
<path d="M3.875 20C6.21079 17.5226 9.38202 16 12.875 16C16.368 16 19.5392 17.5226 21.875 20M17.375 7.5C17.375 9.98528 15.3603 12 12.875 12C10.3897 12 8.375 9.98528 8.375 7.5C8.375 5.01472 10.3897 3 12.875 3C15.3603 3 17.375 5.01472 17.375 7.5Z" stroke="#131313" stroke-width="2" stroke-linecap="round" stroke-linejoin="round"/>
</g>
</g>
</svg>
