<svg width="25" height="24" viewBox="0 0 25 24" fill="none" xmlns="http://www.w3.org/2000/svg">
<g id="user-03">
<g id="Icon">
<path d="M12.875 12C15.3603 12 17.375 9.98528 17.375 7.5C17.375 5.01472 15.3603 3 12.875 3C10.3897 3 8.375 5.01472 8.375 7.5C8.375 9.98528 10.3897 12 12.875 12Z" fill="#69B483"/>
<path d="M12.875 12C15.3603 12 17.375 9.98528 17.375 7.5C17.375 5.01472 15.3603 3 12.875 3C10.3897 3 8.375 5.01472 8.375 7.5C8.375 9.98528 10.3897 12 12.875 12Z" fill="url(#paint0_linear_1845_664)" fill-opacity="0.15"/>
<path d="M3.875 20C6.21079 17.5226 9.38202 16 12.875 16C16.368 16 19.5392 17.5226 21.875 20M17.375 7.5C17.375 9.98528 15.3603 12 12.875 12C10.3897 12 8.375 9.98528 8.375 7.5C8.375 5.01472 10.3897 3 12.875 3C15.3603 3 17.375 5.01472 17.375 7.5Z" stroke="#69B483" stroke-width="2" stroke-linecap="round" stroke-linejoin="round"/>
<path d="M3.875 20C6.21079 17.5226 9.38202 16 12.875 16C16.368 16 19.5392 17.5226 21.875 20M17.375 7.5C17.375 9.98528 15.3603 12 12.875 12C10.3897 12 8.375 9.98528 8.375 7.5C8.375 5.01472 10.3897 3 12.875 3C15.3603 3 17.375 5.01472 17.375 7.5Z" stroke="url(#paint1_linear_1845_664)" stroke-opacity="0.25" stroke-width="2" stroke-linecap="round" stroke-linejoin="round"/>
</g>
</g>
<defs>
<linearGradient id="paint0_linear_1845_664" x1="12.875" y1="22.7224" x2="12.875" y2="0.942863" gradientUnits="userSpaceOnUse">
<stop/>
<stop offset="1" stop-opacity="0.5"/>
</linearGradient>
<linearGradient id="paint1_linear_1845_664" x1="12.875" y1="22.7224" x2="12.875" y2="0.942863" gradientUnits="userSpaceOnUse">
<stop/>
<stop offset="1" stop-opacity="0.5"/>
</linearGradient>
</defs>
</svg>
