<svg width="204" height="58" viewBox="0 0 204 58" fill="none" xmlns="http://www.w3.org/2000/svg">
<mask id="mask0_34_1060" style="mask-type:alpha" maskUnits="userSpaceOnUse" x="1" y="0" width="47" height="58">
<path d="M7.60998 7.39637C16.8766 -1.87025 31.9007 -1.87025 41.1674 7.39637C50.434 16.663 49.3877 32.7334 40.1211 42L24.3887 57.7324L8.65623 42C-0.61039 32.7334 -1.65664 16.663 7.60998 7.39637Z" fill="#E3E3E3"/>
</mask>
<g mask="url(#mask0_34_1060)">
<path d="M7.60974 7.39582C16.8764 -1.8708 31.9005 -1.8708 41.1671 7.39582V7.39582C50.4337 16.6624 50.4337 31.6866 41.1671 40.9532L24.3884 57.7319L7.60974 40.9532C-1.65688 31.6866 -1.65688 16.6624 7.60974 7.39582V7.39582Z" fill="#E3E3E3"/>
<rect x="24.3867" y="-9.3847" width="47.4597" height="47.4573" transform="rotate(45 24.3867 -9.3847)" fill="#FCE4C0"/>
<rect x="24.3926" y="-9.37872" width="35.5874" height="35.593" transform="rotate(45 24.3926 -9.37872)" fill="#FAD59E"/>
<rect x="24.3884" y="-9.38287" width="23.7287" height="23.7287" transform="rotate(45 24.3884 -9.38287)" fill="#F9C26C"/>
<mask id="mask1_34_1060" style="mask-type:alpha" maskUnits="userSpaceOnUse" x="-10" y="-10" width="68" height="68">
<rect x="24.3867" y="-9.38464" width="47.4597" height="47.4573" transform="rotate(45 24.3867 -9.38464)" fill="#FFD38F"/>
</mask>
<g mask="url(#mask1_34_1060)">
<rect width="23.7368" height="59.3216" transform="matrix(-1 0 0 1 48.1248 -0.484558)" fill="#FECF86"/>
</g>
<mask id="mask2_34_1060" style="mask-type:alpha" maskUnits="userSpaceOnUse" x="-1" y="-10" width="51" height="51">
<rect x="24.3926" y="-9.3786" width="35.5874" height="35.593" transform="rotate(45 24.3926 -9.3786)" fill="#FDA92B"/>
</mask>
<g mask="url(#mask2_34_1060)">
<rect width="23.7368" height="59.3216" transform="matrix(-1 0 0 1 48.125 -0.484497)" fill="#FDBE5D"/>
</g>
<mask id="mask3_34_1060" style="mask-type:alpha" maskUnits="userSpaceOnUse" x="7" y="-10" width="35" height="35">
<rect x="24.3887" y="-9.38281" width="23.7287" height="23.7287" transform="rotate(45 24.3887 -9.38281)" fill="#FDA92B"/>
</mask>
<g mask="url(#mask3_34_1060)">
<rect width="23.7368" height="59.3216" transform="matrix(-1 0 0 1 48.1252 -0.484558)" fill="#FDB13A"/>
</g>
</g>
<path d="M71.0233 46.272H64.8313V14.112H71.0233V46.272Z" fill="#21432F"/>
<path d="M98.7553 46.272H92.9953V40.32L92.6593 40.224V31.968C92.6593 30.176 92.2273 28.944 91.3633 28.272C90.4993 27.6 89.0113 27.264 86.8993 27.264C84.8833 27.264 83.3953 27.6 82.4353 28.272C81.5073 28.912 81.0433 30.016 81.0433 31.584V31.824H74.8513V31.632C74.8513 29.744 75.3473 28.064 76.3393 26.592C77.3633 25.12 78.8033 23.968 80.6593 23.136C82.5473 22.272 84.7713 21.84 87.3313 21.84C89.9553 21.84 92.0993 22.272 93.7633 23.136C95.4593 24 96.7073 25.184 97.5073 26.688C98.3393 28.192 98.7553 29.952 98.7553 31.968V46.272ZM82.5313 46.752C80.0033 46.752 78.0033 46.192 76.5313 45.072C75.0593 43.952 74.3233 42.4 74.3233 40.416C74.3233 39.2 74.6273 38.16 75.2353 37.296C75.8433 36.432 76.7233 35.744 77.8753 35.232C79.0273 34.72 80.4193 34.384 82.0513 34.224L93.1393 33.072V36.672L83.7793 37.728C82.6913 37.824 81.8753 38.048 81.3313 38.4C80.8193 38.72 80.5633 39.264 80.5633 40.032C80.5633 40.8 80.8513 41.376 81.4273 41.76C82.0353 42.144 82.9793 42.336 84.2593 42.336C86.0193 42.336 87.5233 42.144 88.7713 41.76C90.0193 41.344 90.9793 40.72 91.6513 39.888C92.3233 39.024 92.6593 37.904 92.6593 36.528H93.3313V40.56H92.6593C92.0833 42.48 90.9153 44 89.1553 45.12C87.4273 46.208 85.2193 46.752 82.5313 46.752ZM94.8193 19.392H88.9153V13.248H94.8193V19.392ZM85.2193 19.392H79.3153V13.248H85.2193V19.392Z" fill="#21432F"/>
<path d="M145.95 46.272H139.758V33.504C139.758 31.328 139.31 29.776 138.414 28.848C137.518 27.888 135.966 27.408 133.758 27.408C131.39 27.408 129.758 27.968 128.862 29.088C127.966 30.176 127.518 31.904 127.518 34.272L126.606 34.32L126.174 29.712H127.374C127.598 28.336 128.046 27.056 128.718 25.872C129.39 24.688 130.366 23.728 131.646 22.992C132.958 22.224 134.638 21.84 136.686 21.84C138.766 21.84 140.478 22.272 141.822 23.136C143.198 23.968 144.222 25.12 144.894 26.592C145.598 28.064 145.95 29.744 145.95 31.632V46.272ZM109.086 46.272H102.894V22.32H108.606V29.808L109.086 30.048V46.272ZM127.518 46.272H121.326V33.504C121.326 31.328 120.878 29.776 119.982 28.848C119.086 27.888 117.534 27.408 115.326 27.408C112.958 27.408 111.326 27.968 110.43 29.088C109.534 30.176 109.086 31.904 109.086 34.272L108.174 34.32L107.79 29.568H108.942C109.166 28.224 109.598 26.976 110.238 25.824C110.91 24.64 111.87 23.68 113.118 22.944C114.398 22.208 116.03 21.84 118.014 21.84C120.126 21.84 121.838 22.272 123.15 23.136C124.494 24 125.486 25.184 126.126 26.688C126.798 28.16 127.134 29.808 127.134 31.632H127.518V46.272Z" fill="#21432F"/>
<path d="M175.825 46.272H169.681V33.504C169.681 31.424 169.185 29.888 168.193 28.896C167.201 27.904 165.521 27.408 163.153 27.408C160.721 27.408 158.961 27.984 157.873 29.136C156.817 30.256 156.289 31.968 156.289 34.272L155.377 34.32L154.993 29.712H156.193C156.417 28.368 156.913 27.104 157.681 25.92C158.449 24.704 159.521 23.728 160.897 22.992C162.273 22.224 164.001 21.84 166.081 21.84C168.257 21.84 170.065 22.288 171.505 23.184C172.977 24.048 174.065 25.216 174.769 26.688C175.473 28.16 175.825 29.808 175.825 31.632V46.272ZM156.289 46.272H150.097V22.32H155.809V29.808L156.289 30.048V46.272Z" fill="#21432F"/>
<path d="M203.427 46.272H197.667V40.32L197.331 40.224V31.968C197.331 30.176 196.899 28.944 196.035 28.272C195.171 27.6 193.683 27.264 191.571 27.264C189.555 27.264 188.067 27.6 187.107 28.272C186.179 28.912 185.715 30.016 185.715 31.584V31.824H179.523V31.632C179.523 29.744 180.019 28.064 181.011 26.592C182.035 25.12 183.475 23.968 185.331 23.136C187.219 22.272 189.443 21.84 192.003 21.84C194.627 21.84 196.771 22.272 198.435 23.136C200.131 24 201.379 25.184 202.179 26.688C203.011 28.192 203.427 29.952 203.427 31.968V46.272ZM187.203 46.752C184.675 46.752 182.675 46.192 181.203 45.072C179.731 43.952 178.995 42.4 178.995 40.416C178.995 39.2 179.299 38.16 179.907 37.296C180.515 36.432 181.395 35.744 182.547 35.232C183.699 34.72 185.091 34.384 186.723 34.224L197.811 33.072V36.672L188.451 37.728C187.363 37.824 186.547 38.048 186.003 38.4C185.491 38.72 185.235 39.264 185.235 40.032C185.235 40.8 185.523 41.376 186.099 41.76C186.707 42.144 187.651 42.336 188.931 42.336C190.691 42.336 192.195 42.144 193.443 41.76C194.691 41.344 195.651 40.72 196.323 39.888C196.995 39.024 197.331 37.904 197.331 36.528H198.003V40.56H197.331C196.755 42.48 195.587 44 193.827 45.12C192.099 46.208 189.891 46.752 187.203 46.752Z" fill="#21432F"/>
</svg>
