<svg width="175" height="50" viewBox="0 0 175 50" fill="none" xmlns="http://www.w3.org/2000/svg">
<mask id="mask0_1339_5427" style="mask-type:alpha" maskUnits="userSpaceOnUse" x="0" y="0" width="41" height="50">
<path d="M6.36917 6.36948C14.3492 -1.61059 27.2875 -1.61059 35.2676 6.36948C43.2476 14.3495 42.3466 28.1888 34.3666 36.1689L20.8184 49.7171L7.27016 36.1689C-0.70991 28.1888 -1.6109 14.3495 6.36917 6.36948Z" fill="#E3E3E3"/>
</mask>
<g mask="url(#mask0_1339_5427)">
<path d="M6.36917 6.36899C14.3492 -1.61108 27.2875 -1.61108 35.2676 6.36899C43.2476 14.3491 43.2476 27.2873 35.2676 35.2674L20.8184 49.7166L6.36917 35.2674C-1.6109 27.2873 -1.6109 14.3491 6.36917 6.36899Z" fill="#E3E3E3"/>
<rect x="20.8164" y="-8.08179" width="40.8705" height="40.8685" transform="rotate(45 20.8164 -8.08179)" fill="#FCE8C9"/>
<rect x="20.8213" y="-8.07654" width="30.6465" height="30.6514" transform="rotate(45 20.8213 -8.07654)" fill="#FDD89F"/>
<rect x="20.8184" y="-8.0802" width="20.4342" height="20.4342" transform="rotate(45 20.8184 -8.0802)" fill="#FBC572"/>
<mask id="mask1_1339_5427" style="mask-type:alpha" maskUnits="userSpaceOnUse" x="-9" y="-9" width="59" height="59">
<rect x="20.8164" y="-8.08167" width="40.8705" height="40.8685" transform="rotate(45 20.8164 -8.08167)" fill="#FFD38F"/>
</mask>
<g mask="url(#mask1_1339_5427)">
<rect width="20.4413" height="51.0856" transform="matrix(-1 0 0 1 41.2598 -0.417114)" fill="#FDD89F"/>
</g>
<mask id="mask2_1339_5427" style="mask-type:alpha" maskUnits="userSpaceOnUse" x="-1" y="-9" width="44" height="45">
<rect x="20.8213" y="-8.07642" width="30.6465" height="30.6514" transform="rotate(45 20.8213 -8.07642)" fill="#FDA92B"/>
</mask>
<g mask="url(#mask2_1339_5427)">
<rect width="20.4413" height="51.0856" transform="matrix(-1 0 0 1 41.2578 -0.417114)" fill="#FBC572"/>
</g>
<mask id="mask3_1339_5427" style="mask-type:alpha" maskUnits="userSpaceOnUse" x="6" y="-9" width="30" height="30">
<rect x="20.8174" y="-8.0802" width="20.4342" height="20.4342" transform="rotate(45 20.8174 -8.0802)" fill="#FDA92B"/>
</mask>
<g mask="url(#mask3_1339_5427)">
<rect width="20.4413" height="51.0856" transform="matrix(-1 0 0 1 41.2588 -0.417358)" fill="#FDA92B"/>
</g>
</g>
<path d="M60.9788 39.8477H55.6465V12.1527H60.9788V39.8477Z" fill="#21432F"/>
<path d="M84.8606 39.8477H79.9003V34.7221L79.6109 34.6394V27.5297C79.6109 25.9865 79.2389 24.9255 78.4949 24.3468C77.7508 23.7681 76.4694 23.4788 74.6506 23.4788C72.9145 23.4788 71.6331 23.7681 70.8064 24.3468C70.0072 24.898 69.6077 25.8487 69.6077 27.199V27.4057H64.2753V27.2403C64.2753 25.6144 64.7025 24.1677 65.5568 22.9001C66.4386 21.6324 67.6787 20.6404 69.277 19.9239C70.9029 19.1798 72.8181 18.8078 75.0227 18.8078C77.2823 18.8078 79.1287 19.1798 80.5617 19.9239C82.0222 20.6679 83.0969 21.6875 83.7859 22.9827C84.5023 24.2779 84.8606 25.7936 84.8606 27.5297V39.8477ZM70.8891 40.2611C68.7121 40.2611 66.9897 39.7789 65.7221 38.8143C64.4545 37.8498 63.8206 36.5133 63.8206 34.8048C63.8206 33.7576 64.0824 32.862 64.606 32.1179C65.1296 31.3739 65.8874 30.7814 66.8795 30.3405C67.8716 29.8996 69.0703 29.6102 70.4757 29.4724L80.0243 28.4804V31.5806L71.9638 32.49C71.0269 32.5726 70.3242 32.7655 69.8557 33.0687C69.4148 33.3442 69.1943 33.8127 69.1943 34.4741C69.1943 35.1355 69.4423 35.6315 69.9383 35.9622C70.4619 36.2929 71.2749 36.4582 72.3772 36.4582C73.8928 36.4582 75.188 36.2929 76.2627 35.9622C77.3375 35.6039 78.1642 35.0666 78.7429 34.3501C79.3216 33.606 79.6109 32.6415 79.6109 31.4566H80.1896V34.9288H79.6109C79.1149 36.5822 78.1091 37.8912 76.5934 38.8557C75.1053 39.7926 73.2039 40.2611 70.8891 40.2611ZM81.471 16.6997H76.3867V11.4087H81.471V16.6997ZM73.2039 16.6997H68.1196V11.4087H73.2039V16.6997Z" fill="#21432F"/>
<path d="M125.503 39.8477H120.17V28.8524C120.17 26.9785 119.785 25.642 119.013 24.8428C118.241 24.0161 116.905 23.6028 115.003 23.6028C112.964 23.6028 111.559 24.085 110.787 25.0495C110.016 25.9865 109.63 27.4746 109.63 29.5138L108.844 29.5551L108.472 25.5869H109.506C109.699 24.4019 110.084 23.2996 110.663 22.28C111.242 21.2604 112.082 20.4337 113.185 19.7999C114.315 19.1385 115.761 18.8078 117.525 18.8078C119.316 18.8078 120.79 19.1798 121.948 19.9239C123.133 20.6404 124.015 21.6324 124.593 22.9001C125.2 24.1677 125.503 25.6144 125.503 27.2403V39.8477ZM93.7568 39.8477H88.4245V19.2212H93.3435V25.6696L93.7568 25.8762V39.8477ZM109.63 39.8477H104.297V28.8524C104.297 26.9785 103.912 25.642 103.14 24.8428C102.368 24.0161 101.032 23.6028 99.1305 23.6028C97.0913 23.6028 95.6858 24.085 94.9142 25.0495C94.1426 25.9865 93.7568 27.4746 93.7568 29.5138L92.9715 29.5551L92.6408 25.4629H93.6328C93.8257 24.3055 94.1977 23.2307 94.7489 22.2387C95.3276 21.2191 96.1543 20.3923 97.229 19.7585C98.3313 19.1247 99.7367 18.8078 101.445 18.8078C103.264 18.8078 104.738 19.1798 105.868 19.9239C107.026 20.6679 107.88 21.6875 108.431 22.9827C109.01 24.2504 109.299 25.6696 109.299 27.2403H109.63V39.8477Z" fill="#21432F"/>
<path d="M151.23 39.8477H145.939V28.8524C145.939 27.0612 145.512 25.7384 144.658 24.8842C143.803 24.0299 142.357 23.6028 140.317 23.6028C138.223 23.6028 136.707 24.0988 135.771 25.0909C134.861 26.0554 134.406 27.5297 134.406 29.5138L133.621 29.5551L133.29 25.5869H134.324C134.517 24.4295 134.944 23.341 135.605 22.3214C136.267 21.2742 137.19 20.4337 138.375 19.7999C139.56 19.1385 141.048 18.8078 142.839 18.8078C144.713 18.8078 146.27 19.1936 147.51 19.9652C148.778 20.7093 149.714 21.7151 150.321 22.9827C150.927 24.2504 151.23 25.6696 151.23 27.2403V39.8477ZM134.406 39.8477H129.074V19.2212H133.993V25.6696L134.406 25.8762V39.8477Z" fill="#21432F"/>
<path d="M175 39.8477H170.04V34.7221L169.751 34.6394V27.5297C169.751 25.9865 169.378 24.9255 168.634 24.3468C167.89 23.7681 166.609 23.4788 164.79 23.4788C163.054 23.4788 161.773 23.7681 160.946 24.3468C160.147 24.898 159.747 25.8487 159.747 27.199V27.4057H154.415V27.2403C154.415 25.6144 154.842 24.1677 155.696 22.9001C156.578 21.6324 157.818 20.6404 159.417 19.9239C161.042 19.1798 162.958 18.8078 165.162 18.8078C167.422 18.8078 169.268 19.1798 170.701 19.9239C172.162 20.6679 173.236 21.6875 173.925 22.9827C174.642 24.2779 175 25.7936 175 27.5297V39.8477ZM161.029 40.2611C158.852 40.2611 157.129 39.7789 155.862 38.8143C154.594 37.8498 153.96 36.5133 153.96 34.8048C153.96 33.7576 154.222 32.862 154.746 32.1179C155.269 31.3739 156.027 30.7814 157.019 30.3405C158.011 29.8996 159.21 29.6102 160.615 29.4724L170.164 28.4804V31.5806L162.103 32.49C161.166 32.5726 160.464 32.7655 159.995 33.0687C159.554 33.3442 159.334 33.8127 159.334 34.4741C159.334 35.1355 159.582 35.6315 160.078 35.9622C160.602 36.2929 161.414 36.4582 162.517 36.4582C164.032 36.4582 165.328 36.2929 166.402 35.9622C167.477 35.6039 168.304 35.0666 168.882 34.3501C169.461 33.606 169.751 32.6415 169.751 31.4566H170.329V34.9288H169.751C169.254 36.5822 168.249 37.8912 166.733 38.8557C165.245 39.7926 163.343 40.2611 161.029 40.2611Z" fill="#21432F"/>
</svg>
