<svg width="22" height="22" viewBox="0 0 22 22" fill="none" xmlns="http://www.w3.org/2000/svg">
<g id="bell-03">
<g id="Icon">
<path d="M16.4995 10.2666C16.4995 9.00239 15.92 7.78997 14.8886 6.89604C13.8571 6.00212 12.4582 5.49992 10.9995 5.49992C9.54081 5.49992 8.14186 6.00212 7.11041 6.89604C6.07896 7.78997 5.4995 9.00239 5.4995 10.2666C5.4995 12.3582 4.98079 13.8879 4.33356 14.9825C3.59589 16.2301 3.22706 16.8538 3.24163 17.0028C3.25829 17.1733 3.28897 17.2271 3.42723 17.3282C3.54807 17.4166 4.15522 17.4166 5.36951 17.4166H16.6295C17.8438 17.4166 18.4509 17.4166 18.5718 17.3282C18.71 17.2271 18.7407 17.1733 18.7574 17.0028C18.7719 16.8538 18.4031 16.2301 17.6654 14.9825C17.0182 13.888 16.4995 12.3582 16.4995 10.2666Z" fill="#CADFD1"/>
<path d="M13.7495 17.4166C13.7495 18.9354 12.5183 20.1666 10.9995 20.1666C9.48072 20.1666 8.2495 18.9354 8.2495 17.4166M12.6463 5.7186C13.0455 5.30617 13.2912 4.74424 13.2912 4.12492C13.2912 2.85927 12.2652 1.83325 10.9995 1.83325C9.73385 1.83325 8.70783 2.85927 8.70783 4.12492C8.70783 4.74424 8.9535 5.30617 9.3527 5.7186M16.4995 10.2666C16.4995 9.00239 15.92 7.78997 14.8886 6.89604C13.8571 6.00212 12.4582 5.49992 10.9995 5.49992C9.54081 5.49992 8.14186 6.00212 7.11041 6.89604C6.07896 7.78997 5.4995 9.00239 5.4995 10.2666C5.4995 12.3582 4.98079 13.888 4.33356 14.9825C3.59589 16.2301 3.22706 16.8538 3.24163 17.0028C3.25829 17.1733 3.28897 17.2271 3.42723 17.3282C3.54807 17.4166 4.15522 17.4166 5.36951 17.4166H16.6295C17.8438 17.4166 18.4509 17.4166 18.5718 17.3282C18.71 17.2271 18.7407 17.1733 18.7574 17.0028C18.7719 16.8538 18.4031 16.2301 17.6654 14.9825C17.0182 13.888 16.4995 12.3582 16.4995 10.2666Z" stroke="#3C674C" stroke-width="2" stroke-linecap="round" stroke-linejoin="round"/>
</g>
</g>
</svg>
