<svg width="28" height="28" viewBox="0 0 28 28" fill="none" xmlns="http://www.w3.org/2000/svg">
<g filter="url(#filter0_d_1934_3676)">
<path d="M18.796 3.5C22.9052 3.5 25.6663 7.41125 25.6663 11.06C25.6663 18.4494 14.2071 24.5 13.9997 24.5C13.7923 24.5 2.33301 18.4494 2.33301 11.06C2.33301 7.41125 5.09412 3.5 9.20338 3.5C11.5626 3.5 13.1052 4.69437 13.9997 5.74437C14.8941 4.69437 16.4367 3.5 18.796 3.5Z" fill="#DB2626"/>
<path d="M18.796 3.5C22.9052 3.5 25.6663 7.41125 25.6663 11.06C25.6663 18.4494 14.2071 24.5 13.9997 24.5C13.7923 24.5 2.33301 18.4494 2.33301 11.06C2.33301 7.41125 5.09412 3.5 9.20338 3.5C11.5626 3.5 13.1052 4.69437 13.9997 5.74437C14.8941 4.69437 16.4367 3.5 18.796 3.5Z" stroke="#DB2626" stroke-width="2" stroke-linecap="round" stroke-linejoin="round"/>
</g>
<defs>
<filter id="filter0_d_1934_3676" x="0.333008" y="1.5" width="27.333" height="25" filterUnits="userSpaceOnUse" color-interpolation-filters="sRGB">
<feFlood flood-opacity="0" result="BackgroundImageFix"/>
<feColorMatrix in="SourceAlpha" type="matrix" values="0 0 0 0 0 0 0 0 0 0 0 0 0 0 0 0 0 0 127 0" result="hardAlpha"/>
<feOffset/>
<feGaussianBlur stdDeviation="0.5"/>
<feComposite in2="hardAlpha" operator="out"/>
<feColorMatrix type="matrix" values="0 0 0 0 0.951074 0 0 0 0 0.102089 0 0 0 0 0.102089 0 0 0 0.25 0"/>
<feBlend mode="normal" in2="BackgroundImageFix" result="effect1_dropShadow_1934_3676"/>
<feBlend mode="normal" in="SourceGraphic" in2="effect1_dropShadow_1934_3676" result="shape"/>
</filter>
</defs>
</svg>
