<svg width="14" height="14" viewBox="0 0 14 14" fill="none" xmlns="http://www.w3.org/2000/svg">
<g opacity="0.75" clip-path="url(#clip0_1912_3414)">
<path d="M6.70866 2.9165H6.96206C8.73962 2.9165 9.6284 2.9165 9.96578 3.23576C10.2574 3.51172 10.3867 3.91825 10.3079 4.31196C10.2168 4.76743 9.49122 5.28067 8.03999 6.30715L5.66899 7.98419C4.21777 9.01067 3.49215 9.52391 3.40106 9.97938C3.32233 10.3731 3.45157 10.7796 3.7432 11.0556C4.08059 11.3748 4.96937 11.3748 6.74693 11.3748H7.29199M4.66699 2.9165C4.66699 3.883 3.88349 4.6665 2.91699 4.6665C1.95049 4.6665 1.16699 3.883 1.16699 2.9165C1.16699 1.95001 1.95049 1.1665 2.91699 1.1665C3.88349 1.1665 4.66699 1.95001 4.66699 2.9165ZM12.8337 11.0832C12.8337 12.0497 12.0502 12.8332 11.0837 12.8332C10.1172 12.8332 9.33366 12.0497 9.33366 11.0832C9.33366 10.1167 10.1172 9.33317 11.0837 9.33317C12.0502 9.33317 12.8337 10.1167 12.8337 11.0832Z" stroke="#53A26E" stroke-linecap="round" stroke-linejoin="round"/>
</g>
<defs>
<clipPath id="clip0_1912_3414">
<rect width="14" height="14" fill="white"/>
</clipPath>
</defs>
</svg>
